<?xml version="1.0" standalone="no"?>
<!DOCTYPE svg PUBLIC "-//W3C//DTD SVG 20010904//EN"
 "http://www.w3.org/TR/2001/REC-SVG-20010904/DTD/svg10.dtd">
<svg version="1.0" xmlns="http://www.w3.org/2000/svg"
 width="512.000000pt" height="512.000000pt" viewBox="0 0 512.000000 512.000000"
 preserveAspectRatio="xMidYMid meet">
<metadata>
Created by potrace 1.15, written by Peter Selinger 2001-2017
</metadata>
<g transform="translate(0.000000,512.000000) scale(0.100000,-0.100000)"
fill="#000000" stroke="none">
<path d="M2655 5056 c-28 -12 -443 -247 -635 -359 -66 -38 -115 -66 -150 -85
-19 -10 -91 -52 -160 -92 -69 -40 -143 -82 -165 -95 -22 -12 -57 -31 -77 -43
-21 -12 -53 -30 -70 -41 -18 -10 -81 -46 -139 -80 -59 -33 -110 -61 -113 -61
-3 0 -6 7 -6 15 0 9 -7 26 -16 40 -14 22 -14 26 2 49 26 41 16 138 -19 174
l-27 28 30 22 30 23 0 203 0 204 -31 26 c-17 14 -40 26 -52 26 -22 -1 -21 -1
2 -14 44 -25 50 -50 51 -219 0 -95 -4 -166 -11 -179 -21 -40 -73 -51 -274 -57
l-190 -6 186 -6 c201 -7 235 -15 258 -66 27 -59 3 -153 -39 -153 -10 0 -22 -4
-25 -10 -3 -5 2 -10 12 -10 10 0 29 -7 41 -16 18 -12 22 -25 22 -68 l0 -52
-94 -52 c-51 -29 -97 -52 -101 -52 -4 0 -5 47 -3 104 5 99 5 105 -15 110 -11
3 -24 3 -29 0 -4 -3 -8 -52 -8 -110 l0 -104 -100 0 c-82 0 -100 -3 -100 -15 0
-12 17 -15 95 -15 l95 0 -30 -47 -30 -47 0 -939 c0 -930 0 -940 21 -973 11
-18 41 -49 67 -67 61 -45 1510 -1010 1539 -1025 41 -22 114 -14 173 19 30 17
84 47 120 67 36 19 97 54 135 77 71 43 471 272 535 307 34 18 79 44 150 85
109 63 732 420 773 442 26 14 61 39 77 55 63 59 60 10 60 1016 0 992 2 959
-52 1011 -19 18 -758 516 -1008 679 -38 25 -176 116 -307 204 -130 87 -252
165 -270 172 -40 17 -89 17 -128 0z m715 -830 l655 -442 7 -779 c6 -612 5
-782 -5 -791 -13 -13 -1529 -882 -1545 -886 -6 -2 -310 193 -676 432 l-665
435 -1 791 0 791 778 446 c427 245 782 446 787 446 6 0 305 -199 665 -443z"/>
<path d="M2555 4534 c-71 -42 -134 -79 -138 -83 -4 -4 48 -45 116 -90 l124
-82 146 84 147 84 -123 82 c-67 44 -127 81 -132 80 -6 0 -68 -34 -140 -75z"/>
<path d="M2161 4308 c-77 -45 -141 -84 -141 -87 0 -7 233 -161 243 -161 9 0
259 140 274 154 9 8 -20 32 -111 93 l-124 81 -141 -80z"/>
<path d="M2895 4310 c-77 -43 -141 -83 -142 -87 -3 -9 220 -163 237 -163 9 0
193 101 268 147 23 14 21 16 -99 99 -68 46 -123 84 -123 84 -1 0 -64 -36 -141
-80z"/>
<path d="M1768 4082 c-76 -42 -136 -80 -135 -85 1 -4 55 -43 120 -86 l119 -79
126 73 c70 39 136 77 147 82 17 10 4 21 -105 92 -68 45 -126 81 -129 81 -3 0
-68 -35 -143 -78z"/>
<path d="M2487 4078 c-76 -44 -137 -81 -135 -83 2 -1 57 -38 124 -83 l121 -80
146 83 147 82 -123 82 c-68 44 -127 81 -132 80 -6 0 -72 -37 -148 -81z"/>
<path d="M3221 4081 c-73 -42 -132 -81 -131 -86 1 -6 54 -45 118 -87 l115 -77
51 30 c28 16 93 53 144 81 50 28 92 54 92 57 0 9 -234 161 -245 160 -6 0 -70
-35 -144 -78z"/>
<path d="M1385 3864 c-71 -42 -134 -79 -139 -84 -8 -8 220 -163 239 -163 8 0
272 148 283 158 3 2 -246 166 -251 164 -1 0 -60 -34 -132 -75z"/>
<path d="M2105 3859 c-77 -44 -141 -82 -142 -83 -2 -1 53 -39 121 -83 l124
-81 133 75 c74 42 138 79 143 83 6 6 -223 171 -236 170 -2 0 -66 -37 -143 -81z"/>
<path d="M2833 3862 c-73 -43 -135 -80 -138 -84 -4 -3 47 -43 113 -87 l121
-81 143 81 c79 44 144 82 146 83 3 4 -242 166 -248 165 -3 -1 -64 -35 -137
-77z"/>
<path d="M3559 3862 c-75 -42 -138 -80 -140 -85 -2 -4 50 -43 116 -87 107 -71
121 -78 140 -67 11 8 75 44 143 81 67 38 122 70 122 72 0 4 -237 164 -242 164
-2 -1 -64 -36 -139 -78z"/>
<path d="M1713 3636 l-141 -80 123 -83 124 -82 145 82 144 83 -115 75 c-64 40
-121 77 -127 80 -6 3 -75 -30 -153 -75z"/>
<path d="M2449 3643 c-74 -41 -138 -79 -143 -83 -5 -5 44 -44 113 -89 l122
-79 144 81 c80 45 142 84 137 88 -4 4 -59 41 -123 82 l-116 75 -134 -75z"/>
<path d="M3168 3641 c-76 -42 -140 -80 -144 -83 -3 -4 48 -43 114 -87 l121
-81 143 81 c79 44 144 82 146 83 2 2 -119 85 -218 149 -24 15 -29 14 -162 -62z"/>
<path d="M3835 3626 l-130 -73 -3 -147 -3 -147 63 35 c35 20 98 55 140 79 l78
42 0 143 c0 78 -3 142 -7 142 -5 0 -66 -33 -138 -74z"/>
<path d="M1187 3638 c-4 -29 -7 -94 -7 -144 l0 -90 120 -77 c66 -42 123 -77
125 -77 3 0 5 66 5 148 l-1 147 -81 50 c-45 28 -98 60 -118 73 l-37 22 -6 -52z"/>
<path d="M2058 3422 c-74 -43 -136 -81 -137 -86 -2 -5 50 -43 115 -86 l118
-76 141 79 c77 44 141 80 143 82 3 2 -33 26 -164 111 l-81 52 -135 -76z"/>
<path d="M2777 3421 c-75 -43 -139 -80 -142 -83 -6 -6 221 -158 237 -158 8 0
270 142 286 155 2 1 -112 79 -218 148 -25 16 -28 15 -163 -62z"/>
<path d="M3450 3411 l-135 -77 -3 -148 -3 -148 35 20 c19 11 85 49 145 83
l111 61 0 144 c0 79 -3 144 -7 143 -5 0 -69 -35 -143 -78z"/>
<path d="M1520 3333 l0 -148 93 -58 c50 -31 107 -67 125 -78 l32 -21 0 149 0
150 -117 74 c-64 41 -121 76 -125 77 -4 2 -8 -63 -8 -145z"/>
<path d="M3840 3241 l-135 -78 -3 -148 -3 -147 53 30 c29 16 92 51 140 78 l88
49 0 148 c0 81 -1 147 -2 146 -2 0 -64 -36 -138 -78z"/>
<path d="M1180 3153 l0 -148 87 -55 c48 -30 104 -65 125 -78 l38 -23 0 148 -1
148 -92 57 c-51 32 -107 67 -124 79 l-33 21 0 -149z"/>
<path d="M2381 3198 l-143 -80 121 -79 c67 -44 124 -79 126 -79 3 0 69 36 146
79 l142 80 -114 74 c-63 40 -119 76 -124 80 -6 3 -75 -31 -154 -75z"/>
<path d="M1856 3222 c-3 -24 -6 -90 -6 -146 l0 -101 123 -78 122 -78 8 88 c4
48 6 114 5 147 l-3 58 -121 78 -122 78 -6 -46z"/>
<path d="M3060 3192 l-135 -77 -3 -149 -3 -149 23 15 c13 8 78 45 146 82 l122
68 0 144 c0 79 -3 144 -7 144 -5 -1 -69 -36 -143 -78z"/>
<path d="M3450 3021 l-135 -78 -3 -147 c-1 -80 -1 -146 2 -146 2 0 67 36 145
81 l141 81 0 144 c0 79 -3 144 -7 143 -5 0 -69 -36 -143 -78z"/>
<path d="M1516 3003 c-3 -42 -6 -106 -6 -142 l0 -66 120 -77 c66 -43 122 -78
125 -78 3 0 5 65 5 145 l0 145 -98 64 c-153 99 -138 98 -146 9z"/>
<path d="M2680 2977 l-145 -82 -3 -149 -3 -149 23 15 c13 8 77 45 144 82 l121
68 6 147 c3 80 4 147 3 148 -1 1 -67 -35 -146 -80z"/>
<path d="M2190 2905 l0 -145 122 -79 c85 -55 125 -76 130 -68 4 7 8 73 8 147
l0 135 -123 78 c-68 42 -126 77 -130 77 -4 0 -7 -65 -7 -145z"/>
<path d="M3833 2843 l-133 -75 0 -148 0 -148 143 81 142 82 3 50 c5 63 -8 235
-16 235 -4 -1 -67 -35 -139 -77z"/>
<path d="M1180 2757 l0 -145 111 -72 c61 -39 117 -74 125 -77 12 -4 14 19 14
138 l0 144 -117 75 c-64 41 -120 77 -125 78 -4 2 -8 -62 -8 -141z"/>
<path d="M3060 2801 l-135 -78 -3 -147 c-1 -80 0 -146 2 -146 3 0 67 35 143
79 l138 78 3 147 c1 80 -1 146 -5 145 -5 0 -69 -36 -143 -78z"/>
<path d="M1850 2723 l0 -148 117 -75 c64 -41 120 -76 125 -78 4 -2 8 63 8 145
l0 148 -87 55 c-48 30 -104 65 -125 78 l-38 23 0 -148z"/>
<path d="M3453 2628 l-143 -82 0 -148 0 -148 53 30 c28 17 94 54 144 83 l93
52 0 148 c0 81 -1 147 -2 147 -2 0 -67 -37 -145 -82z"/>
<path d="M1510 2546 l0 -145 88 -59 c48 -32 104 -68 125 -81 l37 -23 0 147 0
146 -112 73 c-62 40 -119 76 -125 80 -10 6 -13 -25 -13 -138z"/>
<path d="M2670 2581 l-135 -78 -3 -147 c-1 -80 1 -146 5 -145 5 0 69 35 143
78 l135 77 3 147 c1 81 -1 147 -5 146 -5 0 -69 -36 -143 -78z"/>
<path d="M2190 2503 l1 -148 101 -65 c56 -36 112 -71 125 -78 l23 -13 0 148 0
148 -117 75 c-64 41 -120 77 -125 78 -4 2 -8 -63 -8 -145z"/>
<path d="M3840 2452 l-135 -78 -3 -147 c-1 -81 1 -147 5 -146 5 0 69 35 143
78 l135 79 3 146 c1 80 -1 146 -5 146 -5 0 -69 -35 -143 -78z"/>
<path d="M1180 2365 l0 -145 115 -75 c64 -41 118 -75 120 -75 3 0 5 65 5 143
l0 144 -107 69 c-58 38 -112 73 -120 77 -11 6 -13 -19 -13 -138z"/>
<path d="M3063 2407 l-143 -82 0 -148 c0 -82 3 -146 8 -144 4 2 69 39 145 82
l137 77 0 149 c0 82 -1 149 -2 148 -2 0 -67 -37 -145 -82z"/>
<path d="M1850 2402 c0 -38 -3 -102 -6 -143 l-6 -74 121 -79 c67 -43 124 -76
127 -73 3 3 8 68 10 144 l5 138 -87 55 c-48 30 -105 65 -126 78 l-38 23 0 -69z"/>
<path d="M3448 2228 l-138 -80 0 -149 0 -149 53 30 c28 17 94 54 144 83 l93
52 0 148 c0 81 -3 147 -7 146 -5 0 -70 -37 -145 -81z"/>
<path d="M1510 2147 l0 -144 118 -76 117 -76 7 52 c3 29 6 93 7 142 l1 90
-120 78 c-66 42 -122 77 -125 77 -3 0 -5 -64 -5 -143z"/>
<path d="M2680 2190 c-74 -44 -138 -80 -141 -82 -10 -5 -20 -298 -10 -298 5 0
72 36 150 81 l141 81 0 149 c0 82 -1 149 -2 148 -2 -1 -64 -36 -138 -79z"/>
<path d="M2180 2108 l0 -144 125 -82 125 -81 0 58 c0 32 3 98 6 147 l5 89
-113 72 c-63 40 -121 75 -131 79 -16 6 -17 -6 -17 -138z"/>
<path d="M3063 2009 l-143 -81 0 -150 c0 -82 3 -147 8 -145 4 2 69 39 145 82
l137 77 0 149 c0 82 -1 149 -2 149 -2 0 -67 -37 -145 -81z"/>
<path d="M1840 1936 l0 -146 103 -68 c56 -38 112 -74 125 -81 l22 -12 0 146 0
145 -112 73 c-62 40 -119 76 -125 81 -10 6 -13 -25 -13 -138z"/>
<path d="M2668 1783 l-148 -85 0 -149 c0 -139 1 -149 18 -140 56 30 268 154
275 160 4 4 6 73 5 153 l-3 146 -147 -85z"/>
<path d="M2180 1713 l0 -148 117 -75 c64 -41 120 -76 125 -78 4 -2 8 62 8 142
l0 145 -112 74 c-62 40 -119 76 -125 81 -10 6 -13 -25 -13 -141z"/>
<path d="M569 4994 c58 -48 59 -132 3 -166 l-27 -17 27 -10 c36 -14 48 -39 48
-106 0 -119 -51 -154 -222 -155 -60 0 -108 4 -108 9 0 4 -18 20 -40 35 l-40
26 -51 -21 -50 -22 3 -55 c2 -37 8 -57 18 -62 8 -4 25 -12 37 -18 31 -16 38
-15 83 13 32 20 40 31 40 55 0 25 4 30 24 30 14 0 27 -4 30 -8 3 -4 15 -72 27
-150 14 -87 26 -137 31 -128 11 20 14 173 4 214 -7 28 -5 32 12 32 11 0 22 9
25 20 5 18 14 20 85 20 59 0 85 4 96 15 13 13 15 48 15 217 l0 201 -29 28
c-16 16 -38 29 -50 29 -20 0 -19 -2 9 -26z"/>
<path d="M373 4953 c-7 -2 -13 -22 -13 -44 l0 -39 -97 -1 c-54 0 -92 -3 -85
-6 20 -8 14 -20 -10 -18 -29 2 -49 -5 -43 -15 2 -4 16 -5 30 -2 15 2 25 0 25
-7 0 -6 -6 -11 -12 -11 -9 0 -8 -3 2 -10 13 -8 12 -10 -1 -15 -9 -3 -20 -5
-25 -3 -5 2 -11 -1 -14 -7 -8 -15 39 -18 56 -4 10 8 13 21 9 37 -6 23 -4 24
35 20 30 -3 39 0 36 9 -3 7 -1 13 4 13 15 0 11 -32 -5 -54 -8 -11 -22 -17 -33
-14 -10 3 -19 0 -19 -6 0 -7 11 -13 24 -14 16 -1 27 5 33 21 8 21 9 21 9 -5
l1 -28 -87 0 c-50 0 -83 -4 -78 -9 6 -5 49 -6 97 -3 l88 4 -2 38 c-2 50 7 60
50 60 52 0 61 10 64 65 3 50 -7 62 -39 48z"/>
<path d="M847 4934 c-4 -4 -7 -74 -7 -156 l0 -148 25 0 25 0 2 130 c1 72 2
140 2 153 1 22 -31 36 -47 21z"/>
<path d="M608 4280 c-15 -69 -33 -149 -39 -177 l-11 -53 -154 0 c-130 0 -154
-2 -154 -15 0 -13 27 -15 179 -15 177 0 179 0 184 23 12 43 28 253 25 307 -3
54 -4 53 -30 -70z"/>
<path d="M2026 778 c-3 -13 -6 -150 -6 -305 l0 -283 -45 0 c-45 0 -45 0 -45
-35 0 -51 28 -75 89 -75 27 0 61 4 75 10 l26 10 0 340 0 340 -26 10 c-41 16
-61 12 -68 -12z"/>
<path d="M3058 498 l-3 -303 -47 -3 c-40 -3 -48 0 -59 20 -6 13 -13 25 -15 27
-2 2 -15 -6 -30 -18 -53 -42 -118 -46 -182 -12 -20 11 -21 10 -12 -14 38 -100
126 -141 230 -106 47 17 57 18 74 5 31 -21 102 -18 126 6 19 19 20 33 20 340
0 307 -1 321 -20 340 -11 11 -33 20 -50 20 l-30 0 -2 -302z"/>
<path d="M4236 778 c-3 -13 -6 -90 -6 -173 l0 -150 50 69 50 69 0 94 c0 91 -1
94 -26 103 -41 16 -61 12 -68 -12z"/>
<path d="M910 665 l0 -95 51 0 51 0 -4 81 c-4 89 -16 109 -70 109 l-28 0 0
-95z"/>
<path d="M1248 478 l-3 -283 -49 -3 -48 -3 5 -42 c7 -53 27 -67 99 -67 45 0
63 5 78 20 19 19 20 33 20 320 0 287 -1 301 -20 320 -11 11 -33 20 -50 20
l-30 0 -2 -282z"/>
<path d="M1750 578 c46 -80 44 -220 -4 -302 -51 -88 -183 -118 -280 -63 -25
14 -46 22 -46 17 0 -4 15 -29 33 -56 76 -113 260 -132 359 -37 61 59 89 208
59 315 -15 53 -68 121 -112 143 l-28 15 19 -32z"/>
<path d="M2520 578 c46 -80 44 -220 -4 -302 -51 -88 -183 -118 -280 -63 -25
14 -46 22 -46 17 0 -4 15 -29 33 -56 43 -64 107 -97 191 -96 111 0 181 46 217
141 18 49 20 68 13 151 -3 52 -10 105 -15 116 -11 32 -68 93 -100 110 l-28 14
19 -32z"/>
<path d="M3994 578 c-9 -18 -17 -34 -18 -35 -1 -1 -21 5 -45 13 -82 28 -125 0
-137 -88 -14 -99 18 -178 70 -178 22 0 24 5 28 65 3 49 9 71 25 86 20 20 23
21 73 6 29 -9 59 -13 67 -10 19 7 43 68 43 108 0 37 -12 50 -57 60 -29 6 -33
3 -49 -27z"/>
<path d="M4432 536 c-34 -41 -62 -76 -62 -79 0 -3 38 -61 85 -128 47 -68 85
-126 85 -131 0 -4 -33 -8 -72 -8 l-73 1 -47 77 c-26 42 -52 83 -57 91 -7 11
-13 10 -35 -4 -24 -16 -26 -22 -26 -91 l0 -74 -45 0 c-45 0 -45 0 -45 -35 0
-51 28 -75 89 -75 27 0 61 4 75 10 24 9 26 14 26 79 0 38 4 72 8 75 4 2 29
-29 55 -70 53 -82 71 -94 147 -94 62 0 100 14 100 38 0 10 -36 71 -80 135 -44
63 -80 118 -80 122 0 3 34 46 75 96 41 49 75 95 75 102 0 25 -25 37 -80 37
l-56 0 -62 -74z"/>
<path d="M3556 564 c8 -19 16 -65 17 -102 l2 -67 -143 -3 c-143 -3 -143 -3
-137 -25 11 -38 40 -71 71 -79 34 -9 105 -1 152 18 30 12 32 12 32 -7 0 -15 7
-19 34 -19 19 0 46 4 59 9 24 9 24 11 20 103 -6 106 -27 156 -79 188 -43 27
-45 26 -28 -16z"/>
<path d="M1544 560 c-33 -13 -47 -60 -43 -149 5 -90 22 -121 71 -121 l28 0 0
69 c0 62 3 72 25 89 14 11 25 27 25 36 0 30 -29 73 -52 80 -28 7 -28 7 -54 -4z"/>
<path d="M2314 560 c-33 -13 -47 -60 -43 -149 5 -90 22 -121 71 -121 l28 0 0
69 c0 62 3 72 25 89 14 11 25 27 25 36 0 30 -29 73 -52 80 -28 7 -28 7 -54 -4z"/>
<path d="M2824 560 c-33 -13 -47 -60 -43 -149 5 -90 22 -121 71 -121 28 0 28
0 28 65 0 57 3 69 25 91 14 14 25 32 25 40 0 28 -29 71 -52 78 -28 7 -28 7
-54 -4z"/>
<path d="M908 328 l-3 -133 -47 -3 c-47 -3 -48 -4 -48 -38 0 -53 28 -74 98
-74 92 0 96 6 100 149 l4 121 49 0 49 0 0 55 0 55 -100 0 -99 0 -3 -132z"/>
<path d="M4033 258 c-21 -7 -33 -17 -33 -29 0 -46 -159 -57 -239 -17 l-49 24
11 -26 c32 -74 79 -110 175 -131 41 -8 63 -7 113 6 35 8 68 20 76 26 19 17 17
123 -3 143 -8 9 -16 16 -17 15 -1 -1 -17 -6 -34 -11z"/>
<path d="M3573 248 c-13 -6 -23 -17 -23 -24 0 -20 -67 -37 -149 -37 -63 -1
-85 4 -128 26 l-52 26 10 -26 c33 -87 118 -137 234 -136 79 0 146 16 170 39
15 16 21 96 9 128 -7 18 -38 20 -71 4z"/>
</g>
</svg>
