#VRML V1.0 ascii

# Blender V249

# 'Switch' is used as a hack, to ensure it is not part of the drawing

Separator {
Switch {
	DEF phobos
	Separator {
		Coordinate3 {
			point [
				 7.303167 -1.083313 -84.021828,
				 15.140629 1.410176 -80.101212,
				 61.028175 0.243252 -79.664703,
				 123.757942 0.118112 -39.187889,
				 125.946091 2.042684 -20.669724,
				 125.003571 0.485874 -8.810592,
				 112.625580 0.047502 33.587135,
				 82.232437 0.835442 65.851830,
				 71.562706 0.234649 73.077118,
				 52.588543 -1.734670 83.540054,
				 48.734192 -4.909798 -77.404121,
				 79.137604 10.893545 -80.489700,
				 95.095337 -2.157680 -76.450050,
				 120.605934 -9.408525 -50.259724,
				 122.885666 -6.217062 8.291418,
				 102.051010 -8.996449 -71.957329,
				 111.477089 -7.913761 -64.825119,
				 127.650665 -16.450760 -24.744471,
				 126.996353 -19.168718 -7.856981,
				 110.935760 -18.707888 40.524139,
				 49.826435 -10.491955 85.216331,
				 43.927597 -9.951352 -76.933777,
				 68.154251 -16.412523 -80.029816,
				 125.509125 -23.238129 11.038257,
				 116.845238 -21.530752 31.239012,
				 100.550652 -20.118431 49.212181,
				 94.081421 -11.148083 55.556801,
				 63.524338 -7.943096 75.968536,
				 53.945206 -16.899649 81.221146,
				 42.070686 -5.573151 88.781288,
				 30.665359 -2.430921 90.750977,
				 8.415423 -0.719220 95.831833,
				 6.595306 -3.345391 -84.236641,
				 17.092798 -4.150930 -82.279289,
				 27.956417 -3.441413 -80.374557,
				 37.372246 -12.933256 -79.049927,
				 67.782127 -24.691332 -77.129181,
				 96.660355 -24.035885 -72.313629,
				 107.051193 -30.122568 -63.899025,
				 116.204597 -45.237995 -46.618103,
				 125.415390 -46.266041 -23.269136,
				 126.201035 -43.941597 -10.579277,
				 124.041428 -44.185863 10.770484,
				 117.082146 -42.614422 33.385460,
				 107.565414 -38.074039 42.177986,
				 84.638229 -19.829836 63.809868,
				 18.165876 2.899179 94.732346,
				 82.416428 -32.970558 -74.839470,
				 110.327530 -62.857246 -44.129883,
				 125.218384 -60.046394 8.753839,
				 121.305191 -46.496216 22.681131,
				 111.696205 -52.771702 34.281658,
				 92.341240 -44.752522 57.297138,
				 83.203430 -38.798401 64.282433,
				 64.869995 -30.462219 73.009300,
				 48.704277 -19.447931 -76.482613,
				 97.907379 -53.813820 -62.390778,
				 114.997360 -66.848587 -34.507973,
				 121.848282 -70.207382 7.358833,
				 118.131676 -68.203346 24.052179,
				 106.190445 -62.338020 41.512417,
				 92.501511 -52.749962 56.401272,
				 49.671207 -27.418045 83.404762,
				 5.406466 -5.129517 -84.827843,
				 72.735001 -47.291626 -71.772339,
				 88.542725 -47.339039 -69.581589,
				 105.227425 -73.681030 -34.420479,
				 105.566933 -72.803314 -17.071323,
				 108.589371 -76.083153 23.282270,
				 98.712502 -73.464371 43.780472,
				 86.967804 -60.863586 56.666470,
				 78.853104 -49.842506 64.588974,
				 61.461731 -40.348362 69.176262,
				 36.795975 -19.795496 88.744034,
				 32.471996 -13.655663 89.405678,
				 7.468812 -3.891709 95.807152,
				 22.152431 -16.179937 -79.714035,
				 36.204384 -22.613886 -78.080322,
				 40.994354 -32.572395 -74.723877,
				 85.514633 -65.630478 -62.069122,
				 95.564537 -67.825302 -53.851833,
				 101.572464 -71.062996 -44.676796,
				 87.523178 -77.419693 -10.791787,
				 95.310509 -79.636993 32.431225,
				 54.569736 -34.723328 78.555580,
				 11.715288 -8.792007 -81.809677,
				 63.931366 -57.028397 -71.149681,
				 70.338982 -63.232430 -67.998016,
				 70.515312 -83.115021 -0.228450,
				 74.167114 -72.143829 57.262756,
				 54.211941 -50.546566 70.521683,
				 41.288422 -44.758163 -73.252625,
				 47.878452 -56.321014 -69.750740,
				 71.624840 -76.292732 -58.397324,
				 84.288300 -80.539658 -29.449282,
				 68.088959 -85.279678 -15.678865,
				 73.669060 -85.165817 14.891926,
				 79.502747 -86.356583 30.884275,
				 83.315697 -84.925827 43.199940,
				 63.352638 -63.720963 63.961849,
				 49.594879 -59.551392 72.259445,
				 3.736364 -6.474425 -85.227272,
				 54.922298 -76.796341 -57.948463,
				 54.337715 -94.642395 -39.734951,
				 67.379433 -88.323578 -41.316841,
				 61.161774 -87.959717 -18.502163,
				 56.158493 -81.979202 56.900578,
				 43.999744 -50.229744 77.689789,
				 43.251953 -39.336685 82.514954,
				 27.769501 -30.352139 88.343040,
				 5.689280 -6.207757 95.790237,
				 10.222268 -14.550850 -84.061554,
				 20.482441 -29.084888 -82.096588,
				 29.752201 -33.003353 -79.042473,
				 31.251701 -45.190147 -73.919479,
				 47.718590 -101.414650 -18.625965,
				 56.097778 -93.616516 -16.674282,
				 60.341042 -93.196884 8.475288,
				 60.874119 -97.651756 21.126526,
				 59.205765 -99.325424 31.322897,
				 57.558563 -98.154533 41.036945,
				 31.604622 -59.276447 -67.178299,
				 45.454826 -95.028954 -40.396950,
				 33.566925 -109.047844 -14.547907,
				 50.194210 -107.641830 10.391001,
				 51.185871 -109.768456 21.356030,
				 49.276802 -105.674438 31.242571,
				 37.433804 -66.676170 72.023148,
				 20.883003 -50.937775 82.484779,
				 1.706264 -7.354568 -85.895889,
				 25.053701 -49.781662 -72.942619,
				 30.333641 -97.059479 -36.580070,
				 37.293320 -96.801865 49.670719,
				 36.598423 -88.994125 56.387753,
				 16.580786 -58.001080 79.936775,
				 16.403215 -25.058025 91.134834,
				 8.277695 -13.783237 94.756538,
				 7.810929 -21.408293 -83.360527,
				 30.778156 -75.727753 -55.208534,
				 31.223530 -103.647339 -26.913357,
				 41.551857 -114.660599 10.528658,
				 40.729324 -112.289459 20.734028,
				 40.222740 -102.746727 40.988029,
				 24.422150 -91.144730 54.478752,
				 26.595348 -77.827141 64.647758,
				 10.585878 -63.067383 75.850342,
				 3.221088 -7.779112 95.784256,
				 5.273485 -58.817841 -72.045227,
				 20.886368 -62.791893 -64.822777,
				 39.089668 -112.957291 -0.786254,
				 12.863422 -74.095474 60.490776,
				 8.148839 -44.111347 83.044144,
				 4.572567 -13.340527 -85.678497,
				 7.289768 -37.388424 -82.123047,
				 14.777027 -44.318352 -79.344513,
				 11.069916 -75.660500 -59.488617,
				 14.716946 -83.966721 -48.748405,
				 18.063150 -101.615326 -28.616043,
				 10.209148 -114.912140 10.935734,
				 15.039263 -113.958969 21.800694,
				 23.921698 -97.794876 47.658691,
				 -0.386995 -7.555170 -86.385689,
				 5.607355 -90.499283 -42.795528,
				 3.079415 -110.729507 -13.087872,
				 3.370870 -106.093536 37.491615,
				 10.197610 -87.336189 51.389141,
				 0.696226 -8.370017 95.752151,
				 -2.347719 -18.969524 -87.274567,
				 -3.267691 -72.781105 -63.146774,
				 -14.371644 -106.966232 -19.088196,
				 5.211031 -114.417915 0.030168,
				 -4.936578 -97.733925 45.287937,
				 -1.841993 -78.746185 55.075783,
				 1.129574 -69.259209 63.778694,
				 0.070694 -51.994987 78.734879,
				 -1.491034 -39.962044 84.334961,
				 0.225880 -29.561237 91.042213,
				 -2.187406 -7.277960 -86.402786,
				 -1.583576 -30.803741 -86.221222,
				 -5.045339 -46.024651 -82.138138,
				 -8.455645 -83.589134 -50.224384,
				 -28.805311 -103.174477 -22.847637,
				 -12.550478 -111.926559 9.478622,
				 -12.769848 -87.155380 49.674118,
				 -12.906767 -76.153809 58.680935,
				 -10.620202 -46.516174 82.130623,
				 -6.353012 -58.705147 -74.531258,
				 -17.981976 -96.028320 -36.258484,
				 -14.657003 -110.738640 -8.703100,
				 -22.688034 -84.287483 55.150818,
				 -11.383532 -63.055359 76.127098,
				 -15.731373 -43.500713 -82.711372,
				 -22.592638 -72.307037 -66.879326,
				 -29.249983 -80.582672 -53.530052,
				 -18.822016 -109.716270 19.163006,
				 -21.739426 -104.637497 28.584326,
				 -17.931652 -96.149628 43.348518,
				 -28.687069 -76.065247 64.178604,
				 -18.430273 -68.647736 72.580765,
				 -10.419546 -32.237900 90.867950,
				 0.496257 -17.849276 94.594788,
				 -16.224052 -52.389954 -78.998421,
				 -25.082752 -66.922485 -74.047966,
				 -39.815121 -87.061310 -47.507111,
				 -45.001831 -97.062111 -32.309788,
				 -44.102627 -106.215935 -10.199057,
				 -41.879707 -108.748886 5.277062,
				 -35.932774 -87.457443 48.030514,
				 -19.117340 -50.973820 83.276505,
				 -2.218719 -8.238457 96.781693,
				 -4.666748 -5.893552 -85.542061,
				 -43.631950 -70.562546 -73.783546,
				 -49.083527 -88.844681 -46.180428,
				 -55.927727 -104.627762 21.057711,
				 -55.635242 -93.302795 35.411800,
				 -12.417322 -25.494383 -85.329674,
				 -31.168459 -48.273491 -81.871223,
				 -29.525488 -60.573154 -79.185440,
				 -41.292549 -76.573242 -67.995987,
				 -63.344711 -100.821495 -10.016962,
				 -63.850060 -102.601395 1.934752,
				 -49.157948 -82.196968 49.160847,
				 -41.712494 -70.696838 64.386002,
				 -37.241871 -57.050091 82.081612,
				 -26.601202 -40.241516 89.067810,
				 -13.575091 -21.923992 95.964691,
				 -11.877222 -18.076014 -87.266937,
				 -45.842342 -63.165207 -76.407677,
				 -63.302208 -80.307930 -58.184696,
				 -69.720726 -91.002129 -25.058071,
				 -79.462303 -93.750420 7.833369,
				 -70.750023 -96.018364 21.387856,
				 -70.024780 -85.440331 38.535427,
				 -34.574615 -48.353825 86.946022,
				 -4.843336 -7.045866 97.487167,
				 -6.840171 -12.776297 -87.284500,
				 -37.572731 -42.537476 -81.652138,
				 -46.617851 -52.426353 -82.302170,
				 -64.445702 -65.425575 -76.673172,
				 -68.638084 -70.860092 -69.004913,
				 -87.150604 -89.970352 -3.390785,
				 -89.599747 -89.599754 11.085970,
				 -80.118294 -80.156601 36.993263,
				 -68.954132 -77.238953 46.759888,
				 -45.485962 -52.099884 79.982979,
				 -6.244656 -4.176920 -85.038177,
				 -29.159288 -33.653999 -84.928757,
				 -56.246101 -46.634476 -85.472679,
				 -71.880295 -62.108158 -75.489113,
				 -74.743103 -72.411362 -61.426483,
				 -81.018631 -78.404869 -40.934315,
				 -105.422089 -75.984695 -0.790971,
				 -98.750015 -82.861107 0.000000,
				 -98.503601 -82.654343 11.249929,
				 -88.976318 -86.403793 20.805204,
				 -83.079979 -69.739655 42.404594,
				 -66.896538 -58.206734 60.484829,
				 -43.765965 -36.210960 -87.256821,
				 -105.743469 -60.139904 -35.621563,
				 -61.450638 -46.838181 68.926651,
				 -51.045517 -39.555099 80.709488,
				 -22.776855 -25.263519 92.116577,
				 -11.594096 -13.246271 98.508080,
				 -20.505085 -17.251080 -88.774582,
				 -60.357021 -39.939934 -86.039803,
				 -74.828476 -50.627232 -77.451157,
				 -87.482437 -51.322205 -65.443611,
				 -106.673386 -68.992950 -19.950661,
				 -109.664139 -65.806992 11.318779,
				 -104.903046 -62.032112 21.289064,
				 -95.159363 -61.792549 30.055744,
				 -91.338158 -51.049313 45.268753,
				 -38.770588 -29.682856 85.656898,
				 -52.995487 -32.834869 -88.612511,
				 -116.248749 -62.353241 -0.432383,
				 -81.017731 -49.107635 56.684639,
				 -67.765816 -31.679897 72.833702,
				 -6.955868 -5.077484 97.653488,
				 -7.319582 -1.631506 -85.240166,
				 -81.898331 -31.417042 -76.159752,
				 -95.753136 -33.144203 -62.761070,
				 -100.466202 -54.366142 -48.043671,
				 -114.560127 -50.899025 -32.073139,
				 -119.883392 -48.134342 -24.191916,
				 -119.522644 -53.077446 -12.277287,
				 -120.437813 -43.645348 10.225972,
				 -111.040878 -46.428558 20.747219,
				 -103.070374 -44.763409 28.928936,
				 -96.500778 -39.925964 45.858158,
				 -81.315910 -32.055500 61.954338,
				 -55.941883 -27.717478 78.023376,
				 -43.856781 -16.406284 81.926758,
				 -21.628624 -7.602402 -88.414200,
				 -43.017803 -19.773844 -89.667366,
				 -66.519943 -20.517960 -86.412064,
				 -83.176231 -22.397655 -78.938202,
				 -125.332916 -25.427931 -21.442638,
				 -125.677864 -32.994469 -8.336137,
				 -108.802025 -29.092907 36.731163,
				 -78.704979 -23.288017 70.240952,
				 -71.241058 -22.907806 74.782417,
				 -30.067194 -10.881002 90.234489,
				 -37.050434 -6.705976 -91.482811,
				 -72.963455 -7.889890 -87.063080,
				 -96.439674 -18.353197 -69.690109,
				 -107.580811 -16.619209 -53.744247,
				 -117.984833 -12.419352 -34.694481,
				 -130.892761 -23.079929 0.000000,
				 -129.821457 -24.484282 13.350330,
				 -125.770638 -26.809677 23.461485,
				 -103.477112 -19.062290 52.190441,
				 -83.833427 -14.947189 69.237129,
				 -46.047531 -8.624603 81.316757,
				 -21.586647 -10.155495 95.218971,
				 -15.771620 -6.365707 97.847450,
				 -53.680473 -7.582329 -91.031479,
				 -81.790710 -10.405723 -82.418564,
				 -96.743683 -5.773435 -69.127258,
				 -126.464493 -11.051656 -22.110720,
				 -132.424683 -11.167093 1.942223,
				 -114.017632 -10.443104 42.189442,
				 -53.925213 -2.144993 78.911270,
				 -8.413507 -1.847919 97.969269,
				 -7.157384 1.701316 -83.309547,
				 -82.126091 -2.328428 -80.835457,
				 -105.241623 -2.137413 -58.303024,
				 -124.634888 0.245269 -23.323689,
				 -127.771362 1.896638 3.689547,
				 -128.048187 -11.170214 22.419964,
				 -108.574570 -8.432739 48.479492,
				 -83.386734 -3.400460 70.090263,
				 -75.843002 -7.867613 74.606010,
				 -33.785282 -1.226100 -89.892380,
				 -96.011284 8.435756 -69.820641,
				 -109.372543 8.251192 -46.264175,
				 -119.617081 11.422464 -24.020866,
				 -123.321518 10.862117 -5.999113,
				 -117.069130 1.657291 38.919559,
				 -98.183434 -7.446363 56.109322,
				 -33.573318 2.739083 91.523964,
				 -73.560806 7.303579 -88.519424,
				 -83.395958 14.418221 -84.871353,
				 -106.999725 18.352221 -40.674290,
				 -116.261032 20.499958 -10.328430,
				 -110.278862 15.599475 40.110458,
				 -101.614670 13.728458 47.938038,
				 -57.185188 1.209698 77.883194,
				 -8.502571 0.714162 97.281944,
				 -44.221439 5.469437 -93.359131,
				 -53.442474 4.276677 -94.035378,
				 -73.242104 19.625160 -90.365669,
				 -92.250504 17.072224 -75.307541,
				 -102.374512 12.947188 -59.312508,
				 -100.271057 39.045223 -38.977524,
				 -115.523514 20.356407 -20.570465,
				 -114.444992 32.378403 -2.301609,
				 -121.071175 18.277412 20.806271,
				 -99.237892 28.199289 42.541878,
				 -77.954666 20.100903 66.980690,
				 -25.634499 0.520130 95.668678,
				 -19.692833 1.474389 96.607979,
				 -22.980099 4.628326 -84.640457,
				 -69.024002 25.732126 -91.095337,
				 -79.727905 26.420696 -85.758224,
				 -121.392220 23.260872 10.452672,
				 -113.818748 25.088274 30.259949,
				 -89.159691 40.410034 48.894238,
				 -91.507179 23.322231 54.978058,
				 -72.925522 9.752060 75.311424,
				 -46.210064 9.707801 82.595070,
				 -17.340561 3.339623 -83.891495,
				 -86.561577 47.371361 -58.624435,
				 -96.257568 39.284599 -57.126255,
				 -108.146629 41.853416 -18.284271,
				 -105.058098 53.960529 0.728066,
				 -62.660210 20.941574 79.452126,
				 -31.176989 14.166965 93.705444,
				 -7.889273 3.203687 96.934875,
				 -5.925608 4.127487 -82.336411,
				 -38.121716 21.204731 -93.717957,
				 -53.684616 27.540400 -92.874008,
				 -84.091461 33.473892 -77.515450,
				 -101.483322 52.817039 33.834641,
				 -77.890999 41.472092 59.440922,
				 -71.508636 35.794224 67.677124,
				 -44.577518 22.631395 85.600471,
				 -48.833355 25.740971 -95.213783,
				 -62.672539 38.427605 -85.291664,
				 -81.256752 46.786552 -66.763985,
				 -87.565041 60.550682 -32.870232,
				 -96.668350 66.923271 0.317171,
				 -107.414406 52.909218 21.992344,
				 -55.777439 35.183708 78.705894,
				 -53.591797 52.603680 -80.186958,
				 -72.098495 51.610321 -74.680313,
				 -68.944191 68.174294 -58.073967,
				 -78.015991 62.367882 -48.252617,
				 -83.768227 69.088913 -18.506659,
				 -94.602242 60.438976 -15.872940,
				 -87.939728 69.953705 37.034706,
				 -79.605118 59.676476 51.761204,
				 -62.786476 62.419472 62.812119,
				 -43.143860 29.704632 85.944908,
				 -6.776757 5.126824 96.958832,
				 -4.331318 5.726289 -81.692490,
				 -39.115921 37.546650 -93.614105,
				 -76.618797 70.136063 -33.401768,
				 -77.835075 79.571655 -14.553307,
				 -86.008163 80.939850 4.585156,
				 -90.019081 76.110023 20.771156,
				 -61.686306 47.562515 69.916931,
				 -43.791847 42.303719 80.307343,
				 -27.964651 21.298683 93.730652,
				 -22.058916 14.925179 96.446228,
				 -40.102962 55.614265 -82.594254,
				 -67.962654 84.190056 -25.563782,
				 -71.868149 86.902237 -9.749261,
				 -75.890839 90.756638 15.867865,
				 -74.480637 80.797340 39.451694,
				 -63.286022 71.278221 56.802551,
				 -40.225262 57.436813 76.629616,
				 -31.293070 35.086845 87.299149,
				 -11.369387 9.336910 -82.760834,
				 -29.841757 32.273270 -93.626587,
				 -50.194191 69.226372 -70.549080,
				 -53.760361 78.734428 -59.520294,
				 -53.237686 84.813309 -53.246952,
				 -64.029755 77.312378 -41.049553,
				 -74.278198 87.704895 29.910145,
				 -56.817123 79.338867 51.778717,
				 -17.826872 14.696831 -84.526077,
				 -19.466480 26.198671 -88.346596,
				 -30.479118 44.381832 -90.635788,
				 -45.972252 83.712273 -57.352135,
				 -57.144203 92.891876 -30.045635,
				 -59.489117 96.339119 -9.673446,
				 -49.892815 106.708603 9.422870,
				 -62.907772 97.723198 11.284690,
				 -57.606129 99.776733 30.871029,
				 -56.339306 95.950935 40.255150,
				 -48.685753 86.588837 48.042339,
				 -19.406528 33.071064 93.377182,
				 -5.235545 6.814728 97.814262,
				 -1.731766 6.965587 -81.466003,
				 -28.563416 69.019234 -72.330696,
				 -48.061516 108.175896 -1.762374,
				 -53.256565 104.490158 20.449978,
				 -45.634552 97.863609 39.301712,
				 -41.167976 71.325867 66.719398,
				 -29.599453 46.993408 83.206970,
				 -13.770321 22.013199 97.151146,
				 -2.296433 8.316807 97.927208,
				 -21.790192 54.889641 -83.139915,
				 -43.189217 99.911819 -38.082024,
				 -42.303856 108.415367 -15.721628,
				 -32.827400 111.262131 19.315069,
				 -44.975006 104.794548 29.854416,
				 -39.055618 89.902710 45.326656,
				 -38.621670 85.256355 54.893398,
				 -17.169706 42.156902 89.085915,
				 -12.826174 37.513119 -86.581123,
				 -15.563377 47.253422 -84.800934,
				 -21.597795 80.962990 -68.802612,
				 -30.919205 98.582214 -50.225998,
				 -30.424080 110.079849 -24.905062,
				 -35.044407 102.655045 38.267925,
				 -24.217403 74.618713 69.276970,
				 -8.836879 30.668060 -85.834892,
				 -15.359913 64.929878 -76.059837,
				 -17.233418 97.779968 -55.006592,
				 -18.876911 110.076202 -34.530048,
				 -22.024687 117.934341 -0.319330,
				 -27.733643 115.137604 9.475855,
				 -23.263290 94.832077 52.343788,
				 -19.357592 87.161255 61.102638,
				 -19.026596 58.279465 79.840881,
				 -6.931059 29.458195 94.014236,
				 -5.540353 38.586960 -84.697533,
				 -17.706846 111.930405 -20.178192,
				 -1.101226 118.476440 -0.352825,
				 -12.064587 64.577644 75.937256,
				 -2.482306 57.830589 83.584961,
				 0.251326 7.152373 -81.715973,
				 -5.098916 51.628494 -79.370323,
				 -11.048083 81.300270 -69.393608,
				 4.117965 92.261665 -58.172127,
				 -0.929952 108.170944 -37.797199,
				 0.980816 118.101494 14.867348,
				 -1.736809 98.967896 52.630943,
				 -8.596897 83.186615 66.883621,
				 4.964171 58.581505 84.451004,
				 -5.639113 50.413685 87.856079,
				 -6.218801 41.477257 90.916260,
				 -5.285067 14.422317 -81.604431,
				 -0.387389 23.509453 -84.349548,
				 2.693971 70.146149 -72.761581,
				 -3.716595 114.376266 29.261351,
				 -8.034302 108.771957 40.052200,
				 6.500050 68.936172 78.631439,
				 -3.155477 16.403267 96.760620,
				 2.602485 6.749091 -82.080658,
				 12.830158 85.028412 -61.111977,
				 3.854131 114.399330 -14.823483,
				 4.949672 86.479462 64.552292,
				 2.397693 30.470598 90.517036,
				 -0.123218 30.371937 -84.634674,
				 7.314754 39.605835 -78.859650,
				 15.486273 77.154510 -66.669258,
				 29.374828 108.938522 -20.549147,
				 22.534151 114.345245 1.305824,
				 24.725416 110.825188 37.761414,
				 22.018072 100.491226 50.320007,
				 17.175188 75.401093 70.518608,
				 12.464601 61.988121 81.662437,
				 9.093998 40.607361 87.611046,
				 1.088935 8.406476 96.426682,
				 6.455612 20.289635 -83.078583,
				 19.859049 54.638870 -69.703362,
				 26.347876 101.338150 -35.894646,
				 42.925484 108.259079 1.278506,
				 25.567799 115.211601 21.580069,
				 12.630586 51.664429 -74.525879,
				 26.919615 71.812248 -64.953934,
				 23.310524 87.454529 -55.326046,
				 41.066631 100.635849 -28.566261,
				 47.196156 100.588371 -12.796972,
				 43.174103 102.156281 39.399609,
				 42.457890 93.734436 51.262070,
				 27.304670 82.508171 65.085457,
				 19.082506 51.254974 82.613358,
				 24.128181 42.983124 -75.337746,
				 41.232761 74.893929 -56.520161,
				 25.240604 64.765739 71.968971,
				 4.862567 5.365650 -82.375877,
				 42.654190 62.272358 -65.680779,
				 48.840836 88.339699 -41.062584,
				 58.302158 86.453209 -36.399742,
				 61.368622 101.132523 20.367023,
				 58.038219 92.881668 38.011482,
				 38.830097 81.587982 62.264980,
				 42.889946 48.728058 74.597290,
				 20.083248 38.312229 86.830208,
				 6.632727 15.162249 94.240616,
				 7.853243 13.527725 -82.341400,
				 15.686960 30.780966 -79.090584,
				 29.860985 37.630962 -74.429466,
				 35.384743 46.524124 -70.868210,
				 61.588005 93.289124 -18.166830,
				 60.759987 99.589920 -0.780173,
				 65.241554 98.930016 9.844490,
				 58.194435 83.713089 49.309231,
				 4.233163 7.320172 95.910461,
				 14.551807 15.727329 -80.287048,
				 42.093960 42.093960 -70.944908,
				 49.305172 50.423626 -70.616997,
				 57.995041 56.193275 -67.047241,
				 83.367683 83.614243 20.952225,
				 35.749561 44.137360 80.245911,
				 47.622112 37.444904 -73.736832,
				 65.323532 68.182999 -54.360733,
				 72.874954 69.153969 -47.691376,
				 80.457123 70.878799 -37.729752,
				 88.103470 81.532227 0.262712,
				 87.828888 82.389175 10.005104,
				 76.999664 81.584351 36.615433,
				 74.061195 64.139595 53.565010,
				 59.923519 58.699036 65.228851,
				 29.590147 27.752295 87.652290,
				 6.401476 3.375209 -82.269882,
				 32.477955 22.826603 -77.720154,
				 79.224594 56.138840 -56.858807,
				 86.806458 80.160454 -10.318527,
				 75.436462 51.971329 59.035206,
				 50.946804 36.688999 75.083900,
				 52.389103 29.460400 -77.423088,
				 61.171146 40.356289 -74.001816,
				 67.394173 48.360348 -69.426315,
				 88.283813 56.947308 -48.695404,
				 105.308899 63.196289 0.413677,
				 101.106682 65.054863 23.071348,
				 98.341743 58.705868 38.971722,
				 88.692383 56.039986 48.709942,
				 65.141602 43.293232 67.524361,
				 6.694971 5.139550 96.031937,
				 48.707676 20.400604 -78.032143,
				 66.146500 31.063156 -75.940399,
				 77.220749 36.008629 -71.494370,
				 87.337738 41.688454 -62.062969,
				 104.862534 52.393173 -23.300962,
				 106.927116 58.336811 -10.203843,
				 112.429901 53.274807 8.182682,
				 109.161835 48.100632 27.925617,
				 49.102882 27.821800 80.105469,
				 38.337929 17.702559 87.050110,
				 13.463363 11.691540 94.377678,
				 109.165161 41.505207 -41.901623,
				 114.166183 41.852280 -21.716412,
				 116.586319 41.811348 -8.778743,
				 116.029144 42.611561 11.603376,
				 94.048187 36.785675 52.753151,
				 65.613907 19.635056 74.301308,
				 7.222995 0.934284 -82.937737,
				 12.609079 5.672737 -80.156219,
				 57.147095 14.423951 -79.230583,
				 73.642143 26.151360 -78.272224,
				 84.429741 30.214329 -74.024086,
				 100.537300 31.990061 -61.287914,
				 109.663803 32.839016 -49.818901,
				 115.630539 30.622635 -42.796978,
				 118.008652 25.221510 7.929725,
				 106.029617 35.440205 40.748501,
				 84.456131 27.957680 62.015461,
				 52.121452 16.382870 82.166519,
				 43.141579 10.156852 -79.330147,
				 107.268845 18.544752 -63.474754,
				 118.602150 20.885389 -42.907738,
				 119.805176 32.123264 -17.675030,
				 113.028427 26.922674 30.593527,
				 98.252754 24.743650 51.318802,
				 47.467339 6.621130 82.248085,
				 8.033726 2.586305 96.015839,
				 36.747940 0.704292 -79.747482,
				 88.689568 13.120651 -75.682159,
				 113.450241 19.727057 -54.857697,
				 120.299034 10.587000 -40.076443,
				 120.063789 9.376431 12.876211,
				 113.617477 9.956367 33.534683,
				 99.489243 8.361109 51.387123,
				 66.630669 6.590939 74.825790,
				 39.599777 6.506583 86.995361,
			]
		}
		IndexedFaceSet {
			coordIndex [
				 430, 422, 493, -1,
				 423, 431, 460, -1,
				 412, 441, 450, -1,
				 422, 404, 493, -1,
				 423, 460, 432, -1,
				 426, 434, 427, -1,
				 434, 454, 415, -1,
				 414, 433, 424, -1,
				 424, 433, 425, -1,
				 421, 441, 412, -1,
				 428, 439, 418, -1,
				 418, 429, 419, -1,
				 415, 435, 416, -1,
				 416, 437, 417, -1,
				 418, 439, 429, -1,
				 411, 449, 421, -1,
				 421, 449, 441, -1,
				 419, 448, 420, -1,
				 420, 449, 411, -1,
				 467, 430, 493, -1,
				 460, 431, 467, -1,
				 493, 404, 443, -1,
				 431, 430, 467, -1,
				 460, 461, 432, -1,
				 432, 452, 444, -1,
				 414, 444, 433, -1,
				 432, 461, 452, -1,
				 432, 444, 414, -1,
				 440, 448, 429, -1,
				 416, 436, 437, -1,
				 437, 446, 417, -1,
				 454, 435, 415, -1,
				 435, 436, 416, -1,
				 417, 438, 428, -1,
				 439, 440, 429, -1,
				 429, 448, 419, -1,
				 417, 446, 438, -1,
				 428, 438, 439, -1,
				 399, 419, 400, -1,
				 418, 419, 399, -1,
				 409, 428, 399, -1,
				 428, 418, 399, -1,
				 400, 419, 401, -1,
				 450, 403, 413, -1,
				 450, 442, 403, -1,
				 411, 421, 402, -1,
				 421, 412, 402, -1,
				 407, 408, 398, -1,
				 423, 430, 431, -1,
				 393, 424, 394, -1,
				 411, 402, 392, -1,
				 422, 378, 404, -1,
				 394, 425, 395, -1,
				 406, 407, 397, -1,
				 397, 407, 398, -1,
				 394, 424, 425, -1,
				 396, 395, 406, -1,
				 409, 417, 428, -1,
				 401, 420, 410, -1,
				 408, 416, 417, -1,
				 408, 417, 409, -1,
				 419, 420, 401, -1,
				 393, 414, 424, -1,
				 427, 434, 415, -1,
				 410, 420, 411, -1,
				 412, 450, 413, -1,
				 407, 416, 408, -1,
				 405, 414, 393, -1,
				 425, 426, 395, -1,
				 423, 432, 405, -1,
				 405, 432, 414, -1,
				 395, 426, 427, -1,
				 406, 415, 407, -1,
				 415, 416, 407, -1,
				 395, 427, 406, -1,
				 406, 427, 415, -1,
				 459, 491, 492, -1,
				 459, 492, 476, -1,
				 466, 480, 475, -1,
				 475, 491, 459, -1,
				 467, 493, 494, -1,
				 460, 477, 483, -1,
				 461, 483, 468, -1,
				 467, 477, 460, -1,
				 460, 483, 461, -1,
				 458, 473, 474, -1,
				 454, 471, 445, -1,
				 454, 464, 471, -1,
				 470, 464, 453, -1,
				 453, 464, 454, -1,
				 445, 472, 455, -1,
				 465, 473, 457, -1,
				 457, 473, 458, -1,
				 445, 471, 472, -1,
				 455, 465, 456, -1,
				 467, 505, 477, -1,
				 483, 495, 468, -1,
				 466, 489, 480, -1,
				 467, 494, 505, -1,
				 468, 495, 484, -1,
				 478, 479, 471, -1,
				 471, 487, 472, -1,
				 484, 485, 469, -1,
				 469, 486, 470, -1,
				 474, 489, 466, -1,
				 462, 484, 469, -1,
				 463, 469, 470, -1,
				 468, 484, 462, -1,
				 462, 469, 463, -1,
				 470, 478, 464, -1,
				 472, 497, 455, -1,
				 465, 497, 473, -1,
				 464, 478, 471, -1,
				 455, 497, 465, -1,
				 447, 457, 439, -1,
				 457, 458, 440, -1,
				 456, 447, 438, -1,
				 439, 457, 440, -1,
				 440, 458, 448, -1,
				 450, 451, 442, -1,
				 445, 455, 436, -1,
				 466, 420, 448, -1,
				 449, 459, 441, -1,
				 438, 447, 439, -1,
				 463, 453, 426, -1,
				 426, 453, 434, -1,
				 425, 463, 426, -1,
				 425, 433, 463, -1,
				 453, 454, 434, -1,
				 437, 436, 446, -1,
				 446, 456, 438, -1,
				 454, 445, 435, -1,
				 435, 445, 436, -1,
				 476, 499, 450, -1,
				 452, 461, 468, -1,
				 441, 476, 450, -1,
				 450, 499, 451, -1,
				 452, 468, 444, -1,
				 462, 463, 444, -1,
				 463, 470, 453, -1,
				 444, 468, 462, -1,
				 444, 463, 433, -1,
				 459, 476, 441, -1,
				 456, 465, 447, -1,
				 465, 457, 447, -1,
				 436, 455, 446, -1,
				 455, 456, 446, -1,
				 458, 474, 448, -1,
				 420, 475, 449, -1,
				 475, 459, 449, -1,
				 448, 474, 466, -1,
				 466, 475, 420, -1,
				 410, 411, 392, -1,
				 321, 369, 339, -1,
				 349, 350, 340, -1,
				 358, 368, 330, -1,
				 346, 369, 321, -1,
				 340, 363, 341, -1,
				 352, 353, 342, -1,
				 354, 355, 343, -1,
				 350, 363, 340, -1,
				 363, 351, 341, -1,
				 338, 358, 330, -1,
				 335, 354, 343, -1,
				 336, 364, 327, -1,
				 335, 342, 354, -1,
				 335, 343, 336, -1,
				 364, 356, 327, -1,
				 345, 367, 338, -1,
				 367, 358, 338, -1,
				 356, 365, 337, -1,
				 365, 344, 337, -1,
				 386, 349, 348, -1,
				 386, 348, 379, -1,
				 360, 377, 347, -1,
				 379, 348, 361, -1,
				 386, 362, 349, -1,
				 363, 381, 351, -1,
				 351, 372, 352, -1,
				 349, 362, 350, -1,
				 350, 362, 363, -1,
				 339, 376, 359, -1,
				 365, 357, 344, -1,
				 344, 357, 345, -1,
				 343, 355, 336, -1,
				 336, 355, 364, -1,
				 357, 367, 345, -1,
				 346, 385, 369, -1,
				 369, 376, 339, -1,
				 368, 385, 346, -1,
				 368, 375, 385, -1,
				 331, 346, 321, -1,
				 312, 321, 339, -1,
				 328, 337, 320, -1,
				 320, 337, 329, -1,
				 347, 322, 360, -1,
				 341, 333, 324, -1,
				 324, 333, 317, -1,
				 332, 370, 361, -1,
				 340, 341, 324, -1,
				 327, 328, 319, -1,
				 340, 324, 303, -1,
				 316, 324, 317, -1,
				 349, 340, 315, -1,
				 303, 324, 316, -1,
				 305, 325, 326, -1,
				 318, 327, 319, -1,
				 318, 326, 327, -1,
				 305, 326, 306, -1,
				 306, 326, 318, -1,
				 330, 368, 331, -1,
				 331, 368, 346, -1,
				 344, 345, 337, -1,
				 345, 338, 329, -1,
				 348, 332, 361, -1,
				 352, 342, 334, -1,
				 334, 342, 335, -1,
				 341, 351, 333, -1,
				 351, 352, 333, -1,
				 337, 345, 329, -1,
				 325, 352, 334, -1,
				 325, 334, 326, -1,
				 317, 352, 325, -1,
				 333, 352, 317, -1,
				 326, 334, 335, -1,
				 327, 356, 328, -1,
				 356, 337, 328, -1,
				 326, 335, 336, -1,
				 326, 336, 327, -1,
				 371, 396, 389, -1,
				 389, 397, 398, -1,
				 381, 394, 388, -1,
				 371, 388, 396, -1,
				 398, 390, 374, -1,
				 382, 400, 383, -1,
				 383, 410, 384, -1,
				 391, 399, 382, -1,
				 382, 399, 400, -1,
				 387, 394, 381, -1,
				 390, 391, 374, -1,
				 366, 382, 383, -1,
				 373, 389, 398, -1,
				 373, 398, 374, -1,
				 384, 392, 375, -1,
				 386, 393, 380, -1,
				 380, 393, 387, -1,
				 392, 402, 375, -1,
				 413, 403, 377, -1,
				 389, 406, 397, -1,
				 398, 408, 390, -1,
				 388, 395, 396, -1,
				 396, 406, 389, -1,
				 390, 409, 391, -1,
				 400, 401, 383, -1,
				 383, 401, 410, -1,
				 390, 408, 409, -1,
				 409, 399, 391, -1,
				 394, 395, 388, -1,
				 385, 412, 376, -1,
				 376, 412, 413, -1,
				 384, 410, 392, -1,
				 385, 402, 412, -1,
				 423, 379, 430, -1,
				 386, 405, 393, -1,
				 387, 393, 394, -1,
				 386, 379, 405, -1,
				 423, 405, 379, -1,
				 359, 377, 360, -1,
				 359, 413, 377, -1,
				 367, 383, 358, -1,
				 376, 413, 359, -1,
				 430, 361, 370, -1,
				 363, 362, 381, -1,
				 381, 371, 372, -1,
				 379, 361, 430, -1,
				 386, 380, 362, -1,
				 366, 367, 357, -1,
				 342, 373, 354, -1,
				 342, 353, 373, -1,
				 351, 381, 372, -1,
				 352, 372, 353, -1,
				 354, 373, 355, -1,
				 391, 365, 356, -1,
				 365, 366, 357, -1,
				 355, 373, 364, -1,
				 364, 391, 356, -1,
				 430, 370, 422, -1,
				 380, 387, 362, -1,
				 370, 323, 422, -1,
				 422, 323, 378, -1,
				 362, 387, 381, -1,
				 372, 371, 389, -1,
				 353, 389, 373, -1,
				 381, 388, 371, -1,
				 372, 389, 353, -1,
				 369, 385, 376, -1,
				 391, 382, 365, -1,
				 365, 382, 366, -1,
				 373, 374, 364, -1,
				 374, 391, 364, -1,
				 366, 383, 367, -1,
				 384, 375, 368, -1,
				 375, 402, 385, -1,
				 383, 384, 358, -1,
				 358, 384, 368, -1,
				 471, 479, 487, -1,
				 589, 590, 578, -1,
				 578, 591, 579, -1,
				 607, 595, 577, -1,
				 595, 588, 577, -1,
				 578, 590, 591, -1,
				 580, 599, 581, -1,
				 610, 599, 580, -1,
				 579, 591, 580, -1,
				 591, 610, 580, -1,
				 587, 607, 577, -1,
				 613, 584, 602, -1,
				 602, 584, 574, -1,
				 592, 593, 567, -1,
				 567, 593, 594, -1,
				 584, 585, 574, -1,
				 585, 586, 575, -1,
				 586, 587, 576, -1,
				 574, 585, 575, -1,
				 575, 586, 576, -1,
				 595, 596, 588, -1,
				 588, 597, 589, -1,
				 605, 606, 587, -1,
				 606, 607, 587, -1,
				 596, 597, 588, -1,
				 590, 598, 591, -1,
				 592, 600, 612, -1,
				 589, 597, 590, -1,
				 597, 598, 590, -1,
				 586, 605, 587, -1,
				 572, 600, 582, -1,
				 611, 600, 572, -1,
				 581, 611, 572, -1,
				 581, 599, 611, -1,
				 600, 592, 582, -1,
				 585, 605, 586, -1,
				 604, 605, 585, -1,
				 594, 620, 583, -1,
				 584, 604, 585, -1,
				 592, 567, 557, -1,
				 533, 568, 602, -1,
				 540, 592, 557, -1,
				 573, 592, 540, -1,
				 552, 602, 569, -1,
				 559, 577, 560, -1,
				 570, 577, 559, -1,
				 576, 570, 555, -1,
				 555, 570, 559, -1,
				 582, 573, 566, -1,
				 558, 575, 553, -1,
				 554, 576, 555, -1,
				 545, 558, 553, -1,
				 575, 554, 553, -1,
				 575, 576, 554, -1,
				 564, 580, 565, -1,
				 566, 573, 540, -1,
				 563, 579, 556, -1,
				 556, 579, 564, -1,
				 574, 575, 558, -1,
				 576, 587, 570, -1,
				 602, 574, 569, -1,
				 574, 558, 569, -1,
				 587, 577, 570, -1,
				 589, 578, 571, -1,
				 573, 582, 592, -1,
				 577, 588, 571, -1,
				 588, 589, 571, -1,
				 572, 582, 566, -1,
				 571, 578, 562, -1,
				 562, 578, 563, -1,
				 560, 577, 561, -1,
				 577, 571, 561, -1,
				 563, 578, 579, -1,
				 565, 581, 572, -1,
				 565, 572, 566, -1,
				 579, 580, 564, -1,
				 580, 581, 565, -1,
				 617, 625, 626, -1,
				 626, 627, 618, -1,
				 5, 625, 609, -1,
				 609, 625, 617, -1,
				 627, 7, 618, -1,
				 0, 1, 601, -1,
				 34, 621, 1, -1,
				 600, 628, 619, -1,
				 46, 31, 620, -1,
				 4, 5, 616, -1,
				 621, 613, 1, -1,
				 11, 613, 2, -1,
				 619, 629, 612, -1,
				 612, 629, 46, -1,
				 622, 16, 614, -1,
				 615, 4, 616, -1,
				 624, 4, 615, -1,
				 16, 623, 614, -1,
				 623, 624, 615, -1,
				 7, 8, 628, -1,
				 628, 8, 9, -1,
				 625, 6, 626, -1,
				 626, 6, 627, -1,
				 628, 9, 619, -1,
				 629, 29, 30, -1,
				 629, 30, 46, -1,
				 619, 29, 629, -1,
				 619, 9, 29, -1,
				 625, 14, 6, -1,
				 11, 12, 622, -1,
				 12, 16, 622, -1,
				 621, 10, 613, -1,
				 2, 613, 10, -1,
				 16, 13, 623, -1,
				 3, 4, 624, -1,
				 5, 14, 625, -1,
				 623, 3, 624, -1,
				 13, 3, 623, -1,
				 597, 609, 598, -1,
				 609, 617, 598, -1,
				 596, 616, 597, -1,
				 616, 609, 597, -1,
				 598, 617, 591, -1,
				 618, 611, 599, -1,
				 593, 612, 46, -1,
				 617, 610, 591, -1,
				 610, 618, 599, -1,
				 608, 616, 596, -1,
				 594, 46, 620, -1,
				 601, 602, 568, -1,
				 592, 612, 593, -1,
				 593, 46, 594, -1,
				 602, 1, 613, -1,
				 607, 608, 595, -1,
				 595, 608, 596, -1,
				 603, 584, 613, -1,
				 604, 584, 603, -1,
				 616, 5, 609, -1,
				 617, 626, 610, -1,
				 623, 615, 607, -1,
				 615, 616, 608, -1,
				 626, 618, 610, -1,
				 7, 628, 611, -1,
				 600, 619, 612, -1,
				 618, 7, 611, -1,
				 611, 628, 600, -1,
				 607, 615, 608, -1,
				 11, 604, 603, -1,
				 604, 622, 605, -1,
				 601, 1, 602, -1,
				 11, 603, 613, -1,
				 11, 622, 604, -1,
				 606, 623, 607, -1,
				 614, 623, 606, -1,
				 622, 614, 605, -1,
				 605, 614, 606, -1,
				 569, 558, 545, -1,
				 503, 512, 498, -1,
				 512, 513, 498, -1,
				 496, 510, 497, -1,
				 497, 510, 511, -1,
				 498, 513, 490, -1,
				 542, 515, 499, -1,
				 507, 523, 501, -1,
				 513, 514, 490, -1,
				 504, 542, 499, -1,
				 487, 520, 510, -1,
				 483, 521, 495, -1,
				 495, 521, 522, -1,
				 494, 516, 505, -1,
				 506, 521, 483, -1,
				 495, 522, 507, -1,
				 486, 508, 502, -1,
				 487, 510, 496, -1,
				 485, 501, 518, -1,
				 518, 508, 486, -1,
				 508, 519, 509, -1,
				 509, 519, 520, -1,
				 518, 524, 508, -1,
				 508, 524, 519, -1,
				 520, 526, 510, -1,
				 511, 539, 528, -1,
				 528, 532, 512, -1,
				 510, 527, 511, -1,
				 526, 527, 510, -1,
				 523, 535, 518, -1,
				 511, 528, 503, -1,
				 503, 528, 512, -1,
				 523, 518, 501, -1,
				 508, 509, 502, -1,
				 516, 544, 505, -1,
				 507, 531, 523, -1,
				 507, 522, 531, -1,
				 505, 544, 506, -1,
				 521, 517, 522, -1,
				 470, 502, 478, -1,
				 470, 486, 502, -1,
				 477, 505, 483, -1,
				 485, 486, 469, -1,
				 478, 502, 479, -1,
				 480, 490, 481, -1,
				 480, 498, 490, -1,
				 489, 498, 480, -1,
				 503, 498, 489, -1,
				 493, 443, 482, -1,
				 497, 488, 473, -1,
				 473, 488, 474, -1,
				 487, 496, 472, -1,
				 472, 496, 497, -1,
				 474, 488, 489, -1,
				 492, 504, 476, -1,
				 504, 499, 476, -1,
				 480, 481, 475, -1,
				 475, 481, 491, -1,
				 481, 514, 491, -1,
				 481, 490, 514, -1,
				 488, 503, 489, -1,
				 511, 503, 488, -1,
				 491, 514, 492, -1,
				 516, 482, 500, -1,
				 494, 493, 516, -1,
				 514, 504, 492, -1,
				 516, 493, 482, -1,
				 497, 511, 488, -1,
				 495, 507, 484, -1,
				 484, 501, 485, -1,
				 499, 515, 451, -1,
				 505, 506, 483, -1,
				 484, 507, 501, -1,
				 479, 520, 487, -1,
				 509, 520, 479, -1,
				 486, 485, 518, -1,
				 502, 509, 479, -1,
				 561, 547, 536, -1,
				 549, 556, 537, -1,
				 535, 561, 536, -1,
				 560, 561, 535, -1,
				 537, 564, 538, -1,
				 550, 566, 539, -1,
				 565, 566, 550, -1,
				 556, 564, 537, -1,
				 538, 564, 550, -1,
				 559, 560, 535, -1,
				 534, 559, 531, -1,
				 559, 535, 531, -1,
				 544, 545, 530, -1,
				 530, 545, 546, -1,
				 550, 539, 527, -1,
				 554, 555, 534, -1,
				 555, 559, 534, -1,
				 532, 540, 557, -1,
				 546, 554, 534, -1,
				 548, 563, 549, -1,
				 562, 563, 548, -1,
				 547, 562, 548, -1,
				 571, 562, 547, -1,
				 549, 563, 556, -1,
				 542, 594, 583, -1,
				 533, 602, 552, -1,
				 564, 565, 550, -1,
				 542, 583, 551, -1,
				 561, 571, 547, -1,
				 567, 594, 541, -1,
				 541, 594, 542, -1,
				 539, 566, 540, -1,
				 557, 567, 541, -1,
				 533, 552, 543, -1,
				 545, 553, 546, -1,
				 546, 553, 554, -1,
				 552, 569, 544, -1,
				 544, 569, 545, -1,
				 519, 537, 520, -1,
				 549, 537, 519, -1,
				 535, 524, 518, -1,
				 524, 525, 519, -1,
				 520, 537, 526, -1,
				 521, 530, 546, -1,
				 546, 534, 517, -1,
				 511, 527, 539, -1,
				 529, 541, 514, -1,
				 521, 546, 517, -1,
				 513, 529, 514, -1,
				 514, 542, 504, -1,
				 512, 532, 513, -1,
				 532, 529, 513, -1,
				 542, 551, 515, -1,
				 544, 530, 506, -1,
				 506, 530, 521, -1,
				 516, 500, 543, -1,
				 516, 543, 544, -1,
				 539, 540, 528, -1,
				 540, 532, 528, -1,
				 526, 550, 527, -1,
				 538, 550, 526, -1,
				 532, 557, 529, -1,
				 533, 543, 500, -1,
				 543, 552, 544, -1,
				 557, 541, 529, -1,
				 514, 541, 542, -1,
				 537, 538, 526, -1,
				 523, 531, 535, -1,
				 535, 536, 524, -1,
				 517, 534, 522, -1,
				 534, 531, 522, -1,
				 524, 547, 525, -1,
				 525, 548, 519, -1,
				 548, 549, 519, -1,
				 524, 536, 547, -1,
				 547, 548, 525, -1,
				 315, 340, 303, -1,
				 104, 103, 115, -1,
				 115, 116, 105, -1,
				 102, 138, 122, -1,
				 104, 115, 105, -1,
				 105, 116, 95, -1,
				 127, 128, 107, -1,
				 107, 128, 108, -1,
				 116, 117, 95, -1,
				 120, 132, 106, -1,
				 102, 122, 103, -1,
				 120, 106, 98, -1,
				 89, 127, 99, -1,
				 97, 120, 98, -1,
				 119, 120, 97, -1,
				 106, 127, 89, -1,
				 92, 138, 102, -1,
				 92, 121, 138, -1,
				 99, 127, 100, -1,
				 127, 107, 100, -1,
				 117, 125, 118, -1,
				 117, 124, 125, -1,
				 116, 115, 117, -1,
				 115, 124, 117, -1,
				 118, 126, 119, -1,
				 119, 126, 142, -1,
				 142, 132, 120, -1,
				 118, 125, 126, -1,
				 119, 142, 120, -1,
				 103, 122, 123, -1,
				 101, 152, 111, -1,
				 111, 137, 112, -1,
				 108, 128, 109, -1,
				 136, 146, 110, -1,
				 112, 154, 113, -1,
				 114, 130, 121, -1,
				 103, 123, 115, -1,
				 113, 130, 114, -1,
				 154, 130, 113, -1,
				 83, 98, 69, -1,
				 97, 98, 83, -1,
				 82, 96, 83, -1,
				 96, 97, 83, -1,
				 98, 89, 69, -1,
				 63, 111, 85, -1,
				 87, 86, 93, -1,
				 90, 107, 84, -1,
				 84, 107, 108, -1,
				 88, 96, 82, -1,
				 78, 92, 86, -1,
				 87, 93, 79, -1,
				 113, 91, 78, -1,
				 78, 91, 92, -1,
				 79, 93, 80, -1,
				 81, 104, 94, -1,
				 82, 94, 88, -1,
				 80, 104, 81, -1,
				 80, 93, 104, -1,
				 104, 105, 94, -1,
				 94, 105, 95, -1,
				 93, 102, 103, -1,
				 93, 103, 104, -1,
				 95, 117, 88, -1,
				 96, 119, 97, -1,
				 96, 118, 119, -1,
				 88, 117, 96, -1,
				 117, 118, 96, -1,
				 86, 102, 93, -1,
				 99, 100, 90, -1,
				 90, 100, 107, -1,
				 94, 95, 88, -1,
				 98, 106, 89, -1,
				 101, 111, 63, -1,
				 91, 114, 121, -1,
				 92, 102, 86, -1,
				 113, 114, 91, -1,
				 91, 121, 92, -1,
				 165, 150, 143, -1,
				 144, 150, 145, -1,
				 160, 165, 143, -1,
				 143, 150, 144, -1,
				 151, 176, 128, -1,
				 157, 163, 123, -1,
				 123, 170, 149, -1,
				 200, 166, 146, -1,
				 147, 155, 148, -1,
				 164, 160, 142, -1,
				 131, 157, 139, -1,
				 139, 157, 123, -1,
				 156, 157, 131, -1,
				 156, 162, 157, -1,
				 149, 158, 140, -1,
				 141, 159, 142, -1,
				 159, 164, 142, -1,
				 140, 159, 141, -1,
				 158, 159, 140, -1,
				 167, 178, 152, -1,
				 153, 179, 154, -1,
				 167, 129, 161, -1,
				 152, 178, 153, -1,
				 178, 179, 153, -1,
				 186, 168, 147, -1,
				 147, 168, 155, -1,
				 179, 186, 154, -1,
				 154, 186, 147, -1,
				 167, 152, 129, -1,
				 165, 172, 150, -1,
				 172, 173, 150, -1,
				 123, 163, 170, -1,
				 170, 158, 149, -1,
				 173, 145, 150, -1,
				 174, 175, 151, -1,
				 175, 176, 151, -1,
				 145, 174, 134, -1,
				 134, 174, 151, -1,
				 122, 131, 139, -1,
				 123, 149, 115, -1,
				 138, 131, 122, -1,
				 122, 139, 123, -1,
				 115, 140, 124, -1,
				 124, 140, 141, -1,
				 125, 142, 126, -1,
				 149, 140, 115, -1,
				 124, 141, 125, -1,
				 121, 148, 138, -1,
				 109, 176, 135, -1,
				 128, 176, 109, -1,
				 132, 133, 106, -1,
				 133, 127, 106, -1,
				 129, 152, 101, -1,
				 112, 153, 154, -1,
				 130, 148, 121, -1,
				 152, 137, 111, -1,
				 137, 153, 112, -1,
				 135, 200, 136, -1,
				 176, 200, 135, -1,
				 144, 145, 134, -1,
				 134, 151, 128, -1,
				 200, 146, 136, -1,
				 148, 155, 138, -1,
				 155, 156, 138, -1,
				 152, 153, 137, -1,
				 147, 148, 130, -1,
				 143, 144, 133, -1,
				 144, 134, 127, -1,
				 127, 134, 128, -1,
				 141, 142, 125, -1,
				 133, 144, 127, -1,
				 154, 147, 130, -1,
				 132, 143, 133, -1,
				 160, 143, 132, -1,
				 138, 156, 131, -1,
				 142, 160, 132, -1,
				 77, 113, 78, -1,
				 39, 40, 13, -1,
				 23, 42, 50, -1,
				 21, 55, 36, -1,
				 22, 36, 47, -1,
				 23, 43, 24, -1,
				 44, 52, 25, -1,
				 25, 52, 26, -1,
				 23, 50, 43, -1,
				 24, 43, 44, -1,
				 22, 21, 36, -1,
				 24, 44, 19, -1,
				 19, 44, 25, -1,
				 41, 42, 18, -1,
				 42, 23, 18, -1,
				 45, 54, 8, -1,
				 33, 0, 32, -1,
				 35, 55, 21, -1,
				 54, 27, 8, -1,
				 27, 28, 20, -1,
				 47, 65, 37, -1,
				 37, 56, 38, -1,
				 34, 77, 35, -1,
				 34, 76, 77, -1,
				 37, 65, 56, -1,
				 39, 57, 40, -1,
				 48, 57, 39, -1,
				 38, 48, 39, -1,
				 38, 56, 48, -1,
				 33, 76, 34, -1,
				 27, 54, 62, -1,
				 20, 74, 29, -1,
				 26, 52, 45, -1,
				 27, 62, 28, -1,
				 28, 74, 20, -1,
				 46, 75, 31, -1,
				 32, 85, 33, -1,
				 29, 74, 30, -1,
				 74, 46, 30, -1,
				 8, 20, 9, -1,
				 27, 20, 8, -1,
				 6, 26, 627, -1,
				 627, 26, 7, -1,
				 621, 21, 10, -1,
				 11, 37, 12, -1,
				 11, 22, 37, -1,
				 22, 2, 10, -1,
				 2, 22, 11, -1,
				 6, 19, 26, -1,
				 15, 16, 12, -1,
				 13, 17, 3, -1,
				 0, 33, 1, -1,
				 33, 34, 1, -1,
				 3, 17, 4, -1,
				 6, 14, 24, -1,
				 6, 24, 19, -1,
				 4, 18, 5, -1,
				 17, 18, 4, -1,
				 22, 47, 37, -1,
				 15, 38, 16, -1,
				 621, 35, 21, -1,
				 22, 10, 21, -1,
				 15, 37, 38, -1,
				 17, 41, 18, -1,
				 40, 41, 17, -1,
				 16, 38, 39, -1,
				 13, 40, 17, -1,
				 34, 35, 621, -1,
				 5, 23, 14, -1,
				 18, 23, 5, -1,
				 12, 37, 15, -1,
				 16, 39, 13, -1,
				 14, 23, 24, -1,
				 7, 45, 8, -1,
				 9, 20, 29, -1,
				 19, 25, 26, -1,
				 26, 45, 7, -1,
				 78, 86, 64, -1,
				 64, 87, 65, -1,
				 70, 71, 61, -1,
				 84, 108, 62, -1,
				 64, 86, 87, -1,
				 66, 82, 67, -1,
				 66, 94, 82, -1,
				 65, 87, 79, -1,
				 81, 94, 66, -1,
				 60, 69, 70, -1,
				 57, 66, 67, -1,
				 57, 67, 58, -1,
				 48, 66, 57, -1,
				 48, 81, 66, -1,
				 58, 67, 68, -1,
				 68, 69, 59, -1,
				 60, 70, 61, -1,
				 58, 68, 59, -1,
				 59, 69, 60, -1,
				 109, 135, 73, -1,
				 74, 135, 136, -1,
				 108, 109, 62, -1,
				 73, 135, 74, -1,
				 136, 110, 75, -1,
				 112, 77, 76, -1,
				 112, 113, 77, -1,
				 111, 76, 85, -1,
				 111, 112, 76, -1,
				 62, 109, 73, -1,
				 68, 83, 69, -1,
				 69, 89, 70, -1,
				 67, 82, 68, -1,
				 82, 83, 68, -1,
				 70, 99, 71, -1,
				 99, 90, 71, -1,
				 72, 90, 84, -1,
				 89, 99, 70, -1,
				 71, 90, 72, -1,
				 35, 77, 55, -1,
				 55, 64, 36, -1,
				 28, 73, 74, -1,
				 85, 76, 33, -1,
				 36, 64, 47, -1,
				 40, 58, 49, -1,
				 49, 59, 50, -1,
				 47, 64, 65, -1,
				 57, 58, 40, -1,
				 62, 73, 28, -1,
				 42, 49, 50, -1,
				 50, 51, 43, -1,
				 41, 49, 42, -1,
				 40, 49, 41, -1,
				 43, 51, 44, -1,
				 45, 53, 54, -1,
				 54, 84, 62, -1,
				 44, 51, 52, -1,
				 52, 53, 45, -1,
				 63, 85, 32, -1,
				 77, 78, 55, -1,
				 74, 136, 46, -1,
				 136, 75, 46, -1,
				 55, 78, 64, -1,
				 56, 81, 48, -1,
				 56, 80, 81, -1,
				 65, 79, 56, -1,
				 56, 79, 80, -1,
				 72, 84, 54, -1,
				 50, 59, 60, -1,
				 51, 61, 52, -1,
				 49, 58, 59, -1,
				 50, 60, 51, -1,
				 51, 60, 61, -1,
				 53, 72, 54, -1,
				 53, 71, 72, -1,
				 52, 71, 53, -1,
				 52, 61, 71, -1,
				 155, 168, 180, -1,
				 301, 313, 261, -1,
				 313, 314, 262, -1,
				 259, 276, 290, -1,
				 290, 272, 260, -1,
				 277, 262, 314, -1,
				 273, 294, 264, -1,
				 264, 279, 265, -1,
				 302, 263, 292, -1,
				 302, 293, 263, -1,
				 259, 290, 260, -1,
				 301, 261, 272, -1,
				 293, 273, 257, -1,
				 270, 271, 255, -1,
				 255, 275, 256, -1,
				 267, 274, 251, -1,
				 256, 276, 259, -1,
				 256, 275, 276, -1,
				 251, 274, 268, -1,
				 255, 271, 275, -1,
				 286, 287, 269, -1,
				 270, 288, 271, -1,
				 285, 286, 268, -1,
				 269, 287, 270, -1,
				 287, 288, 270, -1,
				 291, 301, 272, -1,
				 292, 245, 278, -1,
				 289, 276, 275, -1,
				 290, 291, 272, -1,
				 268, 286, 269, -1,
				 265, 279, 280, -1,
				 258, 281, 282, -1,
				 264, 294, 279, -1,
				 265, 280, 266, -1,
				 258, 283, 267, -1,
				 284, 274, 267, -1,
				 274, 285, 268, -1,
				 282, 283, 258, -1,
				 283, 284, 267, -1,
				 240, 252, 253, -1,
				 241, 253, 254, -1,
				 251, 252, 240, -1,
				 240, 253, 241, -1,
				 254, 255, 242, -1,
				 259, 260, 244, -1,
				 263, 245, 292, -1,
				 242, 255, 243, -1,
				 243, 255, 256, -1,
				 250, 251, 240, -1,
				 257, 236, 246, -1,
				 247, 237, 236, -1,
				 235, 210, 245, -1,
				 263, 235, 245, -1,
				 257, 247, 236, -1,
				 238, 248, 239, -1,
				 248, 249, 239, -1,
				 237, 248, 238, -1,
				 247, 248, 237, -1,
				 258, 267, 250, -1,
				 252, 268, 253, -1,
				 281, 258, 249, -1,
				 250, 267, 251, -1,
				 252, 251, 268, -1,
				 254, 270, 255, -1,
				 269, 270, 254, -1,
				 253, 269, 254, -1,
				 268, 269, 253, -1,
				 249, 258, 250, -1,
				 257, 264, 247, -1,
				 273, 264, 257, -1,
				 263, 293, 246, -1,
				 257, 246, 293, -1,
				 264, 265, 247, -1,
				 248, 281, 249, -1,
				 248, 266, 281, -1,
				 247, 265, 248, -1,
				 248, 265, 266, -1,
				 316, 317, 295, -1,
				 295, 317, 304, -1,
				 302, 292, 332, -1,
				 332, 292, 370, -1,
				 304, 325, 305, -1,
				 296, 319, 307, -1,
				 296, 318, 319, -1,
				 304, 317, 325, -1,
				 306, 318, 296, -1,
				 292, 278, 370, -1,
				 297, 307, 308, -1,
				 309, 320, 298, -1,
				 305, 306, 296, -1,
				 296, 307, 297, -1,
				 298, 320, 310, -1,
				 300, 331, 321, -1,
				 321, 312, 300, -1,
				 299, 331, 300, -1,
				 299, 311, 331, -1,
				 313, 360, 314, -1,
				 313, 359, 360, -1,
				 301, 359, 313, -1,
				 301, 339, 359, -1,
				 360, 322, 314, -1,
				 349, 315, 302, -1,
				 349, 302, 348, -1,
				 370, 278, 323, -1,
				 348, 302, 332, -1,
				 312, 339, 301, -1,
				 319, 328, 308, -1,
				 328, 320, 309, -1,
				 307, 319, 308, -1,
				 308, 328, 309, -1,
				 320, 329, 310, -1,
				 338, 330, 311, -1,
				 311, 330, 331, -1,
				 310, 329, 338, -1,
				 310, 338, 311, -1,
				 295, 304, 279, -1,
				 280, 305, 281, -1,
				 294, 295, 279, -1,
				 279, 304, 280, -1,
				 281, 305, 296, -1,
				 283, 297, 284, -1,
				 283, 296, 297, -1,
				 281, 296, 282, -1,
				 282, 296, 283, -1,
				 315, 294, 293, -1,
				 284, 285, 274, -1,
				 271, 288, 275, -1,
				 293, 294, 273, -1,
				 266, 280, 281, -1,
				 275, 288, 289, -1,
				 276, 300, 290, -1,
				 277, 314, 322, -1,
				 289, 299, 276, -1,
				 276, 299, 300, -1,
				 300, 312, 290, -1,
				 291, 312, 301, -1,
				 289, 311, 299, -1,
				 290, 312, 291, -1,
				 302, 315, 293, -1,
				 303, 316, 294, -1,
				 304, 305, 280, -1,
				 315, 303, 294, -1,
				 294, 316, 295, -1,
				 288, 310, 311, -1,
				 285, 309, 286, -1,
				 285, 308, 309, -1,
				 284, 297, 285, -1,
				 285, 297, 308, -1,
				 286, 298, 287, -1,
				 288, 298, 310, -1,
				 288, 311, 289, -1,
				 286, 309, 298, -1,
				 287, 298, 288, -1,
				 234, 262, 277, -1,
				 199, 225, 176, -1,
				 176, 225, 200, -1,
				 190, 208, 185, -1,
				 175, 185, 199, -1,
				 167, 215, 191, -1,
				 217, 202, 186, -1,
				 181, 205, 188, -1,
				 191, 201, 179, -1,
				 201, 217, 186, -1,
				 184, 189, 198, -1,
				 192, 193, 180, -1,
				 193, 187, 180, -1,
				 178, 191, 179, -1,
				 178, 167, 191, -1,
				 181, 188, 169, -1,
				 196, 189, 183, -1,
				 183, 189, 184, -1,
				 188, 206, 182, -1,
				 182, 206, 194, -1,
				 193, 204, 187, -1,
				 203, 204, 193, -1,
				 192, 218, 193, -1,
				 218, 203, 193, -1,
				 187, 204, 181, -1,
				 194, 213, 195, -1,
				 195, 207, 196, -1,
				 204, 205, 181, -1,
				 206, 213, 194, -1,
				 202, 218, 192, -1,
				 189, 207, 197, -1,
				 189, 197, 198, -1,
				 205, 206, 188, -1,
				 196, 207, 189, -1,
				 198, 223, 190, -1,
				 235, 226, 167, -1,
				 167, 226, 215, -1,
				 190, 223, 208, -1,
				 185, 208, 199, -1,
				 162, 169, 163, -1,
				 187, 169, 162, -1,
				 190, 174, 145, -1,
				 180, 187, 162, -1,
				 169, 188, 163, -1,
				 171, 183, 165, -1,
				 183, 172, 165, -1,
				 163, 188, 170, -1,
				 194, 195, 164, -1,
				 173, 190, 145, -1,
				 157, 162, 163, -1,
				 170, 182, 158, -1,
				 155, 180, 156, -1,
				 156, 180, 162, -1,
				 158, 194, 159, -1,
				 164, 171, 160, -1,
				 171, 165, 160, -1,
				 182, 194, 158, -1,
				 194, 164, 159, -1,
				 183, 184, 172, -1,
				 172, 184, 173, -1,
				 164, 196, 171, -1,
				 196, 183, 171, -1,
				 173, 184, 198, -1,
				 174, 185, 175, -1,
				 175, 199, 176, -1,
				 173, 198, 190, -1,
				 190, 185, 174, -1,
				 195, 196, 164, -1,
				 235, 161, 177, -1,
				 179, 201, 186, -1,
				 200, 209, 166, -1,
				 167, 161, 235, -1,
				 186, 202, 168, -1,
				 187, 181, 169, -1,
				 170, 188, 182, -1,
				 202, 192, 168, -1,
				 192, 180, 168, -1,
				 221, 243, 256, -1,
				 221, 256, 222, -1,
				 220, 230, 231, -1,
				 232, 243, 221, -1,
				 222, 244, 223, -1,
				 224, 261, 225, -1,
				 263, 226, 235, -1,
				 244, 233, 223, -1,
				 233, 261, 224, -1,
				 240, 230, 219, -1,
				 237, 227, 217, -1,
				 227, 238, 211, -1,
				 237, 217, 216, -1,
				 237, 216, 236, -1,
				 211, 239, 218, -1,
				 229, 240, 219, -1,
				 219, 230, 220, -1,
				 238, 239, 211, -1,
				 239, 228, 218, -1,
				 256, 259, 222, -1,
				 259, 244, 222, -1,
				 231, 254, 242, -1,
				 232, 242, 243, -1,
				 244, 260, 233, -1,
				 261, 313, 225, -1,
				 313, 262, 225, -1,
				 260, 272, 233, -1,
				 233, 272, 261, -1,
				 231, 242, 232, -1,
				 239, 249, 228, -1,
				 249, 250, 228, -1,
				 226, 263, 246, -1,
				 237, 238, 227, -1,
				 228, 250, 229, -1,
				 230, 254, 231, -1,
				 230, 241, 254, -1,
				 250, 240, 229, -1,
				 230, 240, 241, -1,
				 217, 211, 202, -1,
				 202, 211, 218, -1,
				 246, 216, 191, -1,
				 216, 217, 201, -1,
				 218, 212, 203, -1,
				 205, 220, 206, -1,
				 219, 220, 205, -1,
				 203, 212, 204, -1,
				 204, 219, 205, -1,
				 191, 216, 201, -1,
				 198, 197, 223, -1,
				 208, 224, 199, -1,
				 195, 213, 207, -1,
				 207, 222, 197, -1,
				 199, 224, 225, -1,
				 235, 177, 210, -1,
				 215, 246, 191, -1,
				 225, 262, 200, -1,
				 200, 262, 209, -1,
				 220, 231, 213, -1,
				 213, 232, 214, -1,
				 228, 229, 212, -1,
				 229, 219, 204, -1,
				 231, 232, 213, -1,
				 226, 246, 215, -1,
				 246, 236, 216, -1,
				 214, 232, 221, -1,
				 222, 223, 197, -1,
				 212, 229, 204, -1,
				 207, 214, 221, -1,
				 207, 221, 222, -1,
				 206, 220, 213, -1,
				 213, 214, 207, -1,
				 223, 233, 208, -1,
				 217, 227, 211, -1,
				 218, 228, 212, -1,
				 208, 233, 224, -1,
				 209, 262, 234, -1,
				 403, 442, 110, 146, -1,
				 377, 403, 146, 166, -1,
				 277, 322, 347, 377, -1,
				 166, 209, 234, 277, -1,
				 377, 166, 277, -1,
				 442, 451, 75, 110, -1,
				 451, 515, 551, 583, -1,
				 75, 583, 620, 31, -1,
				 583, 75, 451, -1,
				 32, 0, 378, 323, -1,
				 0, 601, 404, 378, -1,
				 601, 568, 533, 500, -1,
				 500, 482, 443, 404, -1,
				 404, 601, 500, -1,
				 63, 32, 323, 278, -1,
				 161, 129, 101, 63, -1,
				 278, 245, 210, 177, -1,
				 278, 177, 161, 63, -1,
			]
		}
	}

	# Hidden Objects, in invisible layers

}

# Visible Objects

Separator {
	MatrixTransform {
	matrix 
		0.685880 -0.317370 0.654862 0.000000
		0.727634 0.312469 -0.610666 0.000000
		-0.010817 0.895343 0.445245 0.000000
		-0.338183 -0.376694 -11.252342 1.000000
	}
	PerspectiveCamera {
		focalDistance 3.500000
	}
	Separator {
		MatrixTransform {
		matrix 
			0.010000 0.000000 0.000000 0.000000
			0.000000 0.010000 0.000000 0.000000
			0.000000 0.000000 0.010000 0.000000
			0.000000 0.000000 0.000000 1.000000
		}
		USE phobos
	}
}
}
