#VRML V1.0 ascii

Separator {
    DEF Title Info {
	string "Spaceship"
    }
    ShapeHints {
	vertexOrdering	COUNTERCLOCKWISE
	faceType	CONVEX
	creaseAngle	0.5
    }
    Separator {
	Material {
	    diffuseColor	.8 .8 .8
	    specularColor	0.70 0.70 0.70
	    shininess		0.2
	}
	Separator {
		Coordinate3 {
			point [
				 44.817875 0.002000 26.570267,
				 38.402599 41.386745 26.570267,
				 35.795357 77.236717 26.570267,
				 0.002000 -0.913735 49.107731,
				 27.732323 -0.913735 43.064075,
				 0.002000 40.181293 48.415047,
				 23.895357 41.304443 44.668926,
				 0.002000 77.236717 44.270267,
				 22.915216 77.236717 42.089027,
				 0.002000 0.002000 3.045483,
				 50.896931 -7.429412 11.472988,
				 0.002000 41.386745 -8.425505,
				 38.402599 41.386745 0.002000,
				 0.002000 87.413460 -8.425505,
				 35.301117 87.166939 0.002000,
				 82.002838 5.314733 4.793614,
				 73.095345 48.734871 0.345460,
				 72.463501 88.319328 0.526636,
				 127.514854 25.130783 -10.776649,
				 134.005981 63.074059 -11.921209,
				 124.102715 93.687744 -10.174997,
				 0.002000 -74.643326 19.965721,
				 17.959623 -64.481590 20.051302,
				 35.795357 -32.777145 26.585674,
				 0.002000 -36.457180 43.898888,
				 22.935595 -35.893051 41.244877,
				 80.992073 11.189543 16.366625,
				 77.780861 48.734871 16.685810,
				 73.721825 78.150253 17.849720,
				 123.775436 31.005596 -1.770787,
				 129.482422 60.483494 -2.777081,
				 121.325752 85.620102 -1.338841,
				 0.002000 -87.098564 -14.126551,
				 29.581192 -74.900505 -5.271764,
				 44.489265 -30.787500 2.695991,
				 0.002000 -25.829668 -6.099626,
				 0.002000 77.236717 26.570267,
				 6.998687 98.953957 0.422262,
				 5.919014 92.785118 26.016949,
				 7.838698 91.580811 36.808685,
				 27.815039 98.736320 8.837414,
				 28.993444 93.082069 26.152218,
				 19.304953 91.600197 35.936008,
				 -44.813877 0.002000 26.570267,
				 -38.398602 41.386745 26.570267,
				 -35.791359 77.236717 26.570267,
				 -27.728325 -0.913735 43.064075,
				 -23.891359 41.304443 44.668926,
				 -22.911219 77.236717 42.089027,
				 -50.892933 -7.429412 11.472988,
				 -38.398602 41.386745 0.002000,
				 -35.297119 87.166939 0.002000,
				 -81.998840 5.314733 4.793614,
				 -73.091347 48.734871 0.345460,
				 -72.459503 88.319328 0.526636,
				 -127.510857 25.130783 -10.776649,
				 -134.001953 63.074059 -11.921209,
				 -124.098717 93.687744 -10.174997,
				 -17.955626 -64.481590 20.051302,
				 -35.791359 -32.777145 26.585674,
				 -22.931597 -35.893051 41.244877,
				 -80.988075 11.189543 16.366625,
				 -77.776863 48.734871 16.685810,
				 -73.717827 78.150253 17.849720,
				 -123.771439 31.005596 -1.770787,
				 -129.478394 60.483494 -2.777081,
				 -121.321754 85.620102 -1.338841,
				 -29.577194 -74.900505 -5.271764,
				 -44.485268 -30.787500 2.695991,
				 -6.994687 98.953957 0.422262,
				 -5.915014 92.785118 26.016949,
				 -7.834699 91.580811 36.808685,
				 -27.811041 98.736320 8.837414,
				 -28.989447 93.082069 26.152218,
				 -19.300955 91.600197 35.936008,
				 27.732323 -0.913735 43.064075,
				 27.732323 -0.913735 43.064075,
				 0.002000 -0.913735 49.107731,
				 27.732323 -0.913735 43.064075,
				 127.514854 25.130783 -10.776649,
				 134.005981 63.074059 -11.921209,
				 127.514854 25.130783 -10.776649,
				 134.005981 63.074059 -11.921209,
				 124.102715 93.687744 -10.174997,
				 134.005981 63.074059 -11.921209,
				 38.402599 41.386745 26.570267,
				 44.817875 0.002000 26.570267,
				 38.402599 41.386745 26.570267,
				 35.795357 77.236717 26.570267,
				 38.402599 41.386745 26.570267,
				 35.795357 77.236717 26.570267,
				 44.817875 0.002000 26.570267,
				 50.896931 -7.429412 11.472988,
				 82.002838 5.314733 4.793614,
				 82.002838 5.314733 4.793614,
				 44.817875 0.002000 26.570267,
				 35.301117 87.166939 0.002000,
				 35.795357 77.236717 26.570267,
				 72.463501 88.319328 0.526636,
				 35.301117 87.166939 0.002000,
				 82.002838 5.314733 4.793614,
				 127.514854 25.130783 -10.776649,
				 127.514854 25.130783 -10.776649,
				 72.463501 88.319328 0.526636,
				 124.102715 93.687744 -10.174997,
				 72.463501 88.319328 0.526636,
				 35.795357 -32.777145 26.585674,
				 35.795357 -32.777145 26.585674,
				 50.896931 -7.429412 11.472988,
				 44.817875 0.002000 26.570267,
				 44.817875 0.002000 26.570267,
				 35.795357 -32.777145 26.585674,
				 35.795357 -32.777145 26.585674,
				 44.817875 0.002000 26.570267,
				 27.732323 -0.913735 43.064075,
				 0.002000 -87.098564 -14.126551,
				 44.489265 -30.787500 2.695991,
				 44.489265 -30.787500 2.695991,
				 29.581192 -74.900505 -5.271764,
				 0.002000 -87.098564 -14.126551,
				 0.002000 0.002000 3.045483,
				 50.896931 -7.429412 11.472988,
				 50.896931 -7.429412 11.472988,
				 44.489265 -30.787500 2.695991,
				 0.002000 87.413460 -8.425505,
				 0.002000 87.413460 -8.425505,
				 0.002000 77.236717 44.270267,
				 35.301117 87.166939 0.002000,
				 0.002000 87.413460 -8.425505,
				 35.301117 87.166939 0.002000,
				 0.002000 77.236717 44.270267,
				 22.915216 77.236717 42.089027,
				 0.002000 77.236717 44.270267,
				 35.795357 77.236717 26.570267,
				 35.301117 87.166939 0.002000,
				 35.795357 77.236717 26.570267,
				 22.915216 77.236717 42.089027,
				 35.795357 77.236717 26.570267,
				 22.915216 77.236717 42.089027,
				 -27.728325 -0.913735 43.064075,
				 -27.728325 -0.913735 43.064075,
				 0.002000 -0.913735 49.107731,
				 -27.728325 -0.913735 43.064075,
				 -127.510857 25.130783 -10.776649,
				 -134.001953 63.074059 -11.921209,
				 -127.510857 25.130783 -10.776649,
				 -134.001953 63.074059 -11.921209,
				 -124.098717 93.687744 -10.174997,
				 -134.001953 63.074059 -11.921209,
				 -38.398602 41.386745 26.570267,
				 -44.813877 0.002000 26.570267,
				 -38.398602 41.386745 26.570267,
				 -35.791359 77.236717 26.570267,
				 -38.398602 41.386745 26.570267,
				 -35.791359 77.236717 26.570267,
				 -44.813877 0.002000 26.570267,
				 -81.998840 5.314733 4.793614,
				 -50.892933 -7.429412 11.472988,
				 -81.998840 5.314733 4.793614,
				 -44.813877 0.002000 26.570267,
				 -35.297119 87.166939 0.002000,
				 -35.791359 77.236717 26.570267,
				 -35.297119 87.166939 0.002000,
				 -72.459503 88.319328 0.526636,
				 -127.510857 25.130783 -10.776649,
				 -81.998840 5.314733 4.793614,
				 -127.510857 25.130783 -10.776649,
				 -72.459503 88.319328 0.526636,
				 -72.459503 88.319328 0.526636,
				 -124.098717 93.687744 -10.174997,
				 -35.791359 -32.777145 26.585674,
				 -35.791359 -32.777145 26.585674,
				 -44.813877 0.002000 26.570267,
				 -50.892933 -7.429412 11.472988,
				 -44.813877 0.002000 26.570267,
				 -35.791359 -32.777145 26.585674,
				 -35.791359 -32.777145 26.585674,
				 -27.728325 -0.913735 43.064075,
				 -44.813877 0.002000 26.570267,
				 0.002000 -87.098564 -14.126551,
				 -44.485268 -30.787500 2.695991,
				 -44.485268 -30.787500 2.695991,
				 0.002000 -87.098564 -14.126551,
				 -29.577194 -74.900505 -5.271764,
				 -50.892933 -7.429412 11.472988,
				 0.002000 0.002000 3.045483,
				 -50.892933 -7.429412 11.472988,
				 -44.485268 -30.787500 2.695991,
				 0.002000 87.413460 -8.425505,
				 0.002000 87.413460 -8.425505,
				 0.002000 77.236717 44.270267,
				 -35.297119 87.166939 0.002000,
				 0.002000 87.413460 -8.425505,
				 -35.297119 87.166939 0.002000,
				 0.002000 77.236717 44.270267,
				 -22.911219 77.236717 42.089027,
				 0.002000 77.236717 44.270267,
				 -35.791359 77.236717 26.570267,
				 -35.297119 87.166939 0.002000,
				 -35.791359 77.236717 26.570267,
				 -22.911219 77.236717 42.089027,
				 -35.791359 77.236717 26.570267,
				 -22.911219 77.236717 42.089027 ]
	    }
	   IndexedFaceSet {
		coordIndex	[ 
				 3, 4, 6, -1,
				 6, 5, 3, -1,
				 5, 6, 8, -1,
				 8, 7, 5, -1,
				 0, 1, 6, -1,
				 4, 0, 6, -1,
				 1, 2, 8, -1,
				 8, 6, 1, -1,
				 9, 11, 12, -1,
				 12, 10, 9, -1,
				 11, 13, 14, -1,
				 14, 12, 11, -1,
				 10, 12, 16, -1,
				 16, 15, 10, -1,
				 12, 14, 17, -1,
				 17, 16, 12, -1,
				 15, 16, 19, -1,
				 19, 18, 15, -1,
				 16, 17, 20, -1,
				 20, 19, 16, -1,
				 24, 25, 75, -1,
				 76, 77, 24, -1,
				 21, 22, 25, -1,
				 25, 24, 21, -1,
				 22, 23, 25, -1,
				 78, 25, 23, -1,
				 79, 80, 30, -1,
				 30, 29, 81, -1,
				 82, 83, 31, -1,
				 31, 30, 84, -1,
				 85, 86, 26, -1,
				 26, 27, 87, -1,
				 88, 89, 27, -1,
				 27, 28, 90, -1,
				 91, 92, 93, -1,
				 94, 26, 95, -1,
				 96, 97, 28, -1,
				 28, 98, 99, -1,
				 27, 26, 29, -1,
				 29, 30, 27, -1,
				 26, 100, 101, -1,
				 102, 29, 26, -1,
				 103, 28, 31, -1,
				 31, 104, 105, -1,
				 28, 27, 30, -1,
				 30, 31, 28, -1,
				 21, 33, 22, -1,
				 33, 21, 32, -1,
				 33, 34, 106, -1,
				 107, 22, 33, -1,
				 34, 108, 109, -1,
				 110, 111, 34, -1,
				 112, 113, 114, -1,
				 115, 35, 116, -1,
				 117, 118, 119, -1,
				 35, 120, 121, -1,
				 122, 123, 35, -1,
				 124, 36, 38, -1,
				 38, 37, 125, -1,
				 36, 126, 39, -1,
				 39, 38, 36, -1,
				 40, 37, 38, -1,
				 38, 41, 40, -1,
				 41, 38, 39, -1,
				 39, 42, 41, -1,
				 127, 128, 37, -1,
				 37, 40, 129, -1,
				 130, 131, 42, -1,
				 42, 39, 132, -1,
				 133, 134, 40, -1,
				 40, 41, 135, -1,
				 136, 137, 41, -1,
				 41, 42, 138, -1,
				 3, 47, 46, -1,
				 47, 3, 5, -1,
				 5, 48, 47, -1,
				 48, 5, 7, -1,
				 43, 47, 44, -1,
				 47, 43, 46, -1,
				 44, 48, 45, -1,
				 48, 44, 47, -1,
				 9, 50, 11, -1,
				 50, 9, 49, -1,
				 11, 51, 13, -1,
				 51, 11, 50, -1,
				 49, 53, 50, -1,
				 53, 49, 52, -1,
				 50, 54, 51, -1,
				 54, 50, 53, -1,
				 52, 56, 53, -1,
				 56, 52, 55, -1,
				 53, 57, 54, -1,
				 57, 53, 56, -1,
				 24, 139, 60, -1,
				 140, 24, 141, -1,
				 21, 60, 58, -1,
				 60, 21, 24, -1,
				 58, 60, 59, -1,
				 142, 59, 60, -1,
				 143, 65, 144, -1,
				 65, 145, 64, -1,
				 146, 66, 147, -1,
				 66, 148, 65, -1,
				 149, 61, 150, -1,
				 61, 151, 62, -1,
				 152, 62, 153, -1,
				 62, 154, 63, -1,
				 155, 156, 157, -1,
				 158, 159, 61, -1,
				 160, 63, 161, -1,
				 63, 162, 163, -1,
				 62, 64, 61, -1,
				 64, 62, 65, -1,
				 61, 164, 165, -1,
				 166, 61, 64, -1,
				 167, 66, 63, -1,
				 66, 168, 169, -1,
				 63, 65, 62, -1,
				 65, 63, 66, -1,
				 21, 58, 67, -1,
				 67, 32, 21, -1,
				 67, 170, 68, -1,
				 171, 67, 58, -1,
				 68, 172, 173, -1,
				 174, 68, 175, -1,
				 176, 177, 178, -1,
				 179, 180, 35, -1,
				 181, 182, 183, -1,
				 35, 184, 185, -1,
				 186, 35, 187, -1,
				 188, 70, 36, -1,
				 70, 189, 69, -1,
				 36, 71, 190, -1,
				 71, 36, 70, -1,
				 72, 70, 69, -1,
				 70, 72, 73, -1,
				 73, 71, 70, -1,
				 71, 73, 74, -1,
				 191, 69, 192, -1,
				 69, 193, 72, -1,
				 194, 74, 195, -1,
				 74, 196, 71, -1,
				 197, 72, 198, -1,
				 72, 199, 73, -1,
				 200, 73, 201, -1,
				 73, 202, 74, -1 ] 
	    }
	}
    }
}
