#VRML V1.0 ascii

Separator {
    renderCaching	OFF
    renderCulling	OFF
    Callback {
    }
    ShapeHints {
	vertexOrdering	COUNTERCLOCKWISE
	faceType	CONVEX
    }
    Separator {
	renderCulling	OFF
	Material {
	    diffuseColor	.8 .8 .8
	    specularColor	.5 .5 .5
	    shininess		0.2
	}
	Separator {
	    renderCulling	OFF
	    Coordinate3 {
			point [
				 81.242592 0.851326 83.500481,
				 96.604691 0.863213 29.980476,
				 128.390137 40.105419 26.304476,
				 135.750839 40.111118 63.480476,
				 147.462646 24.861370 15.430475,
				 157.362610 24.869030 67.910477,
				 183.592621 24.889328 9.200478,
				 193.502640 24.896999 61.680473,
				 205.390839 40.165005 11.650475,
				 211.790802 40.169956 46.510475,
				 302.648224 -8.218544 -12.449524,
				 264.199921 28.441711 29.840275,
				 93.759689 -42.431190 16.620476,
				 78.236794 -54.080719 64.560471,
				 49.601410 -62.637482 14.690475,
				 42.063267 -70.464722 62.630478,
				 58.897888 -92.207092 -1.132126,
				 21.725018 -129.722656 52.030674,
				 12.746607 -163.829132 21.055574,
				 0.440940 0.242699 92.542679,
				 17.504957 -82.478012 82.560478,
				 75.061943 84.135071 87.407478,
				 0.332324 142.027466 87.210480,
				 0.378008 81.181076 97.227478,
				 135.672989 140.732193 63.480476,
				 74.520050 153.384888 80.930679,
				 128.312286 140.726486 26.304476,
				 74.433067 153.384796 19.320475,
				 0.274924 142.027405 19.320475,
				 205.312958 140.786072 11.650475,
				 211.712952 140.791031 46.510475,
				 264.145660 98.541595 29.840275,
				 302.608307 43.465435 -12.449524,
				 157.259033 158.748901 67.910477,
				 147.359039 158.741241 15.430475,
				 193.399002 158.776855 61.680473,
				 183.489044 158.769196 9.200478,
				 66.085869 74.018318 19.320475,
				 -16.595036 -82.504410 82.560478,
				 -96.122849 0.714073 29.980476,
				 -80.300056 0.726326 83.500481,
				 -127.968903 39.907047 26.304476,
				 -134.868896 39.901707 63.480476,
				 -146.557068 24.633854 15.430475,
				 -156.457062 24.626194 67.910477,
				 -182.657059 24.605919 9.200478,
				 -192.657059 24.598179 61.680473,
				 -204.568848 39.847771 11.650475,
				 -210.868835 39.842896 46.510475,
				 -301.731293 -8.686226 -12.449524,
				 -263.259735 28.033550 29.840275,
				 -92.869064 -42.575615 16.620476,
				 -77.272964 -54.201050 64.560471,
				 -48.722069 -62.713562 14.690475,
				 -41.277611 -70.529205 62.630478,
				 -58.246517 -92.232361 -1.132126,
				 -20.849567 -129.755615 52.030674,
				 -11.852243 -159.640244 20.522175,
				 -17.129953 -176.427246 -9.099022,
				 17.977634 -176.400177 -9.099022,
				 -74.247215 84.019539 87.407478,
				 -134.946747 140.522781 63.480476,
				 -73.813805 153.270081 80.930679,
				 -128.046753 140.528122 26.304476,
				 -73.813805 153.270081 19.320475,
				 -210.946716 140.463974 46.510475,
				 -204.646729 140.468842 11.650475,
				 -263.313934 98.133423 29.840275,
				 -301.771332 42.997753 -12.449524,
				 -156.560669 158.506073 67.910477,
				 -146.660675 158.513733 15.430475,
				 -192.760666 158.478058 61.680473,
				 -182.760666 158.485779 9.200478,
				 -65.716888 73.916328 19.320475,
				 -35.265842 8.991173 13.278776,
				 -29.571943 105.014297 3.270477,
				 40.068939 -100.286758 34.040176,
				 20.455946 -123.818054 46.573677,
				 -19.303513 -124.142517 47.057976,
				 33.547436 -130.395233 23.469576,
				 44.541569 -130.429932 -7.083725,
				 -39.446739 -100.348312 34.040176,
				 -32.878746 -130.446625 23.469576,
				 -43.872707 -130.498230 -7.083725,
				 35.764149 -103.525208 43.892876,
				 -35.078129 -103.590118 43.883675,
				 0.377849 9.018753 1.221977,
				 0.433327 -62.675537 3.363876,
				 0.303548 105.037415 3.270477,
				 30.178942 105.060547 3.270477,
				 36.021526 9.046333 13.278776,
				 0.581357 -130.560028 47.299873,
				 0.450377 -165.864731 22.316475,
				 135.750839 40.111118 63.480476,
				 135.750839 40.111118 63.480476,
				 128.390137 40.105419 26.304476,
				 147.462646 24.861370 15.430475,
				 211.790802 40.169956 46.510475,
				 211.790802 40.169956 46.510475,
				 96.604691 0.863213 29.980476,
				 81.242592 0.851326 83.500481,
				 96.604691 0.863213 29.980476,
				 93.759689 -42.431190 16.620476,
				 78.236794 -54.080719 64.560471,
				 93.759689 -42.431190 16.620476,
				 49.601410 -62.637482 14.690475,
				 42.063267 -70.464722 62.630478,
				 42.063267 -70.464722 62.630478,
				 42.063267 -70.464722 62.630478,
				 42.063267 -70.464722 62.630478,
				 81.242592 0.851326 83.500481,
				 78.236794 -54.080719 64.560471,
				 42.063267 -70.464722 62.630478,
				 78.236794 -54.080719 64.560471,
				 81.242592 0.851326 83.500481,
				 135.750839 40.111118 63.480476,
				 81.242592 0.851326 83.500481,
				 0.378008 81.181076 97.227478,
				 135.750839 40.111118 63.480476,
				 74.520050 153.384888 80.930679,
				 74.520050 153.384888 80.930679,
				 135.672989 140.732193 63.480476,
				 0.332324 142.027466 87.210480,
				 0.332324 142.027466 87.210480,
				 74.520050 153.384888 80.930679,
				 128.312286 140.726486 26.304476,
				 128.312286 140.726486 26.304476,
				 135.672989 140.732193 63.480476,
				 211.712952 140.791031 46.510475,
				 205.312958 140.786072 11.650475,
				 183.489044 158.769196 9.200478,
				 183.489044 158.769196 9.200478,
				 211.712952 140.791031 46.510475,
				 264.145660 98.541595 29.840275,
				 264.199921 28.441711 29.840275,
				 302.648224 -8.218544 -12.449524,
				 302.648224 -8.218544 -12.449524,
				 302.608307 43.465435 -12.449524,
				 264.145660 98.541595 29.840275,
				 157.362610 24.869030 67.910477,
				 157.259033 158.748901 67.910477,
				 135.750839 40.111118 63.480476,
				 157.362610 24.869030 67.910477,
				 193.502640 24.896999 61.680473,
				 193.399002 158.776855 61.680473,
				 157.259033 158.748901 67.910477,
				 157.259033 158.748901 67.910477,
				 157.362610 24.869030 67.910477,
				 193.502640 24.896999 61.680473,
				 211.790802 40.169956 46.510475,
				 211.712952 140.791031 46.510475,
				 193.399002 158.776855 61.680473,
				 193.399002 158.776855 61.680473,
				 193.502640 24.896999 61.680473,
				 211.790802 40.169956 46.510475,
				 264.199921 28.441711 29.840275,
				 264.145660 98.541595 29.840275,
				 211.712952 140.791031 46.510475,
				 211.712952 140.791031 46.510475,
				 211.790802 40.169956 46.510475,
				 264.199921 28.441711 29.840275,
				 74.433067 153.384796 19.320475,
				 128.312286 140.726486 26.304476,
				 147.359039 158.741241 15.430475,
				 147.462646 24.861370 15.430475,
				 128.390137 40.105419 26.304476,
				 128.390137 40.105419 26.304476,
				 128.312286 140.726486 26.304476,
				 147.359039 158.741241 15.430475,
				 183.489044 158.769196 9.200478,
				 183.592621 24.889328 9.200478,
				 147.462646 24.861370 15.430475,
				 147.462646 24.861370 15.430475,
				 147.359039 158.741241 15.430475,
				 183.489044 158.769196 9.200478,
				 205.312958 140.786072 11.650475,
				 205.390839 40.165005 11.650475,
				 183.592621 24.889328 9.200478,
				 183.592621 24.889328 9.200478,
				 183.489044 158.769196 9.200478,
				 205.312958 140.786072 11.650475,
				 302.608307 43.465435 -12.449524,
				 302.648224 -8.218544 -12.449524,
				 205.390839 40.165005 11.650475,
				 205.390839 40.165005 11.650475,
				 205.312958 140.786072 11.650475,
				 302.608307 43.465435 -12.449524,
				 17.504957 -82.478012 82.560478,
				 -134.868896 39.901707 63.480476,
				 -127.968903 39.907047 26.304476,
				 -134.868896 39.901707 63.480476,
				 -146.557068 24.633854 15.430475,
				 -210.868835 39.842896 46.510475,
				 -210.868835 39.842896 46.510475,
				 -96.122849 0.714073 29.980476,
				 -80.300056 0.726326 83.500481,
				 -96.122849 0.714073 29.980476,
				 -77.272964 -54.201050 64.560471,
				 -92.869064 -42.575615 16.620476,
				 -92.869064 -42.575615 16.620476,
				 21.725018 -129.722656 52.030674,
				 17.504957 -82.478012 82.560478,
				 17.504957 -82.478012 82.560478,
				 -16.595036 -82.504410 82.560478,
				 21.725018 -129.722656 52.030674,
				 -41.277611 -70.529205 62.630478,
				 -41.277611 -70.529205 62.630478,
				 -80.300056 0.726326 83.500481,
				 -77.272964 -54.201050 64.560471,
				 -77.272964 -54.201050 64.560471,
				 -41.277611 -70.529205 62.630478,
				 -134.868896 39.901707 63.480476,
				 -80.300056 0.726326 83.500481,
				 -134.868896 39.901707 63.480476,
				 -80.300056 0.726326 83.500481,
				 0.378008 81.181076 97.227478,
				 -73.813805 153.270081 80.930679,
				 -134.946747 140.522781 63.480476,
				 -73.813805 153.270081 80.930679,
				 0.332324 142.027466 87.210480,
				 -73.813805 153.270081 80.930679,
				 0.332324 142.027466 87.210480,
				 -128.046753 140.528122 26.304476,
				 -134.946747 140.522781 63.480476,
				 -128.046753 140.528122 26.304476,
				 -182.760666 158.485779 9.200478,
				 -204.646729 140.468842 11.650475,
				 -182.760666 158.485779 9.200478,
				 -301.731293 -8.686226 -12.449524,
				 -263.259735 28.033550 29.840275,
				 -263.313934 98.133423 29.840275,
				 -263.313934 98.133423 29.840275,
				 -301.771332 42.997753 -12.449524,
				 -301.731293 -8.686226 -12.449524,
				 -156.560669 158.506073 67.910477,
				 -156.457062 24.626194 67.910477,
				 -156.457062 24.626194 67.910477,
				 -134.868896 39.901707 63.480476,
				 -156.560669 158.506073 67.910477,
				 -192.760666 158.478058 61.680473,
				 -192.657059 24.598179 61.680473,
				 -192.657059 24.598179 61.680473,
				 -156.457062 24.626194 67.910477,
				 -156.560669 158.506073 67.910477,
				 -192.760666 158.478058 61.680473,
				 -210.946716 140.463974 46.510475,
				 -210.868835 39.842896 46.510475,
				 -210.868835 39.842896 46.510475,
				 -192.657059 24.598179 61.680473,
				 -192.760666 158.478058 61.680473,
				 -210.946716 140.463974 46.510475,
				 -263.313934 98.133423 29.840275,
				 -263.259735 28.033550 29.840275,
				 -263.259735 28.033550 29.840275,
				 -210.868835 39.842896 46.510475,
				 -210.946716 140.463974 46.510475,
				 -73.813805 153.270081 19.320475,
				 -128.046753 140.528122 26.304476,
				 -96.122849 0.714073 29.980476,
				 -127.968903 39.907047 26.304476,
				 -127.968903 39.907047 26.304476,
				 -128.046753 140.528122 26.304476,
				 -127.968903 39.907047 26.304476,
				 -146.557068 24.633854 15.430475,
				 -146.660675 158.513733 15.430475,
				 -146.660675 158.513733 15.430475,
				 -128.046753 140.528122 26.304476,
				 -127.968903 39.907047 26.304476,
				 -146.557068 24.633854 15.430475,
				 -182.657059 24.605919 9.200478,
				 -182.760666 158.485779 9.200478,
				 -182.760666 158.485779 9.200478,
				 -146.660675 158.513733 15.430475,
				 -146.557068 24.633854 15.430475,
				 -182.657059 24.605919 9.200478,
				 -204.568848 39.847771 11.650475,
				 -204.646729 140.468842 11.650475,
				 -204.646729 140.468842 11.650475,
				 -182.760666 158.485779 9.200478,
				 -182.657059 24.605919 9.200478,
				 -204.568848 39.847771 11.650475,
				 -301.731293 -8.686226 -12.449524,
				 -301.771332 42.997753 -12.449524,
				 -301.771332 42.997753 -12.449524,
				 -204.646729 140.468842 11.650475,
				 -204.568848 39.847771 11.650475,
				 -29.571943 105.014297 3.270477,
				 -65.716888 73.916328 19.320475,
				 -65.716888 73.916328 19.320475,
				 -73.813805 153.270081 19.320475,
				 -29.571943 105.014297 3.270477,
				 -96.122849 0.714073 29.980476,
				 -65.716888 73.916328 19.320475,
				 -92.869064 -42.575615 16.620476,
				 -96.122849 0.714073 29.980476,
				 -48.722069 -62.713562 14.690475,
				 -92.869064 -42.575615 16.620476,
				 -29.571943 105.014297 3.270477,
				 -73.813805 153.270081 19.320475,
				 0.274924 142.027405 19.320475,
				 0.274924 142.027405 19.320475,
				 0.303548 105.037415 3.270477,
				 -29.571943 105.014297 3.270477,
				 58.897888 -92.207092 -1.132126,
				 49.601410 -62.637482 14.690475,
				 58.897888 -92.207092 -1.132126,
				 44.541569 -130.429932 -7.083725,
				 58.897888 -92.207092 -1.132126,
				 44.541569 -130.429932 -7.083725,
				 42.063267 -70.464722 62.630478,
				 12.746607 -163.829132 21.055574,
				 12.746607 -163.829132 21.055574,
				 17.977634 -176.400177 -9.099022,
				 44.541569 -130.429932 -7.083725,
				 -17.129953 -176.427246 -9.099022,
				 -17.129953 -176.427246 -9.099022,
				 44.541569 -130.429932 -7.083725,
				 17.977634 -176.400177 -9.099022,
				 -41.277611 -70.529205 62.630478,
				 -48.722069 -62.713562 14.690475,
				 -41.277611 -70.529205 62.630478,
				 -43.872707 -130.498230 -7.083725,
				 -58.246517 -92.232361 -1.132126,
				 -43.872707 -130.498230 -7.083725,
				 -43.872707 -130.498230 -7.083725,
				 -43.872707 -130.498230 -7.083725,
				 -17.129953 -176.427246 -9.099022,
				 49.601410 -62.637482 14.690475,
				 -41.277611 -70.529205 62.630478,
				 -48.722069 -62.713562 14.690475,
				 -58.246517 -92.232361 -1.132126,
				 -48.722069 -62.713562 14.690475,
				 -48.722069 -62.713562 14.690475,
				 -48.722069 -62.713562 14.690475,
				 74.433067 153.384796 19.320475,
				 128.312286 140.726486 26.304476,
				 30.178942 105.060547 3.270477,
				 66.085869 74.018318 19.320475,
				 74.433067 153.384796 19.320475,
				 66.085869 74.018318 19.320475,
				 30.178942 105.060547 3.270477,
				 66.085869 74.018318 19.320475,
				 96.604691 0.863213 29.980476,
				 96.604691 0.863213 29.980476,
				 93.759689 -42.431190 16.620476,
				 49.601410 -62.637482 14.690475,
				 93.759689 -42.431190 16.620476,
				 74.433067 153.384796 19.320475,
				 30.178942 105.060547 3.270477,
				 0.274924 142.027405 19.320475,
				 0.303548 105.037415 3.270477,
				 0.274924 142.027405 19.320475,
				 30.178942 105.060547 3.270477,
				 49.601410 -62.637482 14.690475,
				 49.601410 -62.637482 14.690475,
				 20.455946 -123.818054 46.573677,
				 21.725018 -129.722656 52.030674,
				 96.604691 0.863213 29.980476,
				 128.390137 40.105419 26.304476,
				 128.312286 140.726486 26.304476,
				 128.390137 40.105419 26.304476,
				 -147.365799 -9.953758 42.388977 ]
	    }
	   IndexedFaceSet {
		coordIndex	[
				 3, 0, 2, -1,
				 0, 1, 2, -1,
				 4, 5, 93, -1,
				 94, 95, 4, -1,
				 6, 7, 5, -1,
				 5, 96, 6, -1,
				 8, 9, 7, -1,
				 7, 6, 8, -1,
				 10, 11, 97, -1,
				 98, 8, 10, -1,
				 99, 100, 13, -1,
				 13, 12, 101, -1,
				 102, 103, 15, -1,
				 15, 14, 104, -1,
				 76, 105, 106, -1,
				 107, 84, 76, -1,
				 80, 16, 76, -1,
				 76, 79, 80, -1,
				 108, 19, 20, -1,
				 20, 17, 109, -1,
				 23, 25, 22, -1,
				 25, 23, 21, -1,
				 110, 19, 111, -1,
				 112, 113, 19, -1,
				 114, 115, 21, -1,
				 21, 24, 25, -1,
				 19, 116, 21, -1,
				 21, 117, 19, -1,
				 21, 118, 24, -1,
				 26, 27, 119, -1,
				 120, 121, 26, -1,
				 27, 28, 122, -1,
				 123, 124, 27, -1,
				 31, 32, 29, -1,
				 29, 30, 31, -1,
				 33, 34, 125, -1,
				 126, 127, 33, -1,
				 35, 36, 34, -1,
				 34, 33, 35, -1,
				 128, 129, 130, -1,
				 131, 35, 132, -1,
				 133, 134, 135, -1,
				 136, 137, 138, -1,
				 139, 140, 24, -1,
				 24, 141, 142, -1,
				 143, 144, 145, -1,
				 146, 147, 148, -1,
				 149, 150, 151, -1,
				 152, 153, 154, -1,
				 155, 156, 157, -1,
				 158, 159, 160, -1,
				 37, 161, 162, -1,
				 163, 164, 165, -1,
				 166, 167, 168, -1,
				 169, 170, 171, -1,
				 172, 173, 174, -1,
				 175, 176, 177, -1,
				 178, 179, 180, -1,
				 181, 182, 183, -1,
				 184, 185, 186, -1,
				 38, 187, 19, -1,
				 40, 42, 41, -1,
				 41, 39, 40, -1,
				 188, 44, 43, -1,
				 43, 189, 190, -1,
				 44, 46, 45, -1,
				 45, 191, 44, -1,
				 46, 48, 47, -1,
				 47, 45, 46, -1,
				 192, 50, 49, -1,
				 49, 47, 193, -1,
				 194, 51, 52, -1,
				 52, 195, 196, -1,
				 54, 197, 198, -1,
				 199, 53, 54, -1,
				 59, 92, 58, -1,
				 92, 59, 18, -1,
				 56, 200, 201, -1,
				 202, 203, 56, -1,
				 91, 56, 78, -1,
				 56, 91, 204, -1,
				 19, 205, 38, -1,
				 56, 38, 206, -1,
				 23, 62, 60, -1,
				 62, 23, 22, -1,
				 19, 207, 208, -1,
				 209, 210, 19, -1,
				 211, 212, 60, -1,
				 61, 213, 60, -1,
				 60, 214, 19, -1,
				 19, 215, 60, -1,
				 61, 60, 62, -1,
				 216, 64, 63, -1,
				 63, 217, 218, -1,
				 219, 28, 64, -1,
				 64, 220, 221, -1,
				 65, 66, 67, -1,
				 68, 67, 66, -1,
				 222, 70, 69, -1,
				 69, 223, 224, -1,
				 70, 72, 71, -1,
				 71, 69, 70, -1,
				 225, 226, 65, -1,
				 65, 71, 227, -1,
				 228, 229, 230, -1,
				 231, 232, 233, -1,
				 61, 234, 235, -1,
				 236, 237, 61, -1,
				 238, 239, 240, -1,
				 241, 242, 243, -1,
				 244, 245, 246, -1,
				 247, 248, 249, -1,
				 250, 251, 252, -1,
				 253, 254, 255, -1,
				 256, 73, 257, -1,
				 73, 258, 259, -1,
				 260, 261, 73, -1,
				 262, 263, 264, -1,
				 265, 266, 267, -1,
				 268, 269, 270, -1,
				 271, 272, 273, -1,
				 274, 275, 276, -1,
				 277, 278, 279, -1,
				 280, 281, 282, -1,
				 283, 284, 285, -1,
				 86, 75, 88, -1,
				 286, 74, 287, -1,
				 288, 289, 290, -1,
				 291, 292, 74, -1,
				 293, 294, 74, -1,
				 74, 295, 296, -1,
				 297, 298, 299, -1,
				 300, 301, 302, -1,
				 303, 87, 304, -1,
				 87, 305, 55, -1,
				 306, 55, 307, -1,
				 55, 308, 83, -1,
				 17, 84, 309, -1,
				 80, 79, 310, -1,
				 311, 312, 80, -1,
				 313, 314, 83, -1,
				 315, 316, 317, -1,
				 318, 319, 81, -1,
				 81, 85, 320, -1,
				 78, 56, 85, -1,
				 321, 82, 81, -1,
				 81, 322, 323, -1,
				 57, 82, 324, -1,
				 325, 326, 57, -1,
				 17, 77, 84, -1,
				 16, 327, 76, -1,
				 85, 56, 328, -1,
				 81, 329, 330, -1,
				 331, 74, 86, -1,
				 75, 86, 74, -1,
				 55, 332, 87, -1,
				 86, 87, 333, -1,
				 37, 334, 335, -1,
				 89, 86, 88, -1,
				 90, 336, 337, -1,
				 338, 339, 340, -1,
				 341, 342, 90, -1,
				 343, 344, 90, -1,
				 345, 90, 346, -1,
				 347, 348, 349, -1,
				 350, 351, 352, -1,
				 90, 353, 86, -1,
				 86, 89, 90, -1,
				 87, 86, 354, -1,
				 91, 355, 356, -1,
				 92, 57, 58, -1,
				 357, 37, 358, -1,
				 359, 360, 37, -1 ] 
	    }
	}
    }
}