#VRML V1.0 ascii

Separator {
    renderCaching	OFF
    renderCulling	OFF
    Callback {
    }
    ShapeHints {
	vertexOrdering	COUNTERCLOCKWISE
	faceType	CONVEX
    }
    Separator {
	renderCulling	OFF
	Material {
	    diffuseColor	.8 .8 .8
	    specularColor	.5 .5 .5
	    shininess		0.2
	}
	Separator {
	    renderCulling	OFF
	    Coordinate3 {
			point [
				 -36.998001 -129.297958 -27.487970,
				 -56.248001 -34.147995 0.002006,
				 -0.048700 -32.817997 -23.627989,
				 -13.857999 -172.497955 -23.717964,
				 -46.868000 55.761982 0.001990,
				 -0.048700 56.791981 -10.428007,
				 -36.998001 -124.997978 22.262016,
				 -13.857999 -168.097946 26.032026,
				 -36.768002 -27.547985 71.931984,
				 -0.048700 -27.547983 71.991982,
				 -0.048700 46.751999 64.561974,
				 -30.638000 46.751999 64.561974,
				 -43.278000 -145.997971 -0.934974,
				 -13.857999 -189.097946 2.839033,
				 -0.048710 87.421982 25.001978,
				 -30.288006 94.631989 25.001976,
				 -0.048700 82.281990 49.971973,
				 -193.897980 23.431993 4.482995,
				 -193.897980 -51.407986 4.483008,
				 -185.397995 -42.477985 28.631998,
				 -65.807999 -56.167976 25.002003,
				 -136.897995 -42.477985 -2.695992,
				 -136.897995 24.181993 -2.696004,
				 -56.248001 -34.147991 49.941994,
				 -141.497986 24.181999 30.531988,
				 -141.497986 -42.477985 30.491999,
				 -46.868000 55.762001 49.971973,
				 -138.997986 -64.507988 12.692010,
				 -180.697983 -42.477993 -12.787989,
				 -180.697983 24.181992 -12.788000,
				 -185.397995 24.181999 28.631987,
				 -174.397980 -116.797974 7.508019,
				 -156.597977 -116.797981 10.532019,
				 -26.058001 85.041977 0.001985,
				 -0.048700 82.281975 0.001985,
				 -26.058001 85.041992 49.971973,
				 -54.368000 68.101982 25.001980,
				 -138.997986 36.531994 12.691991,
				 -176.197983 59.531986 7.591988,
				 -154.797989 59.531986 10.471988,
				 13.762002 -168.097946 26.032026,
				 13.762001 -189.097946 2.839033,
				 13.762001 -172.497955 -23.717964,
				 56.151997 -34.147995 0.002006,
				 36.902000 -129.297958 -27.487970,
				 46.771996 55.761982 0.001990,
				 36.902000 -124.997978 22.262016,
				 36.672001 -27.547985 71.931984,
				 30.542002 46.751999 64.561974,
				 43.181995 -145.997971 -0.934974,
				 30.181995 94.631989 25.001976,
				 193.802017 -51.407986 4.483008,
				 193.802017 23.431993 4.482995,
				 185.302017 -42.477985 28.631998,
				 65.711998 -56.167976 25.002003,
				 136.802017 -42.477985 -2.695992,
				 136.802017 24.181993 -2.696004,
				 141.402023 24.181999 30.531988,
				 56.151997 -34.147991 49.941994,
				 141.402023 -42.477985 30.491999,
				 46.771996 55.762001 49.971973,
				 138.902023 -64.507988 12.692010,
				 180.602005 -42.477993 -12.787989,
				 180.602005 24.181992 -12.788000,
				 185.302017 24.181999 28.631987,
				 174.302017 -116.797974 7.508019,
				 156.502014 -116.797981 10.532019,
				 25.961998 85.041977 0.001985,
				 25.961998 85.041992 49.971973,
				 54.271999 68.101982 25.001980,
				 138.902023 36.531994 12.691991,
				 176.102020 59.531986 7.591988,
				 154.702011 59.531986 10.471988,
				 13.762001 -172.497955 -23.717964,
				 13.762002 -168.097946 26.032026,
				 13.762002 -168.097946 26.032026,
				 13.762001 -189.097946 2.839033,
				 13.762002 -168.097946 26.032026,
				 13.762001 -189.097946 2.839033,
				 13.762001 -172.497955 -23.717964,
				 13.762001 -189.097946 2.839033,
				 13.762002 -168.097946 26.032026 ]
	    }
	   IndexedFaceSet {
		coordIndex	[
				 0, 1, 2, -1,
				 3, 0, 2, -1,
				 1, 4, 5, -1,
				 5, 2, 1, -1,
				 6, 7, 8, -1,
				 9, 8, 7, -1,
				 8, 9, 10, -1,
				 10, 11, 8, -1,
				 12, 13, 7, -1,
				 14, 15, 16, -1,
				 17, 18, 19, -1,
				 12, 20, 1, -1,
				 4, 1, 21, -1,
				 21, 22, 4, -1,
				 23, 24, 25, -1,
				 24, 23, 26, -1,
				 25, 27, 23, -1,
				 22, 21, 28, -1,
				 28, 29, 22, -1,
				 25, 24, 30, -1,
				 30, 19, 25, -1,
				 19, 18, 31, -1,
				 21, 27, 32, -1,
				 28, 21, 32, -1,
				 25, 19, 32, -1,
				 5, 4, 33, -1,
				 33, 34, 5, -1,
				 11, 10, 16, -1,
				 16, 35, 11, -1,
				 4, 36, 15, -1,
				 26, 36, 37, -1,
				 29, 17, 38, -1,
				 22, 29, 39, -1,
				 30, 24, 39, -1,
				 24, 37, 39, -1,
				 12, 0, 13, -1,
				 0, 3, 13, -1,
				 7, 6, 12, -1,
				 35, 16, 15, -1,
				 17, 29, 18, -1,
				 29, 28, 18, -1,
				 19, 30, 17, -1,
				 1, 0, 12, -1,
				 12, 6, 20, -1,
				 6, 23, 20, -1,
				 23, 27, 20, -1,
				 27, 1, 20, -1,
				 21, 1, 27, -1,
				 18, 28, 31, -1,
				 28, 32, 31, -1,
				 32, 19, 31, -1,
				 27, 25, 32, -1,
				 36, 26, 15, -1,
				 26, 35, 15, -1,
				 33, 4, 15, -1,
				 24, 26, 37, -1,
				 36, 4, 37, -1,
				 4, 22, 37, -1,
				 17, 30, 38, -1,
				 30, 39, 38, -1,
				 39, 29, 38, -1,
				 37, 22, 39, -1,
				 6, 8, 23, -1,
				 26, 23, 8, -1,
				 8, 11, 26, -1,
				 35, 26, 11, -1,
				 33, 15, 34, -1,
				 15, 14, 34, -1,
				 40, 9, 7, -1,
				 13, 40, 7, -1,
				 41, 40, 13, -1,
				 42, 41, 13, -1,
				 3, 42, 13, -1,
				 2, 42, 3, -1,
				 43, 44, 2, -1,
				 73, 2, 44, -1,
				 45, 43, 5, -1,
				 2, 5, 43, -1,
				 74, 46, 47, -1,
				 47, 9, 75, -1,
				 9, 47, 10, -1,
				 48, 10, 47, -1,
				 76, 49, 77, -1,
				 50, 14, 16, -1,
				 51, 52, 53, -1,
				 54, 49, 43, -1,
				 43, 45, 55, -1,
				 56, 55, 45, -1,
				 57, 58, 59, -1,
				 58, 57, 60, -1,
				 61, 59, 58, -1,
				 55, 56, 62, -1,
				 63, 62, 56, -1,
				 57, 59, 64, -1,
				 53, 64, 59, -1,
				 51, 53, 65, -1,
				 61, 55, 66, -1,
				 55, 62, 66, -1,
				 53, 59, 66, -1,
				 45, 5, 67, -1,
				 34, 67, 5, -1,
				 10, 48, 16, -1,
				 68, 16, 48, -1,
				 69, 45, 50, -1,
				 69, 60, 70, -1,
				 52, 63, 71, -1,
				 63, 56, 72, -1,
				 57, 64, 72, -1,
				 70, 57, 72, -1,
				 44, 49, 78, -1,
				 79, 44, 80, -1,
				 46, 81, 49, -1,
				 16, 68, 50, -1,
				 63, 52, 51, -1,
				 62, 63, 51, -1,
				 64, 53, 52, -1,
				 44, 43, 49, -1,
				 46, 49, 54, -1,
				 58, 46, 54, -1,
				 61, 58, 54, -1,
				 43, 61, 54, -1,
				 43, 55, 61, -1,
				 62, 51, 65, -1,
				 66, 62, 65, -1,
				 53, 66, 65, -1,
				 59, 61, 66, -1,
				 60, 69, 50, -1,
				 68, 60, 50, -1,
				 45, 67, 50, -1,
				 60, 57, 70, -1,
				 45, 69, 70, -1,
				 56, 45, 70, -1,
				 64, 52, 71, -1,
				 72, 64, 71, -1,
				 63, 72, 71, -1,
				 56, 70, 72, -1,
				 47, 46, 58, -1,
				 58, 60, 47, -1,
				 48, 47, 60, -1,
				 60, 68, 48, -1,
				 50, 67, 34, -1,
				 14, 50, 34, -1 ] 
	    }
	}
    }
}