#VRML V1.0 ascii

Separator {
    renderCaching	OFF
    renderCulling	OFF
    Callback {
    }
    ShapeHints {
	vertexOrdering	COUNTERCLOCKWISE
	faceType	CONVEX
    }
    Separator {
	renderCulling	OFF
	Material {
	    diffuseColor	.8 .8 .8
	    specularColor	.5 .5 .5
	    shininess		0.2
	}
	Separator {
	    renderCulling	OFF
	    Coordinate3 {
                            point [
                                -0.248051 0.0543769 -0.0133486,
                                -0.309947 -0.00244451 0.00535993,
                                0.098144 0.14686 -0.0212168,
                                -0.0366614 -0.151776 0.00149736,
                                0.100071 -0.146309 -0.0215533,
                                -0.0379911 0.0610366 -0.000634883,
                                0.0175223 0.059546 0.000974971,
                                -0.0933489 0.0388555 -0.00227145,
                                -0.133411 -0.0242852 -0.00883158,
                                -0.0928248 -0.0408761 -0.00236296,
                                0.0599123 -0.0345092 -0.0372249,
                                0.074557 0.000131102 -0.0367534,
                                0.134343 0.0693413 -0.0444457,
                                0.173295 0.0854115 -0.0341476,
                                0.135248 -0.0682694 -0.0446036,
                                0.235521 0.00118416 -0.0324539,
                                0.174408 -0.0838497 -0.0343418,
                                -0.0365816 -0.123505 -0.00760848,
                                -0.207792 -0.0475902 -0.0214617,
                                -0.173193 -0.0992201 0.00456814,
                                -0.24731 -0.0584038 -0.0134781,
                                -0.208395 0.0441016 -0.0213564,
                                -0.0381968 0.122228 -0.00732643,
                                -0.174477 0.096122 0.00479235,
                                -0.0386481 0.150475 0.00184428,
                                0.0594582 0.0345769 -0.0371456,
                                0.0731626 0.119295 -0.0311248,
                                0.184933 0.000863832 -0.0430686,
                                -0.0371802 -0.0623314 -0.00077648,
                                0.0747292 -0.119054 -0.0313983,
                                -0.147621 -0.0807779 -0.00381051,
                                -0.133714 0.0217474 -0.00877875,
                                -0.258231 -0.00207219 -0.0228651,
                                -0.148665 0.0780368 -0.00362823,
                                -0.148434 -0.00136616 -0.00923747,
                                0.0183088 -0.0601148 0.00083763,
                                -0.345605 0.0785348 -0.00663258,
                                -0.263213 0.147383 -0.0241406,
                                -0.337915 0.171104 -0.0361407,
                                -0.525461 0.14682 -0.0391411,
                                -0.539257 0.128853 -0.0341257,
                                -0.420261 0.107125 -0.0202057,
                                -0.345286 0.0767519 -0.0121427,
                                -0.262894 0.1456 -0.0296503,
                                -0.274283 0.0221657 0.00963108,
                                -0.178709 0.0799262 0.00257938,
                                -0.274602 0.0239486 0.0151412,
                                -0.419941 0.105342 -0.0257158,
                                -0.525142 0.145037 -0.0446508,
                                -0.337595 0.169321 -0.0416508,
                                -0.441799 0.170238 -0.0418747,
                                -0.17839 0.0781434 -0.0029307,
                                -0.261084 -0.145593 -0.0280959,
                                -0.34486 -0.0751565 -0.00203533,
                                -0.335294 -0.171236 -0.0431504,
                                -0.537462 -0.130023 -0.0360438,
                                -0.523308 -0.148507 -0.0432989,
                                -0.418925 -0.105858 -0.0192736,
                                -0.26079 -0.143793 -0.0336019,
                                -0.344566 -0.073357 -0.00754089,
                                -0.274679 -0.015693 0.0211558,
                                -0.17796 -0.0743752 0.00717638,
                                -0.274974 -0.0174925 0.0266618,
                                -0.418631 -0.104059 -0.0247791,
                                -0.523013 -0.146708 -0.0488049,
                                -0.439181 -0.171722 -0.048884,
                                -0.335 -0.169437 -0.0486564,
                                -0.177666 -0.0725756 0.00167038,
                                0.220752 -0.200865 -0.0382846,
                                0.123936 -0.222336 -0.046709,
                                0.203454 -0.336139 -0.0751908,
                                -0.0396554 -0.513687 -0.129644,
                                0.136809 -0.413571 -0.0978641,
                                0.0790321 -0.377817 -0.0898105,
                                0.220944 -0.198969 -0.045323,
                                0.124128 -0.220441 -0.0537474,
                                0.203702 -0.0943321 -0.0176108,
                                0.126479 0.00515952 0.0100811,
                                0.109494 -0.0551493 -0.00962738,
                                0.109302 -0.0570449 -0.00258944,
                                0.0792243 -0.375921 -0.0968488,
                                -0.0394632 -0.511792 -0.136682,
                                0.137001 -0.411675 -0.104902,
                                0.203647 -0.334243 -0.0822292,
                                0.07404 0.381693 -0.0889387,
                                0.199 0.341621 -0.0744129,
                                0.131342 0.418222 -0.0969094,
                                0.120985 0.226718 -0.0461936,
                                0.108526 0.0611472 -0.00245378,
                                0.202209 0.101583 -0.0103454,
                                0.074257 0.379816 -0.0959814,
                                0.199217 0.339744 -0.0814556,
                                0.121201 0.224841 -0.0532363,
                                0.108742 0.0592704 -0.00949606,
                                0.202426 0.0997064 -0.0173881,
                                -0.0462069 0.514206 -0.135504,
                                0.131559 0.416345 -0.103952,
                                0.218291 0.204625 -0.0448598,
                                0.218074 0.206501 -0.037817,
                                -0.0464239 0.516082 -0.128462,
                                0.20351 -0.0962277 -0.0105724,
                                -0.438886 -0.169923 -0.05439,
                                -0.537167 -0.128223 -0.0415498,
                                -0.44148 0.168455 -0.0473848,
                                -0.538938 0.12707 -0.0396358,
                                0.443761 0.00289912 0.00239584,
                                0.446178 0.0132556 0.00595203,
                                0.458648 0.00299899 0.000639609,
                                0.460743 0.00298297 0.0265984,
                                0.458322 -0.00737353 0.0230421,
                                0.450532 0.00289879 0.0414657,
                                0.447102 -0.0135822 0.0349931,
                                0.438294 0.0261302 0.0194573,
                                0.446885 0.0193481 0.0350309,
                                0.458186 0.0133149 0.0230658,
                                0.438601 -0.0204409 0.0194039,
                                0.430014 -0.0136587 0.00383092,
                                0.446314 -0.00743281 0.00592829,
                                0.429798 0.0192715 0.00386872,
                                0.452156 0.0175695 0.0145139,
                                0.431205 0.00274987 0.0605313,
                                0.427648 -0.020122 0.0505381,
                                0.418343 0.0350333 0.0265404,
                                0.427347 0.0255959 0.0505906,
                                0.418768 -0.0296217 0.0264662,
                                0.409762 -0.0201844 0.00241541,
                                0.409461 0.0255336 0.00246789,
                                0.403254 0.00255433 0.0708302,
                                0.401684 -0.0254333 0.0578762,
                                0.397264 0.0421472 0.0312739,
                                0.401317 0.0305486 0.0579405,
                                0.397784 -0.037023 0.0311831,
                                0.391361 -0.0254371 0.00204483,
                                0.390993 0.0305448 0.00210908,
                                0.360088 0.00227017 0.0712105,
                                0.361514 -0.0293524 0.0574759,
                                0.363669 0.0470955 0.0319045,
                                0.361098 0.0339402 0.0575486,
                                0.364257 -0.0424139 0.0318018,
                                0.367112 -0.0292482 -0.00125366,
                                0.366696 0.0340444 -0.00118101,
                                0.31749 0.00200003 0.0626321,
                                0.321324 -0.0322148 0.049896,
                                0.329017 0.0505655 0.0222922,
                                0.320874 0.0362915 0.0499747,
                                0.329654 -0.046317 0.022181,
                                0.33751 -0.0320469 -0.00372059,
                                0.33706 0.0364594 -0.00364242,
                                0.288219 0.00182864 0.0443377,
                                0.290588 -0.0263557 0.0338594,
                                0.295411 0.0418147 0.00871971,
                                0.290217 0.0300656 0.0339242,
                                0.295935 -0.0379775 0.00862812,
                                0.301129 -0.0262285 -0.0165763,
                                0.300758 0.0301928 -0.0165116,
                                0.215009 0.00136301 0.0307663,
                                0.215253 -0.0246948 0.0210602,
                                0.215017 0.0382703 -0.00222808,
                                0.214911 0.027444 0.02112,
                                0.215502 -0.0354652 -0.00231271,
                                0.215608 -0.0246389 -0.0256608,
                                0.215266 0.0275 -0.025601,
                                0.103865 0.000642879 0.0217138,
                                0.103819 -0.0769944 0.0133147,
                                0.101242 0.110467 -0.00653178,
                                0.102798 0.0782919 0.0134929,
                                0.102686 -0.109141 -0.00678384,
                                0.10113 -0.076966 -0.0268085,
                                0.100109 0.0783203 -0.0266303,
                                0.100063 0.000683012 -0.0350294,
                                0.21551 0.00144215 -0.0353071,
                                0.303127 0.00200849 -0.0269894,
                                0.340894 0.00224454 -0.0163785,
                                0.368121 0.00242182 -0.0149156,
                                0.389424 0.00255717 -0.0108449,
                                0.405906 0.0026617 -0.00752473,
                                0.426367 0.00279054 -0.0026043,
                                0.452348 -0.0116874 0.0144803,
                                0.216289 0.000666726 0.0436483,
                                0.178641 -0.0820477 0.0337334,
                                0.139603 -0.0823359 0.0612293,
                                0.0887759 -0.142984 0.00501531,
                                0.0880374 -0.143018 0.0304608,
                                -0.0374147 0.142489 0.000963088,
                                0.0868981 0.142718 0.00534323,
                                0.0861595 0.142683 0.0307887,
                                -0.161703 0.0984064 0.00560533,
                                -0.0378395 0.14247 0.015599,
                                -0.265649 0.0449316 0.0235112,
                                -0.162509 0.0983692 0.0333728,
                                -0.333697 -0.00291881 0.0180109,
                                -0.25297 0.045015 0.0234562,
                                -0.0373546 0.175496 -0.011939,
                                0.115633 0.17578 -0.00940644,
                                0.227043 0.102203 0.0292199,
                                0.274616 0.00105026 0.0435095,
                                0.228376 -0.100685 0.028987,
                                0.117943 -0.175632 -0.00980978,
                                -0.0350354 -0.177353 -0.012344,
                                -0.188562 -0.125156 -0.00815179,
                                -0.160386 -0.101945 0.00537538,
                                -0.301598 -0.0610131 0.011378,
                                -0.378027 -0.00319706 0.00658323,
                                -0.302365 0.0556079 0.0115118,
                                -0.190182 0.121276 -0.00786894,
                                0.138519 0.082614 0.0614187,
                                -0.035954 -0.144399 0.0152698,
                                -0.252347 -0.0497992 0.0233474,
                                -0.32116 -0.00284198 0.0228671,
                                0.0459009 -0.0320743 0.111567,
                                0.0589064 -0.000446159 0.111987,
                                -0.039425 -0.00107769 0.0991034,
                                -0.124213 -0.0197433 0.0793229,
                                -0.0882866 -0.0397023 0.0908161,
                                -0.0398535 0.0537754 0.101503,
                                -0.0887902 0.0369207 0.0909041,
                                0.121224 0.059392 0.0979357,
                                0.0529474 0.102438 0.0960106,
                                0.00923603 0.0538642 0.110618,
                                0.122005 -0.0594271 0.0977994,
                                0.146501 0.000144962 0.0985901,
                                -0.0381656 -0.104371 0.0789994,
                                0.0543001 -0.103362 0.0957744,
                                0.00995421 -0.055401 0.110492,
                                -0.199022 -0.03623 0.0583342,
                                -0.131323 -0.0738216 0.0789475,
                                -0.199471 0.0320676 0.0584126,
                                -0.212105 -0.0021655 0.0580001,
                                -0.137546 -0.00169949 0.0789601,
                                -0.0395238 0.10227 0.0792365,
                                -0.132272 0.0704985 0.0791131,
                                0.157408 0.0728313 0.078862,
                                0.0741428 0.125434 0.0710737,
                                0.158362 -0.0723458 0.0786954,
                                0.188292 0.000441372 0.0796617,
                                -0.0374514 -0.127266 0.0595649,
                                0.0757956 -0.12602 0.0707851,
                                -0.234373 -0.0440257 0.0474722,
                                -0.151237 -0.0899368 0.0581888,
                                -0.234921 0.0394229 0.0475679,
                                -0.280534 -0.0025943 0.0397266,
                                -0.0391109 0.125216 0.0598547,
                                -0.152396 0.0863981 0.0583912,
                                0.183897 0.0825759 0.0551282,
                                0.0898005 0.1421 0.0423518,
                                0.184977 -0.0816868 0.0549396,
                                0.21861 0.00065863 0.0639939,
                                -0.0362689 -0.143813 0.0225759,
                                0.0916706 -0.142413 0.0420252,
                                -0.259643 -0.0496556 0.0283111,
                                -0.165453 -0.101597 0.0361497,
                                -0.260264 0.0447637 0.0284195,
                                -0.329484 -0.00289991 0.0256746,
                                -0.0381466 0.141862 0.0229038,
                                -0.166764 0.0979208 0.0363787,
                                0.197687 0.0876418 0.0420057,
                                0.0983945 0.150782 0.0117035,
                                0.198832 -0.0865409 0.0418058,
                                0.234623 0.000783342 0.0470375,
                                -0.0356479 -0.152413 0.00313122,
                                0.100377 -0.150911 0.0113572,
                                -0.272905 -0.0525874 0.0227802,
                                -0.172367 -0.107635 0.00836043,
                                -0.273563 0.047534 0.0228951,
                                -0.344785 -0.00299179 0.0181067,
                                -0.0376389 0.150514 0.00347891,
                                -0.173758 0.103931 0.00860326,
                                -0.124452 0.0165176 0.0793645,
                                -0.0391324 -0.0559366 0.101377,
                                0.0454862 0.0310096 0.11164,
                                -0.161192 -0.101982 0.0331428,
                                -0.265026 -0.0498826 0.0234024,
                                -0.0355291 -0.14438 0.000633831,
                                0.177557 0.0829021 0.0339228,
                                0.176958 0.000365034 0.0812637,
                            ]
	    }
	   IndexedFaceSet {
		coordIndex	[
                            0,1,2,-1,
                            3,4,2,-1,
                            5,6,7,-1,
                            8,6,9,-1,
                            10,6,11,-1,
                            12,2,13,-1,
                            14,15,16,-1,
                            17,4,3,-1,
                            18,19,20,-1,
                            21,1,0,-1,
                            22,23,24,-1,
                            25,26,12,-1,
                            10,27,14,-1,
                            28,29,17,-1,
                            8,30,18,-1,
                            31,32,21,-1,
                            5,33,22,-1,
                            7,31,21,-1,
                            34,8,18,-1,
                            9,28,17,-1,
                            35,10,14,-1,
                            11,25,12,-1,
                            6,5,22,-1,
                            33,21,0,-1,
                            32,18,20,-1,
                            30,17,3,-1,
                            29,14,16,-1,
                            27,12,13,-1,
                            26,22,24,-1,
                            35,6,10,-1,
                            34,6,8,-1,
                            15,13,2,-1,
                            19,3,2,-1,
                            23,0,2,-1,
                            1,20,2,-1,
                            4,16,2,-1,
                            7,6,31,-1,
                            9,6,28,-1,
                            11,6,25,-1,
                            12,26,2,-1,
                            14,27,15,-1,
                            17,29,4,-1,
                            18,30,19,-1,
                            21,32,1,-1,
                            22,33,23,-1,
                            25,6,26,-1,
                            10,11,27,-1,
                            28,35,29,-1,
                            8,9,30,-1,
                            31,34,32,-1,
                            5,7,33,-1,
                            7,21,33,-1,
                            34,18,32,-1,
                            9,17,30,-1,
                            35,14,29,-1,
                            11,12,27,-1,
                            6,22,26,-1,
                            33,0,23,-1,
                            32,20,1,-1,
                            30,3,19,-1,
                            29,16,4,-1,
                            27,13,15,-1,
                            26,24,2,-1,
                            28,6,35,-1,
                            31,6,34,-1,
                            16,15,2,-1,
                            20,19,2,-1,
                            24,23,2,-1,
                            36,37,38,-1,
                            39,40,41,-1,
                            42,43,44,-1,
                            44,45,46,-1,
                            47,36,41,-1,
                            48,40,39,-1,
                            49,50,38,-1,
                            51,37,45,-1,
                            52,53,54,-1,
                            55,56,57,-1,
                            58,59,60,-1,
                            61,60,62,-1,
                            53,63,57,-1,
                            55,64,56,-1,
                            65,66,54,-1,
                            52,67,61,-1,
                            68,69,70,-1,
                            71,72,73,-1,
                            74,75,76,-1,
                            77,78,79,-1,
                            75,80,69,-1,
                            81,82,71,-1,
                            83,74,70,-1,
                            84,85,86,-1,
                            87,88,89,-1,
                            90,91,92,-1,
                            93,94,77,-1,
                            92,93,88,-1,
                            95,90,84,-1,
                            91,96,86,-1,
                            94,97,98,-1,
                            94,98,89,-1,
                            91,86,85,-1,
                            95,84,99,-1,
                            92,88,87,-1,
                            92,94,93,-1,
                            90,96,91,-1,
                            87,89,98,-1,
                            76,77,100,-1,
                            70,74,68,-1,
                            71,82,72,-1,
                            69,80,73,-1,
                            80,82,81,-1,
                            83,75,74,-1,
                            77,79,100,-1,
                            69,73,70,-1,
                            66,58,54,-1,
                            64,101,56,-1,
                            63,102,57,-1,
                            60,59,62,-1,
                            63,64,102,-1,
                            66,59,58,-1,
                            56,65,57,-1,
                            65,54,57,-1,
                            43,49,38,-1,
                            103,48,39,-1,
                            104,47,41,-1,
                            42,44,46,-1,
                            48,47,104,-1,
                            42,49,43,-1,
                            50,39,41,-1,
                            38,50,41,-1,
                            36,46,37,-1,
                            42,47,49,-1,
                            44,43,51,-1,
                            44,51,45,-1,
                            47,42,36,-1,
                            48,104,40,-1,
                            49,103,50,-1,
                            51,43,37,-1,
                            62,53,52,-1,
                            63,59,66,-1,
                            58,60,67,-1,
                            67,60,61,-1,
                            59,63,53,-1,
                            102,64,55,-1,
                            101,66,65,-1,
                            58,67,52,-1,
                            100,69,68,-1,
                            82,80,83,-1,
                            76,75,78,-1,
                            79,75,69,-1,
                            73,81,71,-1,
                            72,83,70,-1,
                            68,76,100,-1,
                            84,87,85,-1,
                            88,77,89,-1,
                            92,91,97,-1,
                            96,90,95,-1,
                            90,87,84,-1,
                            96,99,86,-1,
                            97,85,98,-1,
                            77,94,89,-1,
                            97,91,85,-1,
                            96,95,99,-1,
                            90,92,87,-1,
                            93,77,88,-1,
                            92,97,94,-1,
                            86,99,84,-1,
                            87,98,85,-1,
                            74,76,68,-1,
                            82,83,72,-1,
                            80,81,73,-1,
                            78,75,79,-1,
                            76,78,77,-1,
                            83,80,75,-1,
                            79,69,100,-1,
                            70,73,72,-1,
                            54,58,52,-1,
                            56,101,65,-1,
                            57,102,55,-1,
                            62,59,53,-1,
                            63,101,64,-1,
                            63,66,101,-1,
                            61,62,52,-1,
                            54,53,57,-1,
                            43,38,37,-1,
                            103,39,50,-1,
                            104,41,40,-1,
                            42,46,36,-1,
                            103,47,48,-1,
                            49,47,103,-1,
                            46,45,37,-1,
                            36,38,41,-1,
                            105,106,107,-1,
                            108,109,107,-1,
                            110,111,109,-1,
                            112,113,114,-1,
                            115,116,117,-1,
                            118,112,119,-1,
                            120,121,111,-1,
                            122,123,113,-1,
                            124,125,116,-1,
                            126,122,112,-1,
                            127,128,121,-1,
                            129,130,123,-1,
                            131,132,125,-1,
                            133,129,122,-1,
                            134,135,128,-1,
                            136,137,130,-1,
                            138,139,132,-1,
                            140,136,129,-1,
                            141,142,135,-1,
                            143,144,137,-1,
                            145,146,139,-1,
                            147,143,136,-1,
                            148,149,142,-1,
                            150,151,144,-1,
                            152,153,146,-1,
                            154,150,143,-1,
                            155,156,149,-1,
                            157,158,151,-1,
                            159,160,153,-1,
                            161,157,150,-1,
                            162,163,156,-1,
                            164,165,158,-1,
                            166,167,160,-1,
                            168,164,157,-1,
                            162,165,169,-1,
                            164,168,169,-1,
                            165,164,169,-1,
                            161,170,169,-1,
                            170,160,167,-1,
                            159,156,163,-1,
                            155,158,165,-1,
                            154,171,170,-1,
                            171,153,160,-1,
                            152,149,156,-1,
                            148,151,158,-1,
                            147,172,171,-1,
                            172,146,153,-1,
                            145,142,149,-1,
                            141,144,151,-1,
                            140,173,172,-1,
                            173,139,146,-1,
                            138,135,142,-1,
                            134,137,144,-1,
                            133,174,173,-1,
                            174,132,139,-1,
                            131,128,135,-1,
                            127,130,137,-1,
                            126,175,174,-1,
                            175,125,132,-1,
                            124,121,128,-1,
                            120,123,130,-1,
                            118,176,175,-1,
                            176,116,125,-1,
                            115,111,121,-1,
                            110,113,123,-1,
                            106,105,176,-1,
                            105,117,116,-1,
                            177,109,111,-1,
                            108,114,113,-1,
                            114,108,107,-1,
                            117,105,107,-1,
                            106,119,107,-1,
                            109,177,107,-1,
                            109,108,110,-1,
                            114,119,112,-1,
                            117,177,115,-1,
                            119,106,118,-1,
                            111,110,120,-1,
                            113,112,122,-1,
                            116,115,124,-1,
                            112,118,126,-1,
                            121,120,127,-1,
                            123,122,129,-1,
                            125,124,131,-1,
                            122,126,133,-1,
                            128,127,134,-1,
                            130,129,136,-1,
                            132,131,138,-1,
                            129,133,140,-1,
                            135,134,141,-1,
                            137,136,143,-1,
                            139,138,145,-1,
                            136,140,147,-1,
                            142,141,148,-1,
                            144,143,150,-1,
                            146,145,152,-1,
                            143,147,154,-1,
                            149,148,155,-1,
                            151,150,157,-1,
                            153,152,159,-1,
                            150,154,161,-1,
                            156,155,162,-1,
                            158,157,164,-1,
                            160,159,166,-1,
                            157,161,168,-1,
                            163,162,169,-1,
                            167,166,169,-1,
                            166,163,169,-1,
                            169,168,161,-1,
                            167,169,170,-1,
                            163,166,159,-1,
                            165,162,155,-1,
                            170,161,154,-1,
                            160,170,171,-1,
                            156,159,152,-1,
                            158,155,148,-1,
                            171,154,147,-1,
                            153,171,172,-1,
                            149,152,145,-1,
                            151,148,141,-1,
                            172,147,140,-1,
                            146,172,173,-1,
                            142,145,138,-1,
                            144,141,134,-1,
                            173,140,133,-1,
                            139,173,174,-1,
                            135,138,131,-1,
                            137,134,127,-1,
                            174,133,126,-1,
                            132,174,175,-1,
                            128,131,124,-1,
                            130,127,120,-1,
                            175,126,118,-1,
                            125,175,176,-1,
                            121,124,115,-1,
                            123,120,110,-1,
                            176,118,106,-1,
                            116,176,105,-1,
                            111,115,177,-1,
                            113,110,108,-1,
                            119,114,107,-1,
                            177,117,107,-1,
                            178,179,180,-1,
                            179,181,182,-1,
                            183,184,185,-1,
                            186,183,187,-1,
                            188,186,189,-1,
                            190,188,191,-1,
                            192,193,184,-1,
                            194,195,178,-1,
                            196,197,181,-1,
                            198,199,200,-1,
                            201,202,190,-1,
                            203,204,186,-1,
                            205,180,182,-1,
                            187,206,189,-1,
                            191,207,208,-1,
                            209,210,211,-1,
                            212,213,211,-1,
                            214,215,211,-1,
                            216,217,218,-1,
                            219,220,210,-1,
                            221,222,223,-1,
                            224,225,213,-1,
                            226,227,228,-1,
                            229,230,215,-1,
                            231,232,217,-1,
                            233,234,220,-1,
                            235,236,222,-1,
                            237,238,225,-1,
                            239,240,227,-1,
                            241,242,230,-1,
                            243,244,232,-1,
                            245,246,234,-1,
                            247,248,236,-1,
                            249,250,238,-1,
                            251,252,240,-1,
                            253,254,242,-1,
                            255,256,244,-1,
                            257,258,246,-1,
                            259,260,248,-1,
                            261,262,250,-1,
                            263,264,252,-1,
                            265,266,254,-1,
                            194,193,256,-1,
                            196,195,258,-1,
                            198,197,260,-1,
                            201,199,262,-1,
                            203,202,264,-1,
                            192,204,266,-1,
                            204,263,266,-1,
                            202,261,264,-1,
                            199,259,262,-1,
                            197,257,260,-1,
                            195,255,258,-1,
                            193,265,256,-1,
                            266,251,254,-1,
                            264,249,252,-1,
                            262,247,250,-1,
                            260,245,248,-1,
                            258,243,246,-1,
                            256,253,244,-1,
                            254,239,242,-1,
                            252,237,240,-1,
                            250,235,238,-1,
                            248,233,236,-1,
                            246,231,234,-1,
                            244,241,232,-1,
                            242,226,230,-1,
                            240,224,227,-1,
                            238,221,225,-1,
                            236,219,222,-1,
                            234,216,220,-1,
                            232,229,217,-1,
                            230,267,215,-1,
                            227,212,228,-1,
                            225,268,213,-1,
                            222,209,223,-1,
                            220,269,210,-1,
                            217,214,218,-1,
                            228,212,211,-1,
                            223,209,211,-1,
                            218,214,211,-1,
                            189,206,270,-1,
                            205,182,185,-1,
                            183,186,204,-1,
                            188,190,202,-1,
                            271,200,199,-1,
                            272,181,197,-1,
                            179,178,195,-1,
                            273,184,193,-1,
                            208,207,271,-1,
                            207,270,200,-1,
                            270,206,272,-1,
                            206,182,181,-1,
                            205,185,184,-1,
                            274,205,273,-1,
                            180,274,178,-1,
                            182,180,179,-1,
                            185,187,183,-1,
                            187,189,186,-1,
                            189,191,188,-1,
                            191,208,190,-1,
                            184,183,192,-1,
                            178,273,194,-1,
                            181,179,196,-1,
                            200,272,198,-1,
                            190,271,201,-1,
                            186,188,203,-1,
                            205,274,180,-1,
                            187,182,206,-1,
                            191,270,207,-1,
                            210,269,211,-1,
                            213,268,211,-1,
                            215,267,211,-1,
                            216,218,269,-1,
                            219,210,209,-1,
                            221,223,268,-1,
                            224,213,212,-1,
                            226,228,267,-1,
                            229,215,214,-1,
                            231,217,216,-1,
                            233,220,219,-1,
                            235,222,221,-1,
                            237,225,224,-1,
                            239,227,226,-1,
                            241,230,229,-1,
                            243,232,231,-1,
                            245,234,233,-1,
                            247,236,235,-1,
                            249,238,237,-1,
                            251,240,239,-1,
                            253,242,241,-1,
                            255,244,243,-1,
                            257,246,245,-1,
                            259,248,247,-1,
                            261,250,249,-1,
                            263,252,251,-1,
                            265,254,253,-1,
                            194,256,255,-1,
                            196,258,257,-1,
                            198,260,259,-1,
                            201,262,261,-1,
                            203,264,263,-1,
                            192,266,265,-1,
                            204,203,263,-1,
                            202,201,261,-1,
                            199,198,259,-1,
                            197,196,257,-1,
                            195,194,255,-1,
                            193,192,265,-1,
                            266,263,251,-1,
                            264,261,249,-1,
                            262,259,247,-1,
                            260,257,245,-1,
                            258,255,243,-1,
                            256,265,253,-1,
                            254,251,239,-1,
                            252,249,237,-1,
                            250,247,235,-1,
                            248,245,233,-1,
                            246,243,231,-1,
                            244,253,241,-1,
                            242,239,226,-1,
                            240,237,224,-1,
                            238,235,221,-1,
                            236,233,219,-1,
                            234,231,216,-1,
                            232,241,229,-1,
                            230,226,267,-1,
                            227,224,212,-1,
                            225,221,268,-1,
                            222,219,209,-1,
                            220,216,269,-1,
                            217,229,214,-1,
                            267,228,211,-1,
                            268,223,211,-1,
                            269,218,211,-1,
                            189,270,191,-1,
                            185,182,187,-1,
                            204,192,183,-1,
                            202,203,188,-1,
                            199,201,271,-1,
                            197,198,272,-1,
                            195,196,179,-1,
                            193,194,273,-1,
                            271,190,208,-1,
                            200,271,207,-1,
                            272,200,270,-1,
                            181,272,206,-1,
                            184,273,205,-1,
                            273,178,274,-1,
                        ] 
	    }
	}
    }
}
