#VRML V1.0 ascii

# Blender V249

# 'Switch' is used as a hack, to ensure it is not part of the drawing

Separator {
Switch {
	DEF Grey
	Material {
		diffuseColor 0.800000 0.800000 0.800000
		specularColor 1.000000 1.000000 1.000000
		shininess 0.500000 
		transparency 0.000000 
	}
	DEF Mesh_001
	Separator {
		Coordinate3 {
			point [
				 67.479752 0.000008 -28.287363,
				 54.592262 39.663609 -28.287363,
				 20.852385 64.177063 -28.287363,
				 -20.852398 64.177063 -28.287363,
				 -54.592270 39.663601 -28.287363,
				 -67.479752 0.000002 -28.287363,
				 -54.592262 -39.663601 -28.287363,
				 -20.852386 -64.177063 -28.287363,
				 20.852396 -64.177048 -28.287363,
				 54.592270 -39.663586 -28.287363,
				 67.479752 0.000008 -26.208956,
				 54.592262 39.663609 -26.208956,
				 20.852385 64.177063 -26.208956,
				 -20.852398 64.177063 -26.208956,
				 -54.592270 39.663601 -26.208956,
				 -67.479752 0.000002 -26.208956,
				 -54.592262 -39.663601 -26.208956,
				 -20.852386 -64.177063 -26.208956,
				 20.852396 -64.177048 -26.208956,
				 54.592270 -39.663586 -26.208956,
				 33.739872 0.000008 -28.287363,
				 27.296129 19.831806 -28.287363,
				 10.426190 32.088535 -28.287363,
				 -10.426201 32.088535 -28.287363,
				 -27.296139 19.831806 -28.287363,
				 -33.739876 0.000004 -28.287363,
				 -27.296135 -19.831797 -28.287363,
				 -10.426195 -32.088524 -28.287363,
				 10.426196 -32.088520 -28.287363,
				 27.296133 -19.831789 -28.287363,
				 -0.000004 0.000008 -28.287363,
				 67.479752 0.000008 -22.241154,
				 54.592262 39.663609 -22.241154,
				 20.852385 64.177063 -22.241154,
				 -20.852398 64.177063 -22.241154,
				 -54.592270 39.663601 -22.241154,
				 -67.479752 0.000002 -22.241154,
				 -54.592262 -39.663601 -22.241154,
				 -20.852386 -64.177063 -22.241154,
				 20.852396 -64.177048 -22.241154,
				 54.592270 -39.663586 -22.241154,
				 48.687424 35.373493 -22.241154,
				 60.180969 0.000008 -22.241154,
				 48.687431 -35.373474 -22.241154,
				 18.596947 -57.235497 -22.241154,
				 -18.596941 -57.235504 -22.241154,
				 -48.687431 -35.373486 -22.241154,
				 -60.180977 0.000002 -22.241154,
				 -48.687431 35.373486 -22.241154,
				 -18.596951 57.235508 -22.241154,
				 18.596937 57.235508 -22.241154,
				 0.174265 -0.000891 -9.190016,
				 16.615873 -0.000891 -9.190016,
				 13.475806 9.663242 -9.190016,
				 5.255001 15.636005 -9.190016,
				 -4.906472 15.636005 -9.190016,
				 -13.127275 9.663242 -9.190016,
				 -16.267344 -0.000893 -9.190016,
				 -13.127274 -9.665028 -9.190016,
				 -4.906469 -15.637790 -9.190016,
				 5.255004 -15.637789 -9.190016,
				 13.475807 -9.665024 -9.190016,
				 32.196754 -0.000891 -9.190016,
				 26.081001 18.821453 -9.190016,
				 10.069756 30.454304 -9.190016,
				 -9.721229 30.454304 -9.190016,
				 -25.732470 18.821453 -9.190016,
				 -31.848221 -0.000893 -9.190016,
				 -25.732468 -18.823238 -9.190016,
				 -9.721224 -30.456085 -9.190016,
				 10.069761 -30.456083 -9.190016,
				 26.081003 -18.823233 -9.190016,
				 33.057484 -0.000891 -0.775883,
				 26.777348 19.327381 -0.775883,
				 10.335736 31.272907 -0.775883,
				 -9.987210 31.272907 -0.775883,
				 -26.428816 19.327374 -0.775883,
				 -32.708946 -0.000893 -0.775883,
				 -26.428814 -19.329163 -0.775883,
				 -9.987204 -31.274689 -0.775883,
				 10.335742 -31.274687 -0.775883,
				 26.777349 -19.329157 -0.775883,
				 22.978775 -0.000891 -0.775881,
				 18.623501 13.403263 -0.775881,
				 7.221245 21.687489 -0.775881,
				 -6.872717 21.687489 -0.775881,
				 -18.274971 13.403263 -0.775881,
				 -22.630245 -0.000893 -0.775881,
				 -18.274969 -13.405046 -0.775881,
				 -6.872713 -21.689268 -0.775881,
				 7.221249 -21.689266 -0.775881,
				 18.623503 -13.405043 -0.775881,
				 7.696864 -0.000891 -0.775881,
				 44.625259 3.757706 -27.092642,
				 38.345123 23.085979 -27.092642,
				 38.345123 23.085979 -18.678509,
				 44.625259 3.757706 -18.678509,
				 10.335736 43.435986 -27.092642,
				 -9.987210 43.435986 -27.092642,
				 -9.987210 43.435986 -18.678509,
				 10.335736 43.435986 -18.678509,
				 -37.996590 23.085972 -27.092642,
				 -44.276726 3.757702 -27.092642,
				 -44.276726 3.757702 -18.678509,
				 -37.996590 23.085972 -18.678509,
				 -33.578087 -29.169298 -27.092642,
				 -17.136480 -41.114822 -27.092642,
				 -17.136480 -41.114822 -18.678509,
				 -33.578087 -29.169298 -18.678509,
				 17.485020 -41.114815 -27.092642,
				 33.926624 -29.169289 -27.092642,
				 33.926624 -29.169289 -18.678509,
				 17.485020 -41.114815 -18.678509,
				 47.170166 4.584599 -26.165045,
				 40.890030 23.912868 -26.165045,
				 40.890030 23.912868 -17.750912,
				 47.170166 4.584599 -17.750912,
				 10.335736 46.111851 -26.165045,
				 -9.987210 46.111851 -26.165045,
				 -9.987210 46.111851 -17.750912,
				 10.335736 46.111851 -17.750912,
				 -40.541496 23.912868 -26.165045,
				 -46.821632 4.584591 -26.165045,
				 -46.821632 4.584591 -17.750912,
				 -40.541496 23.912868 -17.750912,
				 -35.150925 -31.334129 -26.165045,
				 -18.709320 -43.279655 -26.165045,
				 -18.709320 -43.279655 -17.750912,
				 -35.150925 -31.334129 -17.750912,
				 19.057859 -43.279644 -26.165045,
				 35.499466 -31.334120 -26.165045,
				 35.499466 -31.334120 -17.750912,
				 19.057859 -43.279644 -17.750912,
				 52.056396 6.172230 -26.165045,
				 45.776260 25.500500 -26.165045,
				 45.776260 25.500500 -17.750912,
				 52.056396 6.172230 -17.750912,
				 10.335736 51.249538 -26.165045,
				 -9.987210 51.249538 -26.165045,
				 -9.987210 51.249538 -17.750912,
				 10.335736 51.249538 -17.750912,
				 -45.427727 25.500500 -26.165045,
				 -51.707863 6.172222 -26.165045,
				 -51.707863 6.172222 -17.750912,
				 -45.427727 25.500500 -17.750912,
				 -38.170776 -35.490604 -26.165045,
				 -21.729174 -47.436131 -26.165045,
				 -21.729174 -47.436131 -17.750912,
				 -38.170776 -35.490604 -17.750912,
				 22.077713 -47.436119 -26.165045,
				 38.519325 -35.490593 -26.165045,
				 38.519325 -35.490593 -17.750912,
				 22.077713 -47.436119 -17.750912,
				 33.057484 -0.000891 3.336962,
				 26.777348 19.327381 3.336962,
				 10.335736 31.272907 3.336962,
				 -9.987210 31.272907 3.336962,
				 -26.428816 19.327374 3.336962,
				 -32.708946 -0.000893 3.336962,
				 -26.428814 -19.329163 3.336962,
				 -9.987204 -31.274689 3.336962,
				 10.335742 -31.274687 3.336962,
				 26.777348 -19.329157 3.336962,
				 18.623499 13.403263 3.336964,
				 22.978775 -0.000891 3.336964,
				 18.623503 -13.405043 3.336964,
				 7.221248 -21.689266 3.336964,
				 -6.872713 -21.689268 3.336964,
				 -18.274969 -13.405046 3.336964,
				 -22.630245 -0.000893 3.336964,
				 -18.274971 13.403263 3.336964,
				 -6.872717 21.687489 3.336964,
				 7.221245 21.687489 3.336964,
				 6.260175 4.420780 -0.775881,
				 2.498875 7.153526 -0.775881,
				 -2.150347 7.153526 -0.775881,
				 -5.911646 4.420780 -0.775881,
				 -7.348333 -0.000893 -0.775881,
				 -5.911645 -4.422564 -0.775881,
				 -2.150345 -7.155308 -0.775881,
				 2.498877 -7.155308 -0.775881,
				 6.260176 -4.422562 -0.775881,
				 7.696864 -0.000891 10.581572,
				 6.260175 4.420780 10.581572,
				 2.498875 7.153526 10.581572,
				 -2.150347 7.153526 10.581572,
				 -5.911646 4.420780 10.581572,
				 -7.348333 -0.000893 10.581572,
				 -5.911645 -4.422564 10.581572,
				 -2.150345 -7.155308 10.581572,
				 2.498877 -7.155308 10.581572,
				 6.260176 -4.422562 10.581572,
				 7.696864 -0.000891 12.503069,
				 6.260175 4.420780 12.503069,
				 2.498875 7.153526 12.503069,
				 -2.150347 7.153526 12.503069,
				 -5.911646 4.420780 12.503069,
				 -7.348333 -0.000893 12.503069,
				 -5.911645 -4.422564 12.503069,
				 -2.150345 -7.155308 12.503069,
				 2.498877 -7.155308 12.503069,
				 6.260176 -4.422562 12.503069,
				 14.981490 -0.000889 10.581572,
				 12.153561 8.702579 10.581572,
				 4.749948 14.081615 10.581572,
				 -4.401421 14.081615 10.581572,
				 -11.805033 8.702579 10.581572,
				 -14.632959 -0.000893 10.581572,
				 -11.805031 -8.704361 10.581572,
				 -4.401418 -14.083399 10.581572,
				 4.749951 -14.083399 10.581572,
				 12.153563 -8.704357 10.581572,
				 12.153561 8.702579 12.503069,
				 14.981490 -0.000889 12.503069,
				 12.153563 -8.704357 12.503069,
				 4.749951 -14.083399 12.503069,
				 -4.401418 -14.083399 12.503069,
				 -11.805031 -8.704361 12.503069,
				 -14.632959 -0.000893 12.503069,
				 -11.805031 8.702579 12.503069,
				 -4.401421 14.081615 12.503069,
				 4.749948 14.081615 12.503069,
				 17.676800 -0.000889 10.581572,
				 14.334113 10.286846 10.581572,
				 5.582845 16.645008 10.581572,
				 -5.234317 16.645008 10.581572,
				 -13.985586 10.286839 10.581579,
				 -17.328272 -0.000893 10.581572,
				 -13.985582 -10.288626 10.581572,
				 -5.234314 -16.646791 10.581572,
				 5.582848 -16.646791 10.581572,
				 14.334117 -10.288622 10.581572,
				 14.334113 10.286846 12.503069,
				 17.676800 -0.000889 12.503069,
				 14.334117 -10.288622 12.503069,
				 5.582848 -16.646791 12.503069,
				 -5.234314 -16.646791 12.503069,
				 -13.985582 -10.288626 12.503069,
				 -17.328272 -0.000893 12.503069,
				 -13.985584 10.286842 12.503077,
				 -5.234317 16.645008 12.503069,
				 5.582845 16.645008 12.503069,
				 12.153561 8.702579 14.618444,
				 14.981490 -0.000889 14.618444,
				 12.153563 -8.704357 14.618444,
				 4.749951 -14.083399 14.618444,
				 -4.401418 -14.083399 14.618444,
				 -11.805031 -8.704361 14.618444,
				 -14.632959 -0.000893 14.618444,
				 -11.805031 8.702579 14.618444,
				 -4.401421 14.081615 14.618444,
				 4.749948 14.081615 14.618444,
				 17.676800 -0.000889 14.618444,
				 14.334113 10.286846 14.618444,
				 5.582845 16.645008 14.618444,
				 -5.234317 16.645008 14.618444,
				 -13.985584 10.286839 14.618452,
				 -17.328272 -0.000893 14.618444,
				 -13.985582 -10.288626 14.618444,
				 -5.234314 -16.646791 14.618444,
				 5.582848 -16.646791 14.618444,
				 14.334117 -10.288622 14.618444,
				 4.028336 -0.000891 15.856550,
				 3.292274 2.264477 15.856550,
				 1.365238 3.664547 15.856550,
				 -1.016709 3.664547 15.856550,
				 -2.943744 2.264477 15.856550,
				 -3.679806 -0.000891 15.856550,
				 -2.943744 -2.266258 15.856550,
				 -1.016708 -3.666330 15.856550,
				 1.365239 -3.666330 15.856550,
				 3.292275 -2.266256 15.856550,
				 4.031300 2.801411 18.573053,
				 1.647521 4.533329 18.573053,
				 -1.298992 4.533329 18.573053,
				 -3.682771 2.801411 18.573053,
				 -4.593293 -0.000891 18.573053,
				 -3.682770 -2.803192 18.573053,
				 -1.298991 -4.535107 18.573053,
				 1.647522 -4.535107 18.573053,
				 4.028336 -0.000891 17.738016,
				 3.292274 2.264477 17.738016,
				 1.365238 3.664547 17.738016,
				 -1.016709 3.664547 17.738016,
				 -2.943744 2.264477 17.738016,
				 -3.679806 -0.000891 17.738016,
				 -2.943744 -2.266258 17.738016,
				 -1.016708 -3.666330 17.738016,
				 1.365239 -3.666330 17.738016,
				 3.292275 -2.266256 17.738016,
				 57.541786 7.954540 -26.165045,
				 51.261650 27.282810 -26.165045,
				 51.261650 27.282803 -22.091713,
				 57.541786 7.954540 -22.091713,
				 10.335736 57.017216 -26.165045,
				 -9.987210 57.017216 -26.165045,
				 -9.987210 57.017216 -22.091713,
				 10.335736 57.017216 -22.091713,
				 -50.913116 27.282803 -26.165045,
				 -57.193245 7.954533 -26.165045,
				 -57.193245 7.954533 -22.091713,
				 -50.913109 27.282803 -22.091713,
				 -41.560936 -40.156754 -26.165045,
				 -25.119331 -52.102272 -26.165045,
				 -25.119331 -52.102272 -22.091713,
				 -41.560936 -40.156754 -22.091713,
				 25.467867 -52.102264 -26.165045,
				 41.909477 -40.156742 -26.165045,
				 41.909477 -40.156742 -22.091713,
				 25.467867 -52.102264 -22.091713,
				 4.941823 -0.000891 18.573053,
				 4.031301 -2.803190 18.573053,
				 4.795116 -0.000891 24.398962,
				 3.912612 2.715176 24.398962,
				 1.602186 4.393803 24.398962,
				 -1.253657 4.393803 24.398962,
				 -3.564082 2.715176 24.398962,
				 -4.446587 -0.000891 24.398962,
				 -3.564082 -2.716959 24.398962,
				 -1.253656 -4.395582 24.398962,
				 1.602187 -4.395580 24.398962,
				 3.912613 -2.716957 24.398962,
				 1.893369 -0.000893 28.087362,
				 1.565049 1.009571 28.087362,
				 0.705497 1.634075 28.087362,
				 -0.356968 1.634075 28.087362,
				 -1.216519 1.009571 28.087362,
				 -1.544838 -0.000891 28.087362,
				 -1.216519 -1.011354 28.087362,
				 -0.356967 -1.635857 28.087362,
				 0.705498 -1.635855 28.087362,
				 1.565049 -1.011354 28.087362,
				 1.893369 -0.000893 28.287363,
				 1.565049 1.009571 28.287363,
				 0.705497 1.634075 28.287363,
				 -0.356968 1.634075 28.287363,
				 -1.216519 1.009571 28.287363,
				 -1.544838 -0.000891 28.287363,
				 -1.216519 -1.011354 28.287363,
				 -0.356967 -1.635857 28.287363,
				 0.705498 -1.635855 28.287363,
				 1.565049 -1.011354 28.287363,
				 33.494999 0.141266 -9.867128,
				 33.057484 -0.000891 -8.371412,
				 26.777348 19.327381 -8.371412,
				 27.214863 19.469540 -9.867128,
				 10.335736 31.732937 -9.867128,
				 10.335736 31.272907 -8.371412,
				 -9.987210 31.272907 -8.371412,
				 -9.987210 31.732937 -9.867128,
				 -26.866333 19.469532 -9.867128,
				 -26.428816 19.327374 -8.371412,
				 -32.708946 -0.000893 -8.371412,
				 -33.146461 0.141264 -9.867128,
				 -26.699213 -19.701336 -9.867128,
				 -26.428814 -19.329163 -8.371412,
				 -9.987204 -31.274689 -8.371412,
				 -10.257604 -31.646862 -9.867128,
				 10.606142 -31.646860 -9.867128,
				 10.335742 -31.274687 -8.371412,
				 26.777349 -19.329157 -8.371412,
				 27.047749 -19.701330 -9.867128,
				 54.592262 39.663609 -28.287363,
				 54.592262 39.663609 -26.208956,
				 54.592262 39.663609 -28.287363,
				 -54.592270 39.663601 -28.287363,
				 -54.592270 39.663601 -26.208956,
				 -54.592270 39.663601 -28.287363,
				 -54.592262 -39.663601 -28.287363,
				 -54.592262 -39.663601 -26.208956,
				 -54.592262 -39.663601 -28.287363,
				 54.592270 -39.663586 -28.287363,
				 54.592270 -39.663586 -26.208956,
				 54.592270 -39.663586 -28.287363,
				 54.592262 39.663609 -28.287363,
				 67.479752 0.000008 -28.287363,
				 54.592262 39.663609 -28.287363,
				 20.852385 64.177063 -28.287363,
				 54.592262 39.663609 -28.287363,
				 20.852385 64.177063 -28.287363,
				 -20.852398 64.177063 -28.287363,
				 20.852385 64.177063 -28.287363,
				 -20.852398 64.177063 -28.287363,
				 -54.592270 39.663601 -28.287363,
				 -20.852398 64.177063 -28.287363,
				 -54.592270 39.663601 -28.287363,
				 -67.479752 0.000002 -28.287363,
				 -54.592270 39.663601 -28.287363,
				 -67.479752 0.000002 -28.287363,
				 -54.592262 -39.663601 -28.287363,
				 -67.479752 0.000002 -28.287363,
				 -54.592262 -39.663601 -28.287363,
				 -20.852386 -64.177063 -28.287363,
				 -54.592262 -39.663601 -28.287363,
				 -20.852386 -64.177063 -28.287363,
				 20.852396 -64.177048 -28.287363,
				 -20.852386 -64.177063 -28.287363,
				 20.852396 -64.177048 -28.287363,
				 54.592270 -39.663586 -28.287363,
				 20.852396 -64.177048 -28.287363,
				 54.592270 -39.663586 -28.287363,
				 67.479752 0.000008 -28.287363,
				 54.592270 -39.663586 -28.287363,
				 67.479752 0.000008 -28.287363,
				 54.592262 39.663609 -22.241154,
				 54.592262 39.663609 -22.241154,
				 67.479752 0.000008 -22.241154,
				 54.592262 39.663609 -26.208956,
				 20.852385 64.177063 -22.241154,
				 20.852385 64.177063 -22.241154,
				 54.592262 39.663609 -22.241154,
				 54.592262 39.663609 -26.208956,
				 -20.852398 64.177063 -22.241154,
				 -20.852398 64.177063 -22.241154,
				 20.852385 64.177063 -22.241154,
				 -54.592270 39.663601 -22.241154,
				 -54.592270 39.663601 -22.241154,
				 -20.852398 64.177063 -22.241154,
				 -54.592270 39.663601 -26.208956,
				 -67.479752 0.000002 -22.241154,
				 -67.479752 0.000002 -22.241154,
				 -54.592270 39.663601 -22.241154,
				 -54.592270 39.663601 -26.208956,
				 -54.592262 -39.663601 -22.241154,
				 -54.592262 -39.663601 -22.241154,
				 -67.479752 0.000002 -22.241154,
				 -54.592262 -39.663601 -26.208956,
				 -20.852386 -64.177063 -22.241154,
				 -20.852386 -64.177063 -22.241154,
				 -54.592262 -39.663601 -22.241154,
				 -54.592262 -39.663601 -26.208956,
				 20.852396 -64.177048 -22.241154,
				 20.852396 -64.177048 -22.241154,
				 -20.852386 -64.177063 -22.241154,
				 54.592270 -39.663586 -22.241154,
				 54.592270 -39.663586 -22.241154,
				 20.852396 -64.177048 -22.241154,
				 54.592270 -39.663586 -26.208956,
				 67.479752 0.000008 -22.241154,
				 67.479752 0.000008 -22.241154,
				 54.592270 -39.663586 -22.241154,
				 54.592270 -39.663586 -26.208956,
				 48.687424 35.373493 -26.208956,
				 60.180969 0.000008 -26.208956,
				 60.180969 0.000008 -22.241154,
				 60.180969 0.000008 -22.241154,
				 48.687424 35.373493 -22.241154,
				 48.687424 35.373493 -26.208956,
				 60.180969 0.000008 -26.208956,
				 48.687431 -35.373474 -26.208956,
				 48.687431 -35.373474 -22.241154,
				 48.687431 -35.373474 -22.241154,
				 60.180969 0.000008 -22.241154,
				 60.180969 0.000008 -26.208956,
				 48.687431 -35.373474 -26.208956,
				 18.596947 -57.235497 -26.208956,
				 18.596947 -57.235497 -22.241154,
				 18.596947 -57.235497 -22.241154,
				 48.687431 -35.373474 -22.241154,
				 48.687431 -35.373474 -26.208956,
				 18.596947 -57.235497 -26.208956,
				 -18.596941 -57.235504 -26.208956,
				 -18.596941 -57.235504 -22.241154,
				 -18.596941 -57.235504 -22.241154,
				 18.596947 -57.235497 -22.241154,
				 18.596947 -57.235497 -26.208956,
				 -18.596941 -57.235504 -26.208956,
				 -48.687431 -35.373486 -26.208956,
				 -48.687431 -35.373486 -22.241154,
				 -48.687431 -35.373486 -22.241154,
				 -18.596941 -57.235504 -22.241154,
				 -18.596941 -57.235504 -26.208956,
				 -48.687431 -35.373486 -26.208956,
				 -60.180977 0.000002 -26.208956,
				 -60.180977 0.000002 -22.241154,
				 -60.180977 0.000002 -22.241154,
				 -48.687431 -35.373486 -22.241154,
				 -48.687431 -35.373486 -26.208956,
				 -60.180977 0.000002 -26.208956,
				 -48.687431 35.373486 -26.208956,
				 -48.687431 35.373486 -22.241154,
				 -48.687431 35.373486 -22.241154,
				 -60.180977 0.000002 -22.241154,
				 -60.180977 0.000002 -26.208956,
				 -48.687431 35.373486 -26.208956,
				 -18.596951 57.235508 -26.208956,
				 -18.596951 57.235508 -22.241154,
				 -18.596951 57.235508 -22.241154,
				 -48.687431 35.373486 -22.241154,
				 -48.687431 35.373486 -26.208956,
				 -18.596951 57.235508 -26.208956,
				 18.596937 57.235508 -26.208956,
				 18.596937 57.235508 -22.241154,
				 18.596937 57.235508 -22.241154,
				 -18.596951 57.235508 -22.241154,
				 -18.596951 57.235508 -26.208956,
				 18.596937 57.235508 -26.208956,
				 48.687424 35.373493 -26.208956,
				 48.687424 35.373493 -22.241154,
				 48.687424 35.373493 -22.241154,
				 18.596937 57.235508 -22.241154,
				 18.596937 57.235508 -26.208956,
				 38.345123 23.085979 -27.092642,
				 27.214863 19.469540 -9.867128,
				 38.345123 23.085979 -27.092642,
				 26.777348 19.327381 -0.775883,
				 33.057484 -0.000891 -0.775883,
				 38.345123 23.085979 -18.678509,
				 26.777348 19.327381 -0.775883,
				 33.057484 -0.000891 -0.775883,
				 33.057484 -0.000891 -8.371412,
				 33.494999 0.141266 -9.867128,
				 33.057484 -0.000891 -0.775883,
				 33.494999 0.141266 -9.867128,
				 44.625259 3.757706 -27.092642,
				 33.057484 -0.000891 -0.775883,
				 44.625259 3.757706 -27.092642,
				 44.625259 3.757706 -18.678509,
				 -9.987210 31.272907 -8.371412,
				 -9.987210 31.272907 -0.775883,
				 -9.987210 31.272907 -8.371412,
				 -9.987210 43.435986 -27.092642,
				 -9.987210 31.732937 -9.867128,
				 -9.987210 31.272907 -8.371412,
				 -9.987210 43.435986 -27.092642,
				 -9.987210 31.272907 -0.775883,
				 10.335736 31.272907 -0.775883,
				 -9.987210 43.435986 -18.678509,
				 -9.987210 31.272907 -0.775883,
				 10.335736 31.272907 -0.775883,
				 10.335736 31.272907 -8.371412,
				 10.335736 31.732937 -9.867128,
				 10.335736 31.272907 -0.775883,
				 10.335736 31.732937 -9.867128,
				 10.335736 43.435986 -27.092642,
				 10.335736 31.272907 -0.775883,
				 10.335736 43.435986 -27.092642,
				 10.335736 43.435986 -18.678509,
				 -32.708946 -0.000893 -8.371412,
				 -32.708946 -0.000893 -0.775883,
				 -32.708946 -0.000893 -8.371412,
				 -44.276726 3.757702 -27.092642,
				 -33.146461 0.141264 -9.867128,
				 -32.708946 -0.000893 -8.371412,
				 -44.276726 3.757702 -27.092642,
				 -32.708946 -0.000893 -0.775883,
				 -26.428816 19.327374 -0.775883,
				 -44.276726 3.757702 -18.678509,
				 -32.708946 -0.000893 -0.775883,
				 -26.866333 19.469532 -9.867128,
				 -26.866333 19.469532 -9.867128,
				 -37.996590 23.085972 -27.092642,
				 -37.996590 23.085972 -27.092642,
				 -37.996590 23.085972 -18.678509,
				 -9.987204 -31.274689 -8.371412,
				 -9.987204 -31.274689 -0.775883,
				 -9.987204 -31.274689 -8.371412,
				 -17.136480 -41.114822 -27.092642,
				 -10.257604 -31.646862 -9.867128,
				 -9.987204 -31.274689 -8.371412,
				 -17.136480 -41.114822 -27.092642,
				 -9.987204 -31.274689 -0.775883,
				 -26.428814 -19.329163 -0.775883,
				 -17.136480 -41.114822 -18.678509,
				 -9.987204 -31.274689 -0.775883,
				 -26.699213 -19.701336 -9.867128,
				 -26.699213 -19.701336 -9.867128,
				 -33.578087 -29.169298 -27.092642,
				 -33.578087 -29.169298 -27.092642,
				 -33.578087 -29.169298 -18.678509,
				 33.926624 -29.169289 -27.092642,
				 27.047749 -19.701330 -9.867128,
				 33.926624 -29.169289 -27.092642,
				 26.777349 -19.329157 -0.775883,
				 10.335742 -31.274687 -0.775883,
				 33.926624 -29.169289 -18.678509,
				 26.777349 -19.329157 -0.775883,
				 10.335742 -31.274687 -0.775883,
				 10.335742 -31.274687 -8.371412,
				 10.606142 -31.646860 -9.867128,
				 10.335742 -31.274687 -0.775883,
				 10.606142 -31.646860 -9.867128,
				 17.485020 -41.114815 -27.092642,
				 10.335742 -31.274687 -0.775883,
				 17.485020 -41.114815 -27.092642,
				 17.485020 -41.114815 -18.678509,
				 38.345123 23.085979 -27.092642,
				 40.890030 23.912868 -26.165045,
				 38.345123 23.085979 -27.092642,
				 38.345123 23.085979 -18.678509,
				 40.890030 23.912868 -17.750912,
				 38.345123 23.085979 -18.678509,
				 44.625259 3.757706 -18.678509,
				 44.625259 3.757706 -27.092642,
				 47.170166 4.584599 -26.165045,
				 47.170166 4.584599 -26.165045,
				 47.170166 4.584599 -17.750912,
				 44.625259 3.757706 -18.678509,
				 -9.987210 43.435986 -27.092642,
				 -9.987210 46.111851 -26.165045,
				 -9.987210 43.435986 -27.092642,
				 -9.987210 43.435986 -18.678509,
				 -9.987210 46.111851 -17.750912,
				 -9.987210 43.435986 -18.678509,
				 10.335736 43.435986 -18.678509,
				 10.335736 43.435986 -27.092642,
				 10.335736 46.111851 -26.165045,
				 10.335736 46.111851 -26.165045,
				 10.335736 46.111851 -17.750912,
				 10.335736 43.435986 -18.678509,
				 -44.276726 3.757702 -27.092642,
				 -46.821632 4.584591 -26.165045,
				 -44.276726 3.757702 -27.092642,
				 -44.276726 3.757702 -18.678509,
				 -46.821632 4.584591 -17.750912,
				 -44.276726 3.757702 -18.678509,
				 -37.996590 23.085972 -18.678509,
				 -37.996590 23.085972 -27.092642,
				 -40.541496 23.912868 -26.165045,
				 -40.541496 23.912868 -26.165045,
				 -40.541496 23.912868 -17.750912,
				 -37.996590 23.085972 -18.678509,
				 -17.136480 -41.114822 -27.092642,
				 -18.709320 -43.279655 -26.165045,
				 -17.136480 -41.114822 -27.092642,
				 -17.136480 -41.114822 -18.678509,
				 -18.709320 -43.279655 -17.750912,
				 -17.136480 -41.114822 -18.678509,
				 -33.578087 -29.169298 -18.678509,
				 -33.578087 -29.169298 -27.092642,
				 -35.150925 -31.334129 -26.165045,
				 -35.150925 -31.334129 -26.165045,
				 -35.150925 -31.334129 -17.750912,
				 -33.578087 -29.169298 -18.678509,
				 33.926624 -29.169289 -27.092642,
				 35.499466 -31.334120 -26.165045,
				 33.926624 -29.169289 -27.092642,
				 33.926624 -29.169289 -18.678509,
				 35.499466 -31.334120 -17.750912,
				 33.926624 -29.169289 -18.678509,
				 17.485020 -41.114815 -18.678509,
				 17.485020 -41.114815 -27.092642,
				 19.057859 -43.279644 -26.165045,
				 19.057859 -43.279644 -26.165045,
				 19.057859 -43.279644 -17.750912,
				 17.485020 -41.114815 -18.678509,
				 40.890030 23.912868 -26.165045,
				 45.776260 25.500500 -26.165045,
				 40.890030 23.912868 -26.165045,
				 40.890030 23.912868 -17.750912,
				 45.776260 25.500500 -17.750912,
				 40.890030 23.912868 -17.750912,
				 47.170166 4.584599 -17.750912,
				 47.170166 4.584599 -26.165045,
				 52.056396 6.172230 -26.165045,
				 52.056396 6.172230 -26.165045,
				 52.056396 6.172230 -17.750912,
				 47.170166 4.584599 -17.750912,
				 -9.987210 46.111851 -26.165045,
				 -9.987210 51.249538 -26.165045,
				 -9.987210 46.111851 -26.165045,
				 -9.987210 46.111851 -17.750912,
				 -9.987210 51.249538 -17.750912,
				 -9.987210 46.111851 -17.750912,
				 10.335736 46.111851 -17.750912,
				 10.335736 46.111851 -26.165045,
				 10.335736 51.249538 -26.165045,
				 10.335736 51.249538 -26.165045,
				 10.335736 51.249538 -17.750912,
				 10.335736 46.111851 -17.750912,
				 -46.821632 4.584591 -26.165045,
				 -51.707863 6.172222 -26.165045,
				 -46.821632 4.584591 -26.165045,
				 -46.821632 4.584591 -17.750912,
				 -51.707863 6.172222 -17.750912,
				 -46.821632 4.584591 -17.750912,
				 -40.541496 23.912868 -17.750912,
				 -40.541496 23.912868 -26.165045,
				 -45.427727 25.500500 -26.165045,
				 -45.427727 25.500500 -26.165045,
				 -45.427727 25.500500 -17.750912,
				 -40.541496 23.912868 -17.750912,
				 -18.709320 -43.279655 -26.165045,
				 -21.729174 -47.436131 -26.165045,
				 -18.709320 -43.279655 -26.165045,
				 -18.709320 -43.279655 -17.750912,
				 -21.729174 -47.436131 -17.750912,
				 -18.709320 -43.279655 -17.750912,
				 -35.150925 -31.334129 -17.750912,
				 -35.150925 -31.334129 -26.165045,
				 -38.170776 -35.490604 -26.165045,
				 -38.170776 -35.490604 -26.165045,
				 -38.170776 -35.490604 -17.750912,
				 -35.150925 -31.334129 -17.750912,
				 35.499466 -31.334120 -26.165045,
				 38.519325 -35.490593 -26.165045,
				 35.499466 -31.334120 -26.165045,
				 35.499466 -31.334120 -17.750912,
				 38.519325 -35.490593 -17.750912,
				 35.499466 -31.334120 -17.750912,
				 19.057859 -43.279644 -17.750912,
				 19.057859 -43.279644 -26.165045,
				 22.077713 -47.436119 -26.165045,
				 22.077713 -47.436119 -26.165045,
				 22.077713 -47.436119 -17.750912,
				 19.057859 -43.279644 -17.750912,
				 26.777348 19.327381 -0.775883,
				 26.777348 19.327381 3.336962,
				 26.777348 19.327381 3.336962,
				 33.057484 -0.000891 3.336962,
				 10.335736 31.272907 3.336962,
				 10.335736 31.272907 3.336962,
				 26.777348 19.327381 3.336962,
				 -9.987210 31.272907 3.336962,
				 -9.987210 31.272907 3.336962,
				 10.335736 31.272907 3.336962,
				 -26.428816 19.327374 3.336962,
				 -26.428816 19.327374 3.336962,
				 -9.987210 31.272907 3.336962,
				 -26.428816 19.327374 -0.775883,
				 -32.708946 -0.000893 3.336962,
				 -32.708946 -0.000893 3.336962,
				 -26.428816 19.327374 3.336962,
				 -26.428816 19.327374 -0.775883,
				 -26.428814 -19.329163 3.336962,
				 -26.428814 -19.329163 3.336962,
				 -32.708946 -0.000893 3.336962,
				 -26.428814 -19.329163 -0.775883,
				 -9.987204 -31.274689 3.336962,
				 -9.987204 -31.274689 3.336962,
				 -26.428814 -19.329163 3.336962,
				 -26.428814 -19.329163 -0.775883,
				 10.335742 -31.274687 3.336962,
				 10.335742 -31.274687 3.336962,
				 -9.987204 -31.274689 3.336962,
				 26.777349 -19.329157 -0.775883,
				 26.777348 -19.329157 3.336962,
				 26.777348 -19.329157 3.336962,
				 10.335742 -31.274687 3.336962,
				 33.057484 -0.000891 3.336962,
				 33.057484 -0.000891 3.336962,
				 26.777348 -19.329157 3.336962,
				 18.623501 13.403263 -0.775881,
				 22.978775 -0.000891 -0.775881,
				 22.978775 -0.000891 3.336964,
				 22.978775 -0.000891 3.336964,
				 18.623499 13.403263 3.336964,
				 18.623501 13.403263 -0.775881,
				 22.978775 -0.000891 -0.775881,
				 18.623503 -13.405043 -0.775881,
				 18.623503 -13.405043 3.336964,
				 18.623503 -13.405043 3.336964,
				 22.978775 -0.000891 3.336964,
				 22.978775 -0.000891 -0.775881,
				 18.623503 -13.405043 -0.775881,
				 7.221249 -21.689266 -0.775881,
				 7.221248 -21.689266 3.336964,
				 7.221248 -21.689266 3.336964,
				 18.623503 -13.405043 3.336964,
				 18.623503 -13.405043 -0.775881,
				 7.221249 -21.689266 -0.775881,
				 -6.872713 -21.689268 -0.775881,
				 -6.872713 -21.689268 3.336964,
				 -6.872713 -21.689268 3.336964,
				 7.221248 -21.689266 3.336964,
				 7.221249 -21.689266 -0.775881,
				 -6.872713 -21.689268 -0.775881,
				 -18.274969 -13.405046 -0.775881,
				 -18.274969 -13.405046 3.336964,
				 -18.274969 -13.405046 3.336964,
				 -6.872713 -21.689268 3.336964,
				 -6.872713 -21.689268 -0.775881,
				 -18.274969 -13.405046 -0.775881,
				 -22.630245 -0.000893 -0.775881,
				 -22.630245 -0.000893 3.336964,
				 -22.630245 -0.000893 3.336964,
				 -18.274969 -13.405046 3.336964,
				 -18.274969 -13.405046 -0.775881,
				 -22.630245 -0.000893 -0.775881,
				 -18.274971 13.403263 -0.775881,
				 -18.274971 13.403263 3.336964,
				 -18.274971 13.403263 3.336964,
				 -22.630245 -0.000893 3.336964,
				 -22.630245 -0.000893 -0.775881,
				 -18.274971 13.403263 -0.775881,
				 -6.872717 21.687489 -0.775881,
				 -6.872717 21.687489 3.336964,
				 -6.872717 21.687489 3.336964,
				 -18.274971 13.403263 3.336964,
				 -18.274971 13.403263 -0.775881,
				 -6.872717 21.687489 -0.775881,
				 7.221245 21.687489 -0.775881,
				 7.221245 21.687489 3.336964,
				 7.221245 21.687489 3.336964,
				 -6.872717 21.687489 3.336964,
				 -6.872717 21.687489 -0.775881,
				 7.221245 21.687489 -0.775881,
				 18.623501 13.403263 -0.775881,
				 18.623499 13.403263 3.336964,
				 18.623499 13.403263 3.336964,
				 7.221245 21.687489 3.336964,
				 7.221245 21.687489 -0.775881,
				 7.696864 -0.000891 -0.775881,
				 6.260175 4.420780 -0.775881,
				 7.696864 -0.000891 -0.775881,
				 6.260175 4.420780 -0.775881,
				 2.498875 7.153526 -0.775881,
				 6.260175 4.420780 10.581572,
				 6.260175 4.420780 -0.775881,
				 2.498875 7.153526 -0.775881,
				 -2.150347 7.153526 -0.775881,
				 2.498875 7.153526 -0.775881,
				 -2.150347 7.153526 -0.775881,
				 -5.911646 4.420780 -0.775881,
				 -2.150347 7.153526 -0.775881,
				 -5.911646 4.420780 -0.775881,
				 -7.348333 -0.000893 -0.775881,
				 -5.911646 4.420780 10.581572,
				 -5.911646 4.420780 -0.775881,
				 -7.348333 -0.000893 -0.775881,
				 -5.911645 -4.422564 -0.775881,
				 -7.348333 -0.000893 -0.775881,
				 -5.911645 -4.422564 -0.775881,
				 -2.150345 -7.155308 -0.775881,
				 -5.911645 -4.422564 10.581572,
				 -5.911645 -4.422564 -0.775881,
				 -2.150345 -7.155308 -0.775881,
				 2.498877 -7.155308 -0.775881,
				 -2.150345 -7.155308 -0.775881,
				 2.498877 -7.155308 -0.775881,
				 6.260176 -4.422562 -0.775881,
				 2.498877 -7.155308 -0.775881,
				 6.260176 -4.422562 -0.775881,
				 7.696864 -0.000891 -0.775881,
				 6.260176 -4.422562 10.581572,
				 6.260176 -4.422562 -0.775881,
				 14.334113 10.286846 10.581572,
				 14.334113 10.286846 12.503069,
				 14.334113 10.286846 10.581572,
				 -13.985586 10.286839 10.581579,
				 -13.985584 10.286842 12.503077,
				 -13.985586 10.286839 10.581579,
				 -13.985582 -10.288626 10.581572,
				 -13.985582 -10.288626 12.503069,
				 -13.985582 -10.288626 10.581572,
				 14.334117 -10.288622 10.581572,
				 14.334117 -10.288622 12.503069,
				 14.334117 -10.288622 10.581572,
				 7.696864 -0.000891 10.581572,
				 6.260175 4.420780 10.581572,
				 7.696864 -0.000891 10.581572,
				 6.260175 4.420780 10.581572,
				 2.498875 7.153526 10.581572,
				 6.260175 4.420780 10.581572,
				 2.498875 7.153526 10.581572,
				 -2.150347 7.153526 10.581572,
				 2.498875 7.153526 10.581572,
				 -2.150347 7.153526 10.581572,
				 -5.911646 4.420780 10.581572,
				 -2.150347 7.153526 10.581572,
				 -5.911646 4.420780 10.581572,
				 -7.348333 -0.000893 10.581572,
				 -5.911646 4.420780 10.581572,
				 -7.348333 -0.000893 10.581572,
				 -5.911645 -4.422564 10.581572,
				 -7.348333 -0.000893 10.581572,
				 -5.911645 -4.422564 10.581572,
				 -2.150345 -7.155308 10.581572,
				 -5.911645 -4.422564 10.581572,
				 -2.150345 -7.155308 10.581572,
				 2.498877 -7.155308 10.581572,
				 -2.150345 -7.155308 10.581572,
				 2.498877 -7.155308 10.581572,
				 6.260176 -4.422562 10.581572,
				 2.498877 -7.155308 10.581572,
				 6.260176 -4.422562 10.581572,
				 7.696864 -0.000891 10.581572,
				 6.260176 -4.422562 10.581572,
				 14.334113 10.286846 10.581572,
				 14.334113 10.286846 10.581572,
				 17.676800 -0.000889 10.581572,
				 5.582845 16.645008 10.581572,
				 5.582845 16.645008 10.581572,
				 14.334113 10.286846 10.581572,
				 -5.234317 16.645008 10.581572,
				 -5.234317 16.645008 10.581572,
				 5.582845 16.645008 10.581572,
				 -13.985586 10.286839 10.581579,
				 -13.985586 10.286839 10.581579,
				 -5.234317 16.645008 10.581572,
				 -17.328272 -0.000893 10.581572,
				 -17.328272 -0.000893 10.581572,
				 -13.985586 10.286839 10.581579,
				 -13.985582 -10.288626 10.581572,
				 -13.985582 -10.288626 10.581572,
				 -17.328272 -0.000893 10.581572,
				 -5.234314 -16.646791 10.581572,
				 -5.234314 -16.646791 10.581572,
				 -13.985582 -10.288626 10.581572,
				 5.582848 -16.646791 10.581572,
				 5.582848 -16.646791 10.581572,
				 -5.234314 -16.646791 10.581572,
				 14.334117 -10.288622 10.581572,
				 14.334117 -10.288622 10.581572,
				 5.582848 -16.646791 10.581572,
				 17.676800 -0.000889 10.581572,
				 17.676800 -0.000889 10.581572,
				 14.334117 -10.288622 10.581572,
				 12.153561 8.702579 12.503069,
				 14.981490 -0.000889 12.503069,
				 14.981490 -0.000889 14.618444,
				 14.981490 -0.000889 14.618444,
				 12.153561 8.702579 14.618444,
				 12.153561 8.702579 12.503069,
				 14.981490 -0.000889 12.503069,
				 12.153563 -8.704357 12.503069,
				 12.153563 -8.704357 14.618444,
				 12.153563 -8.704357 14.618444,
				 14.981490 -0.000889 14.618444,
				 14.981490 -0.000889 12.503069,
				 12.153563 -8.704357 12.503069,
				 4.749951 -14.083399 12.503069,
				 4.749951 -14.083399 14.618444,
				 4.749951 -14.083399 14.618444,
				 12.153563 -8.704357 14.618444,
				 12.153563 -8.704357 12.503069,
				 4.749951 -14.083399 12.503069,
				 -4.401418 -14.083399 12.503069,
				 -4.401418 -14.083399 14.618444,
				 -4.401418 -14.083399 14.618444,
				 4.749951 -14.083399 14.618444,
				 4.749951 -14.083399 12.503069,
				 -4.401418 -14.083399 12.503069,
				 -11.805031 -8.704361 12.503069,
				 -11.805031 -8.704361 14.618444,
				 -11.805031 -8.704361 14.618444,
				 -4.401418 -14.083399 14.618444,
				 -4.401418 -14.083399 12.503069,
				 -11.805031 -8.704361 12.503069,
				 -14.632959 -0.000893 12.503069,
				 -14.632959 -0.000893 14.618444,
				 -14.632959 -0.000893 14.618444,
				 -11.805031 -8.704361 14.618444,
				 -11.805031 -8.704361 12.503069,
				 -14.632959 -0.000893 12.503069,
				 -11.805031 8.702579 12.503069,
				 -11.805031 8.702579 14.618444,
				 -11.805031 8.702579 14.618444,
				 -14.632959 -0.000893 14.618444,
				 -14.632959 -0.000893 12.503069,
				 -11.805031 8.702579 12.503069,
				 -4.401421 14.081615 12.503069,
				 -4.401421 14.081615 14.618444,
				 -4.401421 14.081615 14.618444,
				 -11.805031 8.702579 14.618444,
				 -11.805031 8.702579 12.503069,
				 -4.401421 14.081615 12.503069,
				 4.749948 14.081615 12.503069,
				 4.749948 14.081615 14.618444,
				 4.749948 14.081615 14.618444,
				 -4.401421 14.081615 14.618444,
				 -4.401421 14.081615 12.503069,
				 4.749948 14.081615 12.503069,
				 12.153561 8.702579 12.503069,
				 12.153561 8.702579 14.618444,
				 12.153561 8.702579 14.618444,
				 4.749948 14.081615 14.618444,
				 4.749948 14.081615 12.503069,
				 14.334113 10.286846 14.618444,
				 14.334113 10.286846 14.618444,
				 17.676800 -0.000889 14.618444,
				 14.334113 10.286846 12.503069,
				 5.582845 16.645008 14.618444,
				 5.582845 16.645008 14.618444,
				 14.334113 10.286846 14.618444,
				 14.334113 10.286846 12.503069,
				 -5.234317 16.645008 14.618444,
				 -5.234317 16.645008 14.618444,
				 5.582845 16.645008 14.618444,
				 -13.985584 10.286839 14.618452,
				 -13.985584 10.286839 14.618452,
				 -5.234317 16.645008 14.618444,
				 -13.985584 10.286842 12.503077,
				 -17.328272 -0.000893 14.618444,
				 -17.328272 -0.000893 14.618444,
				 -13.985584 10.286839 14.618452,
				 -13.985584 10.286842 12.503077,
				 -13.985582 -10.288626 14.618444,
				 -13.985582 -10.288626 14.618444,
				 -17.328272 -0.000893 14.618444,
				 -13.985582 -10.288626 12.503069,
				 -5.234314 -16.646791 14.618444,
				 -5.234314 -16.646791 14.618444,
				 -13.985582 -10.288626 14.618444,
				 -13.985582 -10.288626 12.503069,
				 5.582848 -16.646791 14.618444,
				 5.582848 -16.646791 14.618444,
				 -5.234314 -16.646791 14.618444,
				 14.334117 -10.288622 14.618444,
				 14.334117 -10.288622 14.618444,
				 5.582848 -16.646791 14.618444,
				 14.334117 -10.288622 12.503069,
				 17.676800 -0.000889 14.618444,
				 17.676800 -0.000889 14.618444,
				 14.334117 -10.288622 14.618444,
				 14.334117 -10.288622 12.503069,
				 4.028336 -0.000891 17.738016,
				 4.028336 -0.000891 15.856550,
				 3.292274 2.264477 15.856550,
				 3.292274 2.264477 15.856550,
				 3.292274 2.264477 17.738016,
				 4.028336 -0.000891 17.738016,
				 3.292274 2.264477 17.738016,
				 3.292274 2.264477 15.856550,
				 1.365238 3.664547 15.856550,
				 1.365238 3.664547 15.856550,
				 1.365238 3.664547 17.738016,
				 3.292274 2.264477 17.738016,
				 1.365238 3.664547 17.738016,
				 1.365238 3.664547 15.856550,
				 -1.016709 3.664547 15.856550,
				 -1.016709 3.664547 15.856550,
				 -1.016709 3.664547 17.738016,
				 1.365238 3.664547 17.738016,
				 -1.016709 3.664547 17.738016,
				 -1.016709 3.664547 15.856550,
				 -2.943744 2.264477 15.856550,
				 -2.943744 2.264477 15.856550,
				 -2.943744 2.264477 17.738016,
				 -1.016709 3.664547 17.738016,
				 -2.943744 2.264477 17.738016,
				 -2.943744 2.264477 15.856550,
				 -3.679806 -0.000891 15.856550,
				 -3.679806 -0.000891 15.856550,
				 -3.679806 -0.000891 17.738016,
				 -2.943744 2.264477 17.738016,
				 -3.679806 -0.000891 17.738016,
				 -3.679806 -0.000891 15.856550,
				 -2.943744 -2.266258 15.856550,
				 -2.943744 -2.266258 15.856550,
				 -2.943744 -2.266258 17.738016,
				 -3.679806 -0.000891 17.738016,
				 -2.943744 -2.266258 17.738016,
				 -2.943744 -2.266258 15.856550,
				 -1.016708 -3.666330 15.856550,
				 -1.016708 -3.666330 15.856550,
				 -1.016708 -3.666330 17.738016,
				 -2.943744 -2.266258 17.738016,
				 -1.016708 -3.666330 17.738016,
				 -1.016708 -3.666330 15.856550,
				 1.365239 -3.666330 15.856550,
				 1.365239 -3.666330 15.856550,
				 1.365239 -3.666330 17.738016,
				 -1.016708 -3.666330 17.738016,
				 1.365239 -3.666330 17.738016,
				 1.365239 -3.666330 15.856550,
				 3.292275 -2.266256 15.856550,
				 3.292275 -2.266256 15.856550,
				 3.292275 -2.266256 17.738016,
				 1.365239 -3.666330 17.738016,
				 3.292275 -2.266256 17.738016,
				 3.292275 -2.266256 15.856550,
				 4.028336 -0.000891 15.856550,
				 4.028336 -0.000891 15.856550,
				 4.028336 -0.000891 17.738016,
				 3.292275 -2.266256 17.738016,
				 51.261650 27.282810 -26.165045,
				 51.261650 27.282810 -26.165045,
				 57.541786 7.954540 -26.165045,
				 45.776260 25.500500 -26.165045,
				 51.261650 27.282803 -22.091713,
				 51.261650 27.282803 -22.091713,
				 51.261650 27.282810 -26.165045,
				 45.776260 25.500500 -26.165045,
				 45.776260 25.500500 -17.750912,
				 57.541786 7.954540 -22.091713,
				 57.541786 7.954540 -22.091713,
				 51.261650 27.282803 -22.091713,
				 45.776260 25.500500 -17.750912,
				 52.056396 6.172230 -17.750912,
				 52.056396 6.172230 -26.165045,
				 57.541786 7.954540 -26.165045,
				 57.541786 7.954540 -26.165045,
				 57.541786 7.954540 -22.091713,
				 52.056396 6.172230 -17.750912,
				 -9.987210 57.017216 -26.165045,
				 -9.987210 57.017216 -26.165045,
				 10.335736 57.017216 -26.165045,
				 -9.987210 51.249538 -26.165045,
				 -9.987210 57.017216 -22.091713,
				 -9.987210 57.017216 -22.091713,
				 -9.987210 57.017216 -26.165045,
				 -9.987210 51.249538 -26.165045,
				 -9.987210 51.249538 -17.750912,
				 10.335736 57.017216 -22.091713,
				 10.335736 57.017216 -22.091713,
				 -9.987210 57.017216 -22.091713,
				 -9.987210 51.249538 -17.750912,
				 10.335736 51.249538 -17.750912,
				 10.335736 51.249538 -26.165045,
				 10.335736 57.017216 -26.165045,
				 10.335736 57.017216 -26.165045,
				 10.335736 57.017216 -22.091713,
				 10.335736 51.249538 -17.750912,
				 -57.193245 7.954533 -26.165045,
				 -57.193245 7.954533 -26.165045,
				 -50.913116 27.282803 -26.165045,
				 -51.707863 6.172222 -26.165045,
				 -57.193245 7.954533 -22.091713,
				 -57.193245 7.954533 -22.091713,
				 -57.193245 7.954533 -26.165045,
				 -51.707863 6.172222 -26.165045,
				 -51.707863 6.172222 -17.750912,
				 -50.913109 27.282803 -22.091713,
				 -50.913109 27.282803 -22.091713,
				 -57.193245 7.954533 -22.091713,
				 -51.707863 6.172222 -17.750912,
				 -45.427727 25.500500 -17.750912,
				 -45.427727 25.500500 -26.165045,
				 -50.913116 27.282803 -26.165045,
				 -50.913116 27.282803 -26.165045,
				 -50.913109 27.282803 -22.091713,
				 -45.427727 25.500500 -17.750912,
				 -25.119331 -52.102272 -26.165045,
				 -25.119331 -52.102272 -26.165045,
				 -41.560936 -40.156754 -26.165045,
				 -21.729174 -47.436131 -26.165045,
				 -25.119331 -52.102272 -22.091713,
				 -25.119331 -52.102272 -22.091713,
				 -25.119331 -52.102272 -26.165045,
				 -21.729174 -47.436131 -26.165045,
				 -21.729174 -47.436131 -17.750912,
				 -41.560936 -40.156754 -22.091713,
				 -41.560936 -40.156754 -22.091713,
				 -25.119331 -52.102272 -22.091713,
				 -21.729174 -47.436131 -17.750912,
				 -38.170776 -35.490604 -17.750912,
				 -38.170776 -35.490604 -26.165045,
				 -41.560936 -40.156754 -26.165045,
				 -41.560936 -40.156754 -26.165045,
				 -41.560936 -40.156754 -22.091713,
				 -38.170776 -35.490604 -17.750912,
				 41.909477 -40.156742 -26.165045,
				 41.909477 -40.156742 -26.165045,
				 25.467867 -52.102264 -26.165045,
				 38.519325 -35.490593 -26.165045,
				 41.909477 -40.156742 -22.091713,
				 41.909477 -40.156742 -22.091713,
				 41.909477 -40.156742 -26.165045,
				 38.519325 -35.490593 -26.165045,
				 38.519325 -35.490593 -17.750912,
				 25.467867 -52.102264 -22.091713,
				 25.467867 -52.102264 -22.091713,
				 41.909477 -40.156742 -22.091713,
				 38.519325 -35.490593 -17.750912,
				 22.077713 -47.436119 -17.750912,
				 22.077713 -47.436119 -26.165045,
				 25.467867 -52.102264 -26.165045,
				 25.467867 -52.102264 -26.165045,
				 25.467867 -52.102264 -22.091713,
				 22.077713 -47.436119 -17.750912,
				 4.031300 2.801411 18.573053,
				 4.941823 -0.000891 18.573053,
				 4.031300 2.801411 18.573053,
				 1.647521 4.533329 18.573053,
				 3.912612 2.715176 24.398962,
				 3.912612 2.715176 24.398962,
				 4.031300 2.801411 18.573053,
				 1.647521 4.533329 18.573053,
				 -1.298992 4.533329 18.573053,
				 1.647521 4.533329 18.573053,
				 -1.298992 4.533329 18.573053,
				 -3.682771 2.801411 18.573053,
				 -1.298992 4.533329 18.573053,
				 -3.682771 2.801411 18.573053,
				 -4.593293 -0.000891 18.573053,
				 -3.564082 2.715176 24.398962,
				 -3.564082 2.715176 24.398962,
				 -3.682771 2.801411 18.573053,
				 -4.593293 -0.000891 18.573053,
				 -3.682770 -2.803192 18.573053,
				 -4.593293 -0.000891 18.573053,
				 -3.682770 -2.803192 18.573053,
				 -1.298991 -4.535107 18.573053,
				 -3.564082 -2.716959 24.398962,
				 -3.564082 -2.716959 24.398962,
				 -3.682770 -2.803192 18.573053,
				 -1.298991 -4.535107 18.573053,
				 1.647522 -4.535107 18.573053,
				 -1.298991 -4.535107 18.573053,
				 1.647522 -4.535107 18.573053,
				 4.031301 -2.803190 18.573053,
				 1.647522 -4.535107 18.573053,
				 4.031301 -2.803190 18.573053,
				 4.941823 -0.000891 18.573053,
				 3.912613 -2.716957 24.398962,
				 3.912613 -2.716957 24.398962,
				 4.031301 -2.803190 18.573053,
				 4.941823 -0.000891 18.573053,
				 4.795116 -0.000891 24.398962,
				 3.912612 2.715176 24.398962,
				 3.912612 2.715176 24.398962,
				 3.912612 2.715176 24.398962,
				 1.602186 4.393803 24.398962,
				 1.602186 4.393803 24.398962,
				 1.602186 4.393803 24.398962,
				 -1.253657 4.393803 24.398962,
				 -1.253657 4.393803 24.398962,
				 -1.253657 4.393803 24.398962,
				 -3.564082 2.715176 24.398962,
				 -3.564082 2.715176 24.398962,
				 -3.564082 2.715176 24.398962,
				 -4.446587 -0.000891 24.398962,
				 -4.446587 -0.000891 24.398962,
				 -4.446587 -0.000891 24.398962,
				 -3.564082 -2.716959 24.398962,
				 -3.564082 -2.716959 24.398962,
				 -3.564082 -2.716959 24.398962,
				 -1.253656 -4.395582 24.398962,
				 -1.253656 -4.395582 24.398962,
				 -1.253656 -4.395582 24.398962,
				 1.602187 -4.395580 24.398962,
				 1.602187 -4.395580 24.398962,
				 1.602187 -4.395580 24.398962,
				 3.912613 -2.716957 24.398962,
				 3.912613 -2.716957 24.398962,
				 3.912613 -2.716957 24.398962,
				 4.795116 -0.000891 24.398962,
				 4.795116 -0.000891 24.398962,
				 1.893369 -0.000893 28.087362,
				 1.565049 1.009571 28.087362,
				 1.565049 1.009571 28.287363,
				 1.565049 1.009571 28.287363,
				 1.893369 -0.000893 28.287363,
				 1.893369 -0.000893 28.087362,
				 1.565049 1.009571 28.087362,
				 0.705497 1.634075 28.087362,
				 0.705497 1.634075 28.287363,
				 0.705497 1.634075 28.287363,
				 1.565049 1.009571 28.287363,
				 1.565049 1.009571 28.087362,
				 0.705497 1.634075 28.087362,
				 -0.356968 1.634075 28.087362,
				 -0.356968 1.634075 28.287363,
				 -0.356968 1.634075 28.287363,
				 0.705497 1.634075 28.287363,
				 0.705497 1.634075 28.087362,
				 -0.356968 1.634075 28.087362,
				 -1.216519 1.009571 28.087362,
				 -1.216519 1.009571 28.287363,
				 -1.216519 1.009571 28.287363,
				 -0.356968 1.634075 28.287363,
				 -0.356968 1.634075 28.087362,
				 -1.216519 1.009571 28.087362,
				 -1.544838 -0.000891 28.087362,
				 -1.544838 -0.000891 28.287363,
				 -1.544838 -0.000891 28.287363,
				 -1.216519 1.009571 28.287363,
				 -1.216519 1.009571 28.087362,
				 -1.544838 -0.000891 28.087362,
				 -1.216519 -1.011354 28.087362,
				 -1.216519 -1.011354 28.287363,
				 -1.216519 -1.011354 28.287363,
				 -1.544838 -0.000891 28.287363,
				 -1.544838 -0.000891 28.087362,
				 -1.216519 -1.011354 28.087362,
				 -0.356967 -1.635857 28.087362,
				 -0.356967 -1.635857 28.287363,
				 -0.356967 -1.635857 28.287363,
				 -1.216519 -1.011354 28.287363,
				 -1.216519 -1.011354 28.087362,
				 -0.356967 -1.635857 28.087362,
				 0.705498 -1.635855 28.087362,
				 0.705498 -1.635855 28.287363,
				 0.705498 -1.635855 28.287363,
				 -0.356967 -1.635857 28.287363,
				 -0.356967 -1.635857 28.087362,
				 0.705498 -1.635855 28.087362,
				 1.565049 -1.011354 28.087362,
				 1.565049 -1.011354 28.287363,
				 1.565049 -1.011354 28.287363,
				 0.705498 -1.635855 28.287363,
				 0.705498 -1.635855 28.087362,
				 1.565049 -1.011354 28.087362,
				 1.893369 -0.000893 28.087362,
				 1.893369 -0.000893 28.287363,
				 1.893369 -0.000893 28.287363,
				 1.565049 -1.011354 28.287363,
				 1.565049 -1.011354 28.087362,
				 32.196754 -0.000891 -9.190016,
				 33.494999 0.141266 -9.867128,
				 33.057484 -0.000891 -8.371412,
				 26.081001 18.821453 -9.190016,
				 27.214863 19.469540 -9.867128,
				 10.069756 30.454304 -9.190016,
				 10.335736 31.732937 -9.867128,
				 10.335736 31.272907 -8.371412,
				 -9.721229 30.454304 -9.190016,
				 -9.987210 31.272907 -8.371412,
				 -9.987210 31.732937 -9.867128,
				 -25.732470 18.821453 -9.190016,
				 -26.866333 19.469532 -9.867128,
				 -31.848221 -0.000893 -9.190016,
				 -32.708946 -0.000893 -8.371412,
				 -33.146461 0.141264 -9.867128,
				 -25.732468 -18.823238 -9.190016,
				 -26.699213 -19.701336 -9.867128,
				 -26.428814 -19.329163 -8.371412,
				 -9.721224 -30.456085 -9.190016,
				 -9.987204 -31.274689 -8.371412,
				 -10.257604 -31.646862 -9.867128,
				 10.069761 -30.456083 -9.190016,
				 10.606142 -31.646860 -9.867128,
				 10.335742 -31.274687 -8.371412,
				 26.081003 -18.823233 -9.190016,
				 26.777349 -19.329157 -8.371412,
				 27.047749 -19.701330 -9.867128,
				 10.335736 31.272907 -8.371412,
				 26.777348 19.327381 -8.371412,
				 26.777348 19.327381 -8.371412,
				 -26.428816 19.327374 -8.371412,
				 -9.987210 31.272907 -8.371412,
				 -9.987210 31.272907 -8.371412,
				 -26.428814 -19.329163 -8.371412,
				 -32.708946 -0.000893 -8.371412,
				 -32.708946 -0.000893 -8.371412,
				 10.335742 -31.274687 -8.371412,
				 -9.987204 -31.274689 -8.371412,
				 -9.987204 -31.274689 -8.371412,
				 33.057484 -0.000891 -8.371412,
				 26.777349 -19.329157 -8.371412,
				 26.777349 -19.329157 -8.371412,
			]
		}
		USE Grey

		IndexedFaceSet {
			coordIndex [
				 0, 1, 11, -1,
				 10, 0, 11, -1,
				 362, 2, 12, -1,
				 12, 363, 364, -1,
				 2, 3, 13, -1,
				 13, 12, 2, -1,
				 3, 4, 14, -1,
				 14, 13, 3, -1,
				 365, 5, 15, -1,
				 15, 366, 367, -1,
				 5, 6, 16, -1,
				 16, 15, 5, -1,
				 368, 7, 17, -1,
				 17, 369, 370, -1,
				 7, 8, 18, -1,
				 18, 17, 7, -1,
				 8, 9, 19, -1,
				 19, 18, 8, -1,
				 371, 0, 10, -1,
				 10, 372, 373, -1,
				 374, 375, 20, -1,
				 20, 21, 376, -1,
				 377, 378, 21, -1,
				 21, 22, 379, -1,
				 380, 381, 22, -1,
				 22, 23, 382, -1,
				 383, 384, 23, -1,
				 23, 24, 385, -1,
				 386, 387, 24, -1,
				 24, 25, 388, -1,
				 389, 390, 25, -1,
				 25, 26, 391, -1,
				 392, 393, 26, -1,
				 26, 27, 394, -1,
				 395, 396, 27, -1,
				 27, 28, 397, -1,
				 398, 399, 28, -1,
				 28, 29, 400, -1,
				 401, 402, 29, -1,
				 29, 20, 403, -1,
				 21, 20, 30, -1,
				 22, 21, 30, -1,
				 23, 22, 30, -1,
				 24, 23, 30, -1,
				 25, 24, 30, -1,
				 26, 25, 30, -1,
				 27, 26, 30, -1,
				 28, 27, 30, -1,
				 29, 28, 30, -1,
				 20, 29, 30, -1,
				 31, 32, 41, -1,
				 41, 42, 31, -1,
				 32, 33, 50, -1,
				 50, 41, 32, -1,
				 33, 34, 49, -1,
				 49, 50, 33, -1,
				 34, 35, 48, -1,
				 48, 49, 34, -1,
				 35, 36, 47, -1,
				 47, 48, 35, -1,
				 36, 37, 46, -1,
				 46, 47, 36, -1,
				 37, 38, 45, -1,
				 45, 46, 37, -1,
				 38, 39, 44, -1,
				 44, 45, 38, -1,
				 39, 40, 43, -1,
				 43, 44, 39, -1,
				 40, 31, 42, -1,
				 42, 43, 40, -1,
				 10, 11, 404, -1,
				 405, 406, 10, -1,
				 407, 12, 408, -1,
				 409, 410, 411, -1,
				 12, 13, 412, -1,
				 413, 414, 12, -1,
				 13, 14, 415, -1,
				 416, 417, 13, -1,
				 418, 15, 419, -1,
				 420, 421, 422, -1,
				 15, 16, 423, -1,
				 424, 425, 15, -1,
				 426, 17, 427, -1,
				 428, 429, 430, -1,
				 17, 18, 431, -1,
				 432, 433, 17, -1,
				 18, 19, 434, -1,
				 435, 436, 18, -1,
				 437, 10, 438, -1,
				 439, 440, 441, -1,
				 442, 443, 444, -1,
				 445, 446, 447, -1,
				 448, 449, 450, -1,
				 451, 452, 453, -1,
				 454, 455, 456, -1,
				 457, 458, 459, -1,
				 460, 461, 462, -1,
				 463, 464, 465, -1,
				 466, 467, 468, -1,
				 469, 470, 471, -1,
				 472, 473, 474, -1,
				 475, 476, 477, -1,
				 478, 479, 480, -1,
				 481, 482, 483, -1,
				 484, 485, 486, -1,
				 487, 488, 489, -1,
				 490, 491, 492, -1,
				 493, 494, 495, -1,
				 496, 497, 498, -1,
				 499, 500, 501, -1,
				 51, 53, 52, -1,
				 51, 54, 53, -1,
				 51, 55, 54, -1,
				 51, 56, 55, -1,
				 51, 57, 56, -1,
				 51, 58, 57, -1,
				 51, 59, 58, -1,
				 51, 60, 59, -1,
				 51, 61, 60, -1,
				 51, 52, 61, -1,
				 52, 53, 63, -1,
				 63, 62, 52, -1,
				 53, 54, 64, -1,
				 64, 63, 53, -1,
				 54, 55, 65, -1,
				 65, 64, 54, -1,
				 55, 56, 66, -1,
				 66, 65, 55, -1,
				 56, 57, 67, -1,
				 67, 66, 56, -1,
				 57, 58, 68, -1,
				 68, 67, 57, -1,
				 58, 59, 69, -1,
				 69, 68, 58, -1,
				 59, 60, 70, -1,
				 70, 69, 59, -1,
				 60, 61, 71, -1,
				 71, 70, 60, -1,
				 61, 52, 62, -1,
				 62, 71, 61, -1,
				 290, 291, 292, -1,
				 292, 293, 290, -1,
				 344, 347, 74, -1,
				 74, 73, 344, -1,
				 294, 295, 296, -1,
				 296, 297, 294, -1,
				 348, 351, 76, -1,
				 76, 75, 348, -1,
				 298, 299, 300, -1,
				 300, 301, 298, -1,
				 352, 355, 78, -1,
				 78, 77, 352, -1,
				 302, 303, 304, -1,
				 304, 305, 302, -1,
				 356, 359, 80, -1,
				 80, 79, 356, -1,
				 306, 307, 308, -1,
				 308, 309, 306, -1,
				 360, 343, 72, -1,
				 72, 81, 360, -1,
				 153, 154, 163, -1,
				 163, 164, 153, -1,
				 154, 155, 172, -1,
				 172, 163, 154, -1,
				 155, 156, 171, -1,
				 171, 172, 155, -1,
				 156, 157, 170, -1,
				 170, 171, 156, -1,
				 157, 158, 169, -1,
				 169, 170, 157, -1,
				 158, 159, 168, -1,
				 168, 169, 158, -1,
				 159, 160, 167, -1,
				 167, 168, 159, -1,
				 160, 161, 166, -1,
				 166, 167, 160, -1,
				 161, 162, 165, -1,
				 165, 166, 161, -1,
				 162, 153, 164, -1,
				 164, 165, 162, -1,
				 83, 173, 92, -1,
				 92, 82, 83, -1,
				 84, 174, 173, -1,
				 173, 83, 84, -1,
				 85, 175, 174, -1,
				 174, 84, 85, -1,
				 86, 176, 175, -1,
				 175, 85, 86, -1,
				 87, 177, 176, -1,
				 176, 86, 87, -1,
				 88, 178, 177, -1,
				 177, 87, 88, -1,
				 89, 179, 178, -1,
				 178, 88, 89, -1,
				 90, 180, 179, -1,
				 179, 89, 90, -1,
				 91, 181, 180, -1,
				 180, 90, 91, -1,
				 82, 92, 181, -1,
				 181, 91, 82, -1,
				 342, 345, 94, -1,
				 94, 93, 342, -1,
				 344, 73, 95, -1,
				 344, 95, 502, -1,
				 503, 344, 504, -1,
				 505, 506, 96, -1,
				 96, 507, 508, -1,
				 509, 510, 511, -1,
				 512, 513, 514, -1,
				 515, 516, 517, -1,
				 346, 349, 98, -1,
				 98, 97, 346, -1,
				 518, 519, 99, -1,
				 520, 99, 521, -1,
				 522, 523, 524, -1,
				 525, 526, 100, -1,
				 100, 527, 528, -1,
				 529, 530, 531, -1,
				 532, 533, 534, -1,
				 535, 536, 537, -1,
				 350, 353, 102, -1,
				 102, 101, 350, -1,
				 538, 539, 103, -1,
				 540, 103, 541, -1,
				 542, 543, 544, -1,
				 545, 546, 104, -1,
				 104, 547, 548, -1,
				 76, 351, 549, -1,
				 76, 550, 551, -1,
				 76, 552, 553, -1,
				 354, 357, 106, -1,
				 106, 105, 354, -1,
				 554, 555, 107, -1,
				 556, 107, 557, -1,
				 558, 559, 560, -1,
				 561, 562, 108, -1,
				 108, 563, 564, -1,
				 78, 355, 565, -1,
				 78, 566, 567, -1,
				 78, 568, 569, -1,
				 358, 361, 110, -1,
				 110, 109, 358, -1,
				 360, 81, 111, -1,
				 360, 111, 570, -1,
				 571, 360, 572, -1,
				 573, 574, 112, -1,
				 112, 575, 576, -1,
				 577, 578, 579, -1,
				 580, 581, 582, -1,
				 583, 584, 585, -1,
				 93, 94, 114, -1,
				 114, 113, 93, -1,
				 586, 95, 115, -1,
				 115, 587, 588, -1,
				 589, 96, 116, -1,
				 116, 590, 591, -1,
				 592, 593, 594, -1,
				 595, 596, 597, -1,
				 97, 98, 118, -1,
				 118, 117, 97, -1,
				 598, 99, 119, -1,
				 119, 599, 600, -1,
				 601, 100, 120, -1,
				 120, 602, 603, -1,
				 604, 605, 606, -1,
				 607, 608, 609, -1,
				 101, 102, 122, -1,
				 122, 121, 101, -1,
				 610, 103, 123, -1,
				 123, 611, 612, -1,
				 613, 104, 124, -1,
				 124, 614, 615, -1,
				 616, 617, 618, -1,
				 619, 620, 621, -1,
				 105, 106, 126, -1,
				 126, 125, 105, -1,
				 622, 107, 127, -1,
				 127, 623, 624, -1,
				 625, 108, 128, -1,
				 128, 626, 627, -1,
				 628, 629, 630, -1,
				 631, 632, 633, -1,
				 109, 110, 130, -1,
				 130, 129, 109, -1,
				 634, 111, 131, -1,
				 131, 635, 636, -1,
				 637, 112, 132, -1,
				 132, 638, 639, -1,
				 640, 641, 642, -1,
				 643, 644, 645, -1,
				 113, 114, 134, -1,
				 134, 133, 113, -1,
				 646, 115, 135, -1,
				 135, 647, 648, -1,
				 649, 116, 136, -1,
				 136, 650, 651, -1,
				 652, 653, 654, -1,
				 655, 656, 657, -1,
				 117, 118, 138, -1,
				 138, 137, 117, -1,
				 658, 119, 139, -1,
				 139, 659, 660, -1,
				 661, 120, 140, -1,
				 140, 662, 663, -1,
				 664, 665, 666, -1,
				 667, 668, 669, -1,
				 121, 122, 142, -1,
				 142, 141, 121, -1,
				 670, 123, 143, -1,
				 143, 671, 672, -1,
				 673, 124, 144, -1,
				 144, 674, 675, -1,
				 676, 677, 678, -1,
				 679, 680, 681, -1,
				 125, 126, 146, -1,
				 146, 145, 125, -1,
				 682, 127, 147, -1,
				 147, 683, 684, -1,
				 685, 128, 148, -1,
				 148, 686, 687, -1,
				 688, 689, 690, -1,
				 691, 692, 693, -1,
				 129, 130, 150, -1,
				 150, 149, 129, -1,
				 694, 131, 151, -1,
				 151, 695, 696, -1,
				 697, 132, 152, -1,
				 152, 698, 699, -1,
				 700, 701, 702, -1,
				 703, 704, 705, -1,
				 72, 706, 707, -1,
				 708, 709, 72, -1,
				 73, 74, 710, -1,
				 711, 712, 73, -1,
				 74, 75, 713, -1,
				 714, 715, 74, -1,
				 75, 76, 716, -1,
				 717, 718, 75, -1,
				 719, 77, 720, -1,
				 721, 722, 723, -1,
				 77, 78, 724, -1,
				 725, 726, 77, -1,
				 727, 79, 728, -1,
				 729, 730, 731, -1,
				 79, 80, 732, -1,
				 733, 734, 79, -1,
				 80, 735, 736, -1,
				 737, 738, 80, -1,
				 81, 72, 739, -1,
				 740, 741, 81, -1,
				 742, 743, 744, -1,
				 745, 746, 747, -1,
				 748, 749, 750, -1,
				 751, 752, 753, -1,
				 754, 755, 756, -1,
				 757, 758, 759, -1,
				 760, 761, 762, -1,
				 763, 764, 765, -1,
				 766, 767, 768, -1,
				 769, 770, 771, -1,
				 772, 773, 774, -1,
				 775, 776, 777, -1,
				 778, 779, 780, -1,
				 781, 782, 783, -1,
				 784, 785, 786, -1,
				 787, 788, 789, -1,
				 790, 791, 792, -1,
				 793, 794, 795, -1,
				 796, 797, 798, -1,
				 799, 800, 801, -1,
				 332, 333, 334, -1,
				 332, 334, 335, -1,
				 332, 335, 336, -1,
				 332, 336, 337, -1,
				 332, 337, 338, -1,
				 332, 338, 339, -1,
				 332, 339, 340, -1,
				 332, 340, 341, -1,
				 802, 803, 183, -1,
				 183, 182, 804, -1,
				 805, 806, 184, -1,
				 184, 807, 808, -1,
				 809, 810, 185, -1,
				 185, 184, 811, -1,
				 812, 813, 186, -1,
				 186, 185, 814, -1,
				 815, 816, 187, -1,
				 187, 817, 818, -1,
				 819, 820, 188, -1,
				 188, 187, 821, -1,
				 822, 823, 189, -1,
				 189, 824, 825, -1,
				 826, 827, 190, -1,
				 190, 189, 828, -1,
				 829, 830, 191, -1,
				 191, 190, 831, -1,
				 832, 833, 182, -1,
				 182, 834, 835, -1,
				 222, 223, 232, -1,
				 232, 233, 222, -1,
				 836, 224, 241, -1,
				 241, 837, 838, -1,
				 224, 225, 240, -1,
				 240, 241, 224, -1,
				 225, 226, 239, -1,
				 239, 240, 225, -1,
				 839, 227, 238, -1,
				 238, 840, 841, -1,
				 227, 228, 237, -1,
				 237, 238, 227, -1,
				 842, 229, 236, -1,
				 236, 843, 844, -1,
				 229, 230, 235, -1,
				 235, 236, 229, -1,
				 230, 231, 234, -1,
				 234, 235, 230, -1,
				 845, 222, 233, -1,
				 233, 846, 847, -1,
				 848, 849, 203, -1,
				 203, 202, 850, -1,
				 851, 852, 204, -1,
				 204, 203, 853, -1,
				 854, 855, 205, -1,
				 205, 204, 856, -1,
				 857, 858, 206, -1,
				 206, 205, 859, -1,
				 860, 861, 207, -1,
				 207, 206, 862, -1,
				 863, 864, 208, -1,
				 208, 207, 865, -1,
				 866, 867, 209, -1,
				 209, 208, 868, -1,
				 869, 870, 210, -1,
				 210, 209, 871, -1,
				 872, 873, 211, -1,
				 211, 210, 874, -1,
				 875, 876, 202, -1,
				 202, 211, 877, -1,
				 193, 192, 213, -1,
				 213, 212, 193, -1,
				 192, 201, 214, -1,
				 214, 213, 192, -1,
				 201, 200, 215, -1,
				 215, 214, 201, -1,
				 200, 199, 216, -1,
				 216, 215, 200, -1,
				 199, 198, 217, -1,
				 217, 216, 199, -1,
				 198, 197, 218, -1,
				 218, 217, 198, -1,
				 197, 196, 219, -1,
				 219, 218, 197, -1,
				 196, 195, 220, -1,
				 220, 219, 196, -1,
				 195, 194, 221, -1,
				 221, 220, 195, -1,
				 194, 193, 212, -1,
				 212, 221, 194, -1,
				 202, 203, 878, -1,
				 879, 880, 202, -1,
				 203, 204, 881, -1,
				 882, 883, 203, -1,
				 204, 205, 884, -1,
				 885, 886, 204, -1,
				 205, 206, 887, -1,
				 888, 889, 205, -1,
				 206, 207, 890, -1,
				 891, 892, 206, -1,
				 207, 208, 893, -1,
				 894, 895, 207, -1,
				 208, 209, 896, -1,
				 897, 898, 208, -1,
				 209, 210, 899, -1,
				 900, 901, 209, -1,
				 210, 211, 902, -1,
				 903, 904, 210, -1,
				 211, 202, 905, -1,
				 906, 907, 211, -1,
				 242, 243, 252, -1,
				 252, 253, 242, -1,
				 243, 244, 261, -1,
				 261, 252, 243, -1,
				 244, 245, 260, -1,
				 260, 261, 244, -1,
				 245, 246, 259, -1,
				 259, 260, 245, -1,
				 246, 247, 258, -1,
				 258, 259, 246, -1,
				 247, 248, 257, -1,
				 257, 258, 247, -1,
				 248, 249, 256, -1,
				 256, 257, 248, -1,
				 249, 250, 255, -1,
				 255, 256, 249, -1,
				 250, 251, 254, -1,
				 254, 255, 250, -1,
				 251, 242, 253, -1,
				 253, 254, 251, -1,
				 908, 909, 910, -1,
				 911, 912, 913, -1,
				 914, 915, 916, -1,
				 917, 918, 919, -1,
				 920, 921, 922, -1,
				 923, 924, 925, -1,
				 926, 927, 928, -1,
				 929, 930, 931, -1,
				 932, 933, 934, -1,
				 935, 936, 937, -1,
				 938, 939, 940, -1,
				 941, 942, 943, -1,
				 944, 945, 946, -1,
				 947, 948, 949, -1,
				 950, 951, 952, -1,
				 953, 954, 955, -1,
				 956, 957, 958, -1,
				 959, 960, 961, -1,
				 962, 963, 964, -1,
				 965, 966, 967, -1,
				 233, 232, 968, -1,
				 969, 970, 233, -1,
				 971, 241, 972, -1,
				 973, 974, 975, -1,
				 241, 240, 976, -1,
				 977, 978, 241, -1,
				 240, 239, 979, -1,
				 980, 981, 240, -1,
				 982, 238, 983, -1,
				 984, 985, 986, -1,
				 238, 237, 987, -1,
				 988, 989, 238, -1,
				 990, 236, 991, -1,
				 992, 993, 994, -1,
				 236, 235, 995, -1,
				 996, 997, 236, -1,
				 235, 234, 998, -1,
				 999, 1000, 235, -1,
				 1001, 233, 1002, -1,
				 1003, 1004, 1005, -1,
				 192, 193, 263, -1,
				 263, 262, 192, -1,
				 193, 194, 264, -1,
				 264, 263, 193, -1,
				 194, 195, 265, -1,
				 265, 264, 194, -1,
				 195, 196, 266, -1,
				 266, 265, 195, -1,
				 196, 197, 267, -1,
				 267, 266, 196, -1,
				 197, 198, 268, -1,
				 268, 267, 197, -1,
				 198, 199, 269, -1,
				 269, 268, 198, -1,
				 199, 200, 270, -1,
				 270, 269, 199, -1,
				 200, 201, 271, -1,
				 271, 270, 200, -1,
				 201, 192, 262, -1,
				 262, 271, 201, -1,
				 280, 281, 272, -1,
				 272, 310, 280, -1,
				 281, 282, 273, -1,
				 273, 272, 281, -1,
				 282, 283, 274, -1,
				 274, 273, 282, -1,
				 283, 284, 275, -1,
				 275, 274, 283, -1,
				 284, 285, 276, -1,
				 276, 275, 284, -1,
				 285, 286, 277, -1,
				 277, 276, 285, -1,
				 286, 287, 278, -1,
				 278, 277, 286, -1,
				 287, 288, 279, -1,
				 279, 278, 287, -1,
				 288, 289, 311, -1,
				 311, 279, 288, -1,
				 289, 280, 310, -1,
				 310, 311, 289, -1,
				 1006, 1007, 1008, -1,
				 1009, 1010, 1011, -1,
				 1012, 1013, 1014, -1,
				 1015, 1016, 1017, -1,
				 1018, 1019, 1020, -1,
				 1021, 1022, 1023, -1,
				 1024, 1025, 1026, -1,
				 1027, 1028, 1029, -1,
				 1030, 1031, 1032, -1,
				 1033, 1034, 1035, -1,
				 1036, 1037, 1038, -1,
				 1039, 1040, 1041, -1,
				 1042, 1043, 1044, -1,
				 1045, 1046, 1047, -1,
				 1048, 1049, 1050, -1,
				 1051, 1052, 1053, -1,
				 1054, 1055, 1056, -1,
				 1057, 1058, 1059, -1,
				 1060, 1061, 1062, -1,
				 1063, 1064, 1065, -1,
				 133, 134, 1066, -1,
				 1067, 1068, 133, -1,
				 1069, 135, 1070, -1,
				 1071, 1072, 1073, -1,
				 1074, 136, 1075, -1,
				 1076, 1077, 1078, -1,
				 1079, 1080, 1081, -1,
				 1082, 1083, 1084, -1,
				 137, 138, 1085, -1,
				 1086, 1087, 137, -1,
				 1088, 139, 1089, -1,
				 1090, 1091, 1092, -1,
				 1093, 140, 1094, -1,
				 1095, 1096, 1097, -1,
				 1098, 1099, 1100, -1,
				 1101, 1102, 1103, -1,
				 141, 142, 1104, -1,
				 1105, 1106, 141, -1,
				 1107, 143, 1108, -1,
				 1109, 1110, 1111, -1,
				 1112, 144, 1113, -1,
				 1114, 1115, 1116, -1,
				 1117, 1118, 1119, -1,
				 1120, 1121, 1122, -1,
				 145, 146, 1123, -1,
				 1124, 1125, 145, -1,
				 1126, 147, 1127, -1,
				 1128, 1129, 1130, -1,
				 1131, 148, 1132, -1,
				 1133, 1134, 1135, -1,
				 1136, 1137, 1138, -1,
				 1139, 1140, 1141, -1,
				 149, 150, 1142, -1,
				 1143, 1144, 149, -1,
				 1145, 151, 1146, -1,
				 1147, 1148, 1149, -1,
				 1150, 152, 1151, -1,
				 1152, 1153, 1154, -1,
				 1155, 1156, 1157, -1,
				 1158, 1159, 1160, -1,
				 1161, 313, 312, -1,
				 312, 1162, 1163, -1,
				 1164, 314, 1165, -1,
				 1166, 1167, 1168, -1,
				 1169, 315, 314, -1,
				 314, 1170, 1171, -1,
				 1172, 316, 315, -1,
				 315, 1173, 1174, -1,
				 1175, 317, 1176, -1,
				 1177, 1178, 1179, -1,
				 1180, 318, 317, -1,
				 317, 1181, 1182, -1,
				 1183, 319, 1184, -1,
				 1185, 1186, 1187, -1,
				 1188, 320, 319, -1,
				 319, 1189, 1190, -1,
				 1191, 321, 320, -1,
				 320, 1192, 1193, -1,
				 1194, 312, 1195, -1,
				 1196, 1197, 1198, -1,
				 322, 1199, 1200, -1,
				 1201, 323, 322, -1,
				 323, 1202, 1203, -1,
				 1204, 324, 323, -1,
				 324, 1205, 1206, -1,
				 1207, 325, 324, -1,
				 325, 1208, 1209, -1,
				 1210, 326, 325, -1,
				 326, 1211, 1212, -1,
				 1213, 327, 326, -1,
				 327, 1214, 1215, -1,
				 1216, 328, 327, -1,
				 328, 1217, 1218, -1,
				 1219, 329, 328, -1,
				 329, 1220, 1221, -1,
				 1222, 330, 329, -1,
				 330, 1223, 1224, -1,
				 1225, 331, 330, -1,
				 331, 1226, 1227, -1,
				 1228, 322, 331, -1,
				 1229, 1230, 1231, -1,
				 1232, 1233, 1234, -1,
				 1235, 1236, 1237, -1,
				 1238, 1239, 1240, -1,
				 1241, 1242, 1243, -1,
				 1244, 1245, 1246, -1,
				 1247, 1248, 1249, -1,
				 1250, 1251, 1252, -1,
				 1253, 1254, 1255, -1,
				 1256, 1257, 1258, -1,
				 1259, 1260, 1261, -1,
				 1262, 1263, 1264, -1,
				 1265, 1266, 1267, -1,
				 1268, 1269, 1270, -1,
				 1271, 1272, 1273, -1,
				 1274, 1275, 1276, -1,
				 1277, 1278, 1279, -1,
				 1280, 1281, 1282, -1,
				 1283, 1284, 1285, -1,
				 1286, 1287, 1288, -1,
				 1289, 1290, 1291, -1,
				 1292, 344, 1293, -1,
				 1294, 1295, 1296, -1,
				 1297, 1298, 1299, -1,
				 1300, 1301, 351, -1,
				 1302, 1303, 1304, -1,
				 1305, 1306, 1307, -1,
				 1308, 1309, 1310, -1,
				 1311, 1312, 1313, -1,
				 1314, 1315, 1316, -1,
				 342, 62, 63, -1,
				 63, 345, 342, -1,
				 64, 1317, 1318, -1,
				 1319, 63, 64, -1,
				 346, 64, 65, -1,
				 65, 349, 346, -1,
				 66, 1320, 1321, -1,
				 1322, 65, 66, -1,
				 350, 66, 67, -1,
				 67, 353, 350, -1,
				 68, 1323, 1324, -1,
				 1325, 67, 68, -1,
				 354, 68, 69, -1,
				 69, 357, 354, -1,
				 70, 1326, 1327, -1,
				 1328, 69, 70, -1,
				 358, 70, 71, -1,
				 71, 361, 358, -1,
				 62, 1329, 1330, -1,
				 1331, 71, 62, -1,
			]
		}
	}

	# Hidden Objects, in invisible layers

}

# Visible Objects

Separator {
	MatrixTransform {
	matrix 
		0.685880 -0.317370 0.654862 0.000000
		0.727634 0.312469 -0.610666 0.000000
		-0.010817 0.895343 0.445245 0.000000
		-0.338183 -0.376694 -11.252342 1.000000
	}
	PerspectiveCamera {
		focalDistance 3.500000
	}
	Separator {
		MatrixTransform {
		matrix 
			0.203146 0.000000 0.000000 0.000000
			0.000000 0.203146 0.000000 0.000000
			0.000000 0.000000 0.203146 0.000000
			-0.125686 -0.060823 28.287378 1.000000
		}
		USE Mesh_001
	}
}
}
